<?xml version="1.0" encoding="UTF-8"?>
<svg id="Layer_2" data-name="Layer 2" xmlns="http://www.w3.org/2000/svg" viewBox="0 0 151.92 283.87">
  <defs>
    <style>
      .cls-1 {
        stroke-width: 0px;
      }
    </style>
  </defs>
  <g id="teeth">
    <g>
      <g>
        <path class="cls-1" d="M138.2,185.4l-2.99-.25c2.88-34.27,1.93-62.39-3.15-94.04C124.31,42.94,76.57,3.03,55.47,3h-.02c-1.58,0-2.69.35-3.3,1.04-1.06,1.2-.75,3.56-.53,5.29.21,1.6.36,2.75-.48,3.54-.82.78-1.97.87-3.3.97-2.75.21-5.35.4-5.8,5.42-.63,7.13-.72,13.95-.81,21.18-.06,4.9-.13,9.97-.37,15.48-.51,11.99-3.76,22.35-7.2,33.32-2.28,7.28-4.64,14.81-6.25,23.11-3.14,16.17-4.18,46.49-.37,67.28l-2.95.54c-3.87-21.13-2.82-51.96.38-68.4,1.65-8.46,4.03-16.08,6.34-23.44,3.38-10.78,6.56-20.96,7.06-32.56.23-5.47.3-10.51.36-15.39.1-7.28.19-14.16.82-21.4.67-7.55,5.8-7.94,8.56-8.14.36-.03.82-.06,1.15-.11-.03-.31-.08-.7-.12-1.02-.28-2.16-.71-5.44,1.25-7.66,1.2-1.36,3.07-2.05,5.55-2.05h.02c11.78.02,29.65,10.64,45.53,27.06,10.66,11.02,29.25,33.93,34.01,63.57,5.13,31.9,6.08,60.25,3.18,94.77Z"/>
        <path class="cls-1" d="M115.66,283.87c-2.71,0-5.41-.23-8-.69-8.89-1.57-16.16-6.6-22-10.64-4.8-3.32-8.96-6.19-12.24-6h0c-5.28.31-8.48,2.28-12.18,4.55-4.11,2.53-8.78,5.4-16.9,5.82-14.74.78-29.18-9.88-36.97-20.78-14.82-20.75-4.96-50.43,9.22-71.28,3.94-5.8,12.32-8.58,28.01-9.28,5.31-.24,9.66-1.92,13.87-3.55,4.62-1.79,9.41-3.63,15.33-3.55,5.37.08,11.84,2.39,18.09,4.64,4.8,1.72,9.33,3.34,13.06,3.87,3.15.45,5.98.79,8.72,1.12,9.3,1.12,16.02,1.92,23.03,5.68,12.73,6.83,21.94,51.2,8.91,84.58-4.06,10.39-17.17,15.49-29.94,15.49ZM73.73,263.53c4.18,0,8.57,3.04,13.63,6.54,5.9,4.08,12.58,8.7,20.82,10.16,13.3,2.36,30.33-1.92,34.63-12.94,13.07-33.47,2.84-75.29-7.53-80.85-6.51-3.49-13-4.27-21.97-5.35-2.75-.33-5.6-.67-8.79-1.13-4.03-.58-8.7-2.25-13.64-4.02-6.03-2.16-12.26-4.39-17.12-4.46-5.38-.09-9.66,1.59-14.21,3.35-4.43,1.71-9.01,3.49-14.82,3.75-14.64.66-22.31,3.04-25.67,7.97-13.61,20.02-23.19,48.35-9.26,67.85,7.31,10.23,20.77,20.23,34.37,19.53,7.36-.39,11.49-2.93,15.48-5.38,3.71-2.28,7.54-4.64,13.57-4.99h0c.16,0,.33-.01.5-.01Z"/>
        <path class="cls-1" d="M49.69,11.54c10.68,9.71,19.29,21.72,25.47,34.77,4.49,10.1,4.81,21.37,4.2,32.2-.18,3.58-.39,7.13-.21,10.72-1.53-7.01-1.19-14.31-1.93-21.39-.71-7.94-2.35-15.67-5.91-22.7-1.14-2.3-2.48-4.81-3.73-7.04-5.19-9.37-11.27-18.09-17.89-26.56h0Z"/>
        <path class="cls-1" d="M72.98,265.71c-.59-4.69-.88-11.23-1.23-15.97-.29-4.76-.87-11.24-.91-15.99,2.4,4.93,3.51,10.35,3.9,15.79.33,5.44-.05,10.96-1.76,16.17h0Z"/>
        <path class="cls-1" d="M58.46,231.1c4.26.97,8.29,1.76,12.57,1.87,4.28.14,8.34-.43,12.65-1.15-7,5.85-18.55,5.49-25.22-.71h0Z"/>
      </g>
      <path class="cls-1" d="M107.66,283.18c-9.15-1.62-16.84-6.82-23.02-11-4.6-3.11-8.58-5.8-11.23-5.64l-.17-2.99c3.67-.22,7.83,2.6,13.09,6.15,5.94,4.02,13.34,9.02,21.86,10.53l-.52,2.95Z"/>
    </g>
  </g>
</svg>