<?xml version="1.0" encoding="UTF-8"?>
<svg id="Layer_2" data-name="Layer 2" xmlns="http://www.w3.org/2000/svg" viewBox="0 0 99.21 308.7">
  <defs>
    <style>
      .cls-1 {
        stroke-width: 0px;
      }
    </style>
  </defs>
  <g id="teeth">
    <g>
      <path class="cls-1" d="M47.7,104.49c-.38,0-.75,0-1.14-.02-23.66-.83-32.62-21.25-38.55-34.77-.4-.92-.79-1.8-1.17-2.64-6.14-13.7-11.62-39.13-.17-49.04,2.88-2.49,4.36-2.93,7.32-3.79,2.27-.66,5.37-1.57,10.89-3.89,2.43-1.02,4.42-2.41,6.53-3.89C36.09,3.17,40.92-.21,50.92.01c7.74.17,11.58,3.31,15.64,6.64,2.45,2,4.99,4.08,8.68,5.86,4.15,2.01,7.08,3.26,9.21,4.18,4.41,1.9,6.06,2.61,9.19,5.8,10.05,10.26,4.6,32.85-1.51,45.54-2.97,6.16-18.89,36.46-44.43,36.46ZM49.98,3c-8.42,0-12.52,2.87-16.85,5.9-2.14,1.5-4.36,3.05-7.09,4.2-5.68,2.38-9,3.36-11.21,4-2.78.82-3.82,1.12-6.2,3.18-9.57,8.29-5.1,32.08.94,45.55.38.85.77,1.74,1.18,2.67,5.63,12.83,14.13,32.21,35.91,32.97,24.32.85,39.88-28.8,42.75-34.75,5.53-11.47,10.98-33.05,2.07-42.14-2.71-2.77-3.99-3.32-8.23-5.14-2.16-.93-5.12-2.2-9.33-4.23-4.02-1.94-6.81-4.23-9.28-6.24-3.97-3.24-7.1-5.81-13.81-5.96h0c-.29,0-.58,0-.87,0Z"/>
      <path class="cls-1" d="M60.38,308.7c-.26,0-.53-.01-.81-.03-6.15-.5-13.32-10.4-13.62-10.83-18.65-26.01-26.19-61.13-28.05-71.27-4.14-22.48-8.54-57.22-6.06-95.09l.04-.59c1.32-20.31,2.35-27.26,3.66-36.04.38-2.57.78-5.23,1.22-8.45l2.97.41c-.44,3.24-.84,5.9-1.23,8.48-1.3,8.72-2.33,15.61-3.64,35.79l-.04.59c-2.46,37.56,1.91,72.04,6.01,94.35,1.84,9.99,9.26,44.57,27.54,70.07,2.55,3.55,7.9,9.3,11.43,9.58,1.53.13,2.13-.26,2.44-.56.82-.78,1.22-2.61,1.14-5.32-.19-2.41-.47-5.09-.77-7.92-.96-9.06-2.15-20.35-1.65-34.39.87-24.42,4.35-39.38,7.71-53.85,1.8-7.75,3.67-15.77,5.05-25.06,3.52-23.6,6.23-50.81,2.32-89.79l2.99-.3c3.94,39.31,1.2,66.75-2.34,90.54-1.4,9.4-3.28,17.48-5.1,25.29-3.33,14.33-6.78,29.14-7.63,53.27-.49,13.83.69,25,1.64,33.97.3,2.87.59,5.58.78,8.04v.08c.11,3.75-.55,6.17-2.07,7.62-.99.94-2.29,1.4-3.95,1.4Z"/>
    </g>
  </g>
</svg>