<?xml version="1.0" encoding="UTF-8"?>
<svg id="Layer_2" data-name="Layer 2" xmlns="http://www.w3.org/2000/svg" viewBox="0 0 97.36 339.99">
  <defs>
    <style>
      .cls-1 {
        stroke-width: 0px;
      }
    </style>
  </defs>
  <g id="teeth">
    <g>
      <path class="cls-1" d="M46.86,339.99c-6.77,0-17.67-5.97-24.69-12.05-1.67-1.45-4.38-2.01-7.26-2.6-4.95-1.02-11.12-2.29-13.17-9.2-6.56-22.14,7.35-48.72,8.95-51.68l.4-.75c13.34-24.76,26.84-36.45,40.14-34.74,15.41,1.98,31.1,23.82,36.28,34.09l.38.75c3.54,6.97,11.84,23.3,8.81,45.12-.68,4.92-4.35,14.04-13.77,17.04-1.79.57-3.53.81-5.21,1.04-3.03.41-5.65.77-7.99,2.95-6.49,6.03-13.69,9.3-22.02,9.99-.28.02-.57.03-.86.03ZM48.83,231.82c-8.26,0-20.52,6.29-35.08,33.32l-.41.76c-.62,1.14-15.03,28.05-8.71,49.39,1.53,5.18,6.08,6.12,10.9,7.11,3.13.65,6.36,1.31,8.62,3.27,7.69,6.66,18.15,11.74,23.33,11.29,7.63-.64,14.25-3.65,20.22-9.2,3.04-2.82,6.39-3.28,9.63-3.72,1.55-.21,3.16-.43,4.7-.92,7.99-2.54,11.12-10.37,11.71-14.59,2.9-20.89-5.09-36.63-8.51-43.35l-.38-.76c-6.12-12.12-21.14-30.82-33.98-32.47h0c-.65-.08-1.33-.13-2.03-.13Z"/>
      <path class="cls-1" d="M86.71,262.37l-2.93-.65c4.3-19.3,6.33-36.81,4.74-74.03-.91-25.84-4.92-42.63-8.46-57.44-2.35-9.84-4.57-19.14-5.63-29.87-2.95-29.96-.37-55.64,2.36-82.84l.02-.16c.27-2.72,1.11-11.01-2.46-13.17-3.75-2.26-7.42-1.34-11.23,2.81-5.15,7.51-10.54,18.42-16.96,34.33-13.8,34.21-14.69,62.08-15.41,84.48-.49,15.24-2.03,29.18-3.65,43.94-2.62,23.73-5.32,48.27-3.3,78.63l-2.99.2c-2.04-30.62.68-55.3,3.31-79.16,1.62-14.7,3.15-28.58,3.64-43.71.73-22.63,1.63-50.81,15.63-85.51,6.53-16.18,12.03-27.3,17.33-34.99l.13-.16c6.07-6.69,11.55-5.56,15.07-3.44,5.2,3.14,4.25,12.51,3.9,16.03l-.02.16c-2.72,27.04-5.28,52.59-2.36,82.25,1.04,10.53,3.24,19.73,5.56,29.47,3.57,14.95,7.62,31.88,8.54,58.02,1.6,37.34-.56,55.7-4.81,74.79Z"/>
      <path class="cls-1" d="M96.02,300.32c-6.03-2.68-13.09-2.25-18.69,1-3.78,2.22-7.07,6.15-11.72,6.87-9.72,2.07-13.48-6.73-21.96-5.27-3.17.57-4.81,2.89-7.23,5.24-5.6,5.88-13.3,4.99-19.73,1.14-5.82-3.41-10.71-8.17-15.1-13.19,3.35,2.9,6.75,5.75,10.39,8.19,5.19,3.4,11.34,6.95,17.54,5.16,5.38-1.6,7.54-8.51,13.57-9.43,3.6-.8,7.57.32,10.53,2.13,1.99,1.12,3.78,2.27,5.67,2.91,3.85,1.41,8.04.56,11.42-1.83,1.78-1.19,3.61-2.62,5.7-3.63,6.11-3.01,13.91-2.9,19.61.73h0Z"/>
      <path class="cls-1" d="M43.08,302.06c-1.76-3.31-2.66-6.84-3.32-10.47-.59-3.64-.93-7.27-.37-10.98,1.77,3.31,2.67,6.84,3.32,10.47.59,3.64.92,7.27.37,10.98h0Z"/>
    </g>
  </g>
</svg>