<?xml version="1.0" encoding="UTF-8"?>
<svg id="Layer_2" data-name="Layer 2" xmlns="http://www.w3.org/2000/svg" viewBox="0 0 100.99 336.99">
  <defs>
    <style>
      .cls-1 {
        stroke-width: 0px;
      }
    </style>
  </defs>
  <g id="teeth">
    <g>
      <path class="cls-1" d="M86.53,214.35h-3c0-1.76.02-3.5.03-5.26.1-11.37.2-23.13-2.75-44.46-2.32-16.73-4.66-29.07-6.92-41.01-2.48-13.11-4.83-25.48-6.58-41.31-1.08-9.8-3.33-36.35-.82-71.04.02-4.54-1.18-6.93-4-7.98-2.7-1.01-6.46.95-7.22,2.1-15.3,23.13-25.96,88.05-26.07,88.7l-.17.92c-8.68,46.6-11.32,90.04-12.01,118.27l-3-.07c.69-28.34,3.34-71.94,12.06-118.74l.16-.88c.43-2.66,10.87-66.18,26.52-89.85,1.36-2.06,6.48-4.85,10.77-3.25,5.37,2.01,5.97,7.16,5.95,10.86v.1c-2.51,34.47-.28,60.82.8,70.54,1.74,15.71,4.07,28.03,6.54,41.08,2.27,11.97,4.61,24.35,6.94,41.16,2.99,21.55,2.88,33.42,2.78,44.9-.02,1.75-.03,3.49-.03,5.23Z"/>
      <path class="cls-1" d="M28.95,336.99c-7.66,0-14.79-1.34-19.78-5.08C2.98,327.27.4,306.12.05,287.87c-.47-24.25,2.67-47.37,8.39-61.84,5.52-13.96,15.79-39.93,37.04-40.98h0c26.25-1.29,43.78,29.87,48.16,45.17,4.96,17.31,10.08,41.32,5.67,73.62-1.99,14.6-17.07,20.32-27.04,24.11-.59.22-1.15.44-1.7.65-.31.12-22.56,8.4-41.61,8.4ZM45.63,188.05h0c-19.33.95-29.13,25.76-34.4,39.08-12.43,31.45-9.25,95.64-.25,102.39,13.51,10.14,47.63.47,58.51-3.72.55-.21,1.13-.43,1.72-.65,9.87-3.75,23.38-8.88,25.13-21.71,4.34-31.75-.7-55.36-5.58-72.39-4.17-14.55-20.69-44.19-45.13-43Z"/>
    </g>
  </g>
</svg>