<?xml version="1.0" encoding="UTF-8"?>
<svg id="Layer_2" data-name="Layer 2" xmlns="http://www.w3.org/2000/svg" viewBox="0 0 155.33 295.44">
  <defs>
    <style>
      .cls-1 {
        stroke-width: 0px;
      }
    </style>
  </defs>
  <g id="teeth">
    <g>
      <path class="cls-1" d="M138.17,193.29l-2.98-.3c4.36-43.22,5.23-72.94,2.81-96.39-4.12-39.9-11.14-57.91-31.32-80.31-3.93-4.36-17.08-15.96-22.47-12.76-1.92,1.14-1.88,2.18-1.84,3.19,0,.23.01.43,0,.61-.1,1.94,1.4,5.44,3.49,10.28,1.86,4.33,4.18,9.71,6.52,16.6,7.7,22.62,9.91,67.14,5.59,80.25-2.18,6.64-7.15,17.94-15.89,19-1.46.18-7.61-.59-11.01-7.64-3.82-7.89-5.55-14.74-7.38-22-1.46-5.79-2.97-11.77-5.65-18.5C35.47,28.75,20.92,14.34,12.67,12.2c-3.17-.82-5.47-.81-6.89.04-3.62,2.16-3.67,9.02-.14,20.4,7.93,25.53,9.94,38.15,15.09,74.19l.18,1.26c2.77,19.34,6.22,43.41,3.77,82.55l-2.99-.19c2.43-38.83-1-62.73-3.75-81.94l-.18-1.26c-5.13-35.86-7.12-48.41-14.99-73.73-1.49-4.8-6.02-19.4,1.47-23.87,3.22-1.92,7.66-.76,9.13-.39,13.02,3.37,28.97,28.57,47.46,74.92,2.76,6.91,4.29,12.99,5.78,18.88,1.79,7.11,3.49,13.82,7.17,21.43,2.88,5.96,7.92,5.98,7.97,5.97,7.34-.9,11.81-12.16,13.39-16.96,3.71-11.29,2.32-55.1-5.59-78.34-2.31-6.78-4.6-12.1-6.44-16.38-2.32-5.41-3.86-8.98-3.73-11.62,0-.1,0-.22,0-.35-.05-1.24-.14-3.83,3.31-5.88,8.87-5.26,26.06,13.14,26.23,13.33,22.82,25.33,28.34,45.77,32.08,82.01,2.44,23.66,1.58,53.58-2.81,97Z"/>
      <path class="cls-1" d="M110.24,295.44c-5.46,0-11.66-1.2-17.41-5.08-1.08-.73-2.14-1.58-3.27-2.49-3.18-2.56-6.79-5.46-11.86-6.22-5.9-.88-9.96,1.3-15.1,4.05-4.08,2.19-8.71,4.67-15.04,5.83-12.53,2.31-28.25-3.03-37.37-12.71-16.09-17.05-9.13-43.18-5.79-55.74,1.53-5.75,10.02-34.52,26.92-36.46,3.94-.45,6.48.42,9.17,1.33,2.66.91,5.4,1.84,10.18,1.87,6.6,0,10.25-1.37,13.81-2.73,3.51-1.34,7.15-2.72,13.16-2.53h0c6.28.21,10.07,2.04,13.74,3.8,3.67,1.77,7.14,3.44,13.23,3.72,6.62.3,11.23-.94,15.3-2.05,2.75-.75,5.14-1.38,7.57-1.37,8,.05,14.89,7.07,19.39,19.76,7.59,21.41,11.57,54.39,5.53,66.47-2.51,5.02-12.94,15.62-34.41,19.77-2.27.44-4.9.76-7.74.76ZM75.15,278.46c.96,0,1.96.07,3,.23,5.88.88,9.99,4.19,13.3,6.85,1.08.87,2.09,1.68,3.07,2.34,6.33,4.27,14.04,5.57,22.9,3.86,18.85-3.64,29.64-12.85,32.29-18.16,5.62-11.25,1.57-43.71-5.67-64.13-4.05-11.41-9.93-17.72-16.58-17.76h-.07c-2.01,0-4.18.59-6.69,1.27-4.07,1.1-9.13,2.47-16.22,2.15-6.71-.31-10.62-2.2-14.4-4.02-3.54-1.71-6.89-3.32-12.53-3.51-5.41-.18-8.45.99-11.99,2.33-3.6,1.37-7.67,2.93-14.68,2.93-.07,0-.14,0-.21,0-5.27-.02-8.39-1.09-11.14-2.03-2.56-.88-4.59-1.57-7.86-1.19-15.28,1.75-23.48,30.93-24.36,34.25-3.2,12.03-9.87,37.08,5.07,52.91,8.34,8.84,23.24,13.92,34.65,11.82,5.87-1.08,10.09-3.34,14.17-5.53,4.4-2.36,8.59-4.6,13.96-4.6Z"/>
      <path class="cls-1" d="M4.69,268.74c4.87-4.48,11.34-6.64,17.71-4.06,3.01,1.2,5.38,3.6,7.71,5.68,3.18,2.89,7.37,5.06,11.74,4.51,4.47-.66,8-3.51,11.8-6.03,13.42-9.89,22.71-8.34,35.44,1.63,4.99,3.63,9.61,7.74,15.11,10.56,11.29,5.29,24.21,4.37,36.34,3.17-12.19,2.35-25.5,3.87-37.26-1.18-5.72-2.64-10.69-6.77-15.8-10.37-12.04-8.97-19.58-10.51-32.2-1.42-3.89,2.6-8.18,5.67-13.11,6.23-5.06.58-9.99-2.11-13.47-5.57-2.28-2.22-4.24-4.54-6.92-5.79-5.8-2.82-12.03-1.08-17.07,2.63h0Z"/>
      <path class="cls-1" d="M72.89,218.54c2.48,15.23,2.6,30.81.45,46.08-1.19-7.65-1.47-15.32-1.5-23.03-.05-7.71,0-15.38,1.05-23.05h0Z"/>
    </g>
  </g>
</svg>