<?xml version="1.0" encoding="UTF-8"?>
<svg id="Layer_2" data-name="Layer 2" xmlns="http://www.w3.org/2000/svg" viewBox="0 0 172.18 311.41">
  <defs>
    <style>
      .cls-1 {
        stroke-width: 0px;
      }
    </style>
  </defs>
  <g id="teeth">
    <g>
      <path class="cls-1" d="M82.26,124.82c-.53,0-1.07-.02-1.62-.05-6.03-.37-9.38-2.11-13.26-4.13-2.86-1.49-6.11-3.18-11.19-4.74-8.96-2.76-13.51-2.2-17.52-1.7-4,.49-7.45.92-13.4-2.16-11.24-5.8-19.64-28.74-22.97-48.89C-.89,43.93-2.41,28.14,9.07,14.32,16.81,5,29.75-.73,41.29.08c8.07.56,12.41,2.96,16.6,5.29,3.98,2.21,7.74,4.29,14.74,4.47,7.12.18,11.75-1.85,16.22-3.81,4.83-2.12,9.83-4.32,17.48-3.4,6.25.75,9.48,3.09,12.91,5.56,3.52,2.54,7.15,5.17,14.85,6.82,4.87,1.04,8.43,1.24,11.57,1.41,4.27.23,7.65.42,11.94,2.61,12.29,6.28,15.09,23.52,14.52,30.89-1.37,17.71-6.72,49.26-27.11,61.57-5.26,3.18-9.17,2.85-13.7,2.46-4.23-.36-9.04-.77-16.76,1.2-5.8,1.48-10.58,3.41-14.8,5.11-6.05,2.44-11.34,4.57-17.47,4.57ZM44,110.78c3.26,0,7.38.49,13.08,2.24,5.34,1.65,8.72,3.4,11.69,4.95,3.87,2.01,6.66,3.47,12.06,3.8,6.16.37,11.29-1.69,17.78-4.31,4.31-1.74,9.19-3.71,15.18-5.23,8.21-2.1,13.51-1.64,17.76-1.28,4.34.37,7.47.64,11.9-2.04,19.96-12.05,24.6-45.44,25.67-59.23.5-6.45-2.05-22.45-12.89-27.99-3.73-1.9-6.67-2.06-10.74-2.29-3.09-.17-6.93-.38-12.03-1.47-8.32-1.78-12.39-4.72-15.98-7.32-3.23-2.34-6.02-4.36-11.5-5.01h0c-6.84-.82-11.25,1.12-15.92,3.17-4.55,2-9.7,4.28-17.51,4.06-7.74-.2-12-2.56-16.12-4.84-3.9-2.16-7.94-4.4-15.35-4.92-10.61-.74-22.55,4.55-29.7,13.17C1.59,28.03,1.6,40.6,5.25,62.65c3.11,18.79,11.13,41.42,21.39,46.72,5.13,2.65,7.87,2.31,11.66,1.85,1.66-.2,3.48-.43,5.69-.43Z"/>
      <path class="cls-1" d="M62.09,311.41c-4.91,0-10.67-2.94-13.02-4.47-20.72-13.5-28.81-48.75-29.14-50.24-5.02-18.16-10.5-45.18-8.16-92.78.08-1.65.16-3.25.23-4.82.72-15.42,1.29-27.59,6.41-54.06l2.95.57c-5.08,26.25-5.65,38.33-6.36,53.63-.07,1.57-.15,3.18-.23,4.83-2.32,47.17,3.09,73.89,8.07,91.9.1.43,8.18,35.63,27.87,48.46,3.9,2.54,11.14,5.34,14.29,3.28,2.73-1.79,4.05-3.53,2.74-7.04-11.41-20.1-13.02-35.35-12.37-44.59.69-9.79,1.65-15.91,2.85-23.65.98-6.3,2.09-13.44,3.42-24.58.14-1.2.27-2.49.41-3.85.89-8.9,2.1-21.08,9.78-30.52,2.91-3.58,6.19-5.57,9.75-5.92,11.2-1.1,18.56,20.3,22.1,30.58.5,1.44.89,2.57,1.17,3.29,5.13,12.95,6.92,19.3,8.99,26.65,1.57,5.57,3.35,11.88,6.92,22.24,6.37,18.45,13.11,33.85,25.31,49.07,5.44,6.78,12.25,8.1,15.36,6.87.88-.35,1.6-1.63,2.05-3.63-3.6-12.41-5.97-25.19-7.05-38-1.18-13.99-1.23-17.6-1.32-24.15-.04-2.83-.08-6.04-.22-10.87-.47-15.98-2.68-27.13-5.02-38.93-2.04-10.3-4.15-20.96-5.16-35.39-.66-9.43-1.07-14.59-2.05-27.07-.37-4.64-.81-10.27-1.37-17.49l2.99-.23c.56,7.22,1.01,12.85,1.37,17.49.96,12.13,1.39,17.66,2.05,27.1,1,14.24,3.09,24.8,5.11,35.01,2.36,11.93,4.59,23.2,5.07,39.42.14,4.85.19,8.21.23,10.91.09,6.48.14,10.05,1.31,23.94,1.07,12.73,3.45,25.44,7.05,37.77l.1.36-.07.36c-.67,3.32-2.01,5.4-3.96,6.17-4.62,1.83-12.78-.28-18.8-7.79-12.47-15.55-19.34-31.22-25.8-49.97-3.6-10.44-5.39-16.79-6.97-22.4-2.05-7.27-3.82-13.56-8.89-26.36-.31-.78-.71-1.94-1.22-3.41-2.78-8.05-10.18-29.45-18.97-28.58-2.74.27-5.33,1.9-7.72,4.83-7.11,8.74-8.27,20.4-9.12,28.92-.14,1.38-.27,2.69-.41,3.91-1.34,11.19-2.45,18.36-3.44,24.69-1.2,7.68-2.14,13.74-2.83,23.4-.63,8.85.95,23.5,12.04,43l.1.2c2.22,5.8-.9,8.78-3.86,10.73-1.31.86-2.88,1.2-4.56,1.2Z"/>
      <path class="cls-1" d="M132.67,15.82c2.14,4.77,3.1,9.93,3.48,15.1.32,5.18.05,10.42-1.45,15.43-.88-5.1-1.17-10.12-1.54-15.23-.3-5.12-.68-10.13-.49-15.3h0Z"/>
      <path class="cls-1" d="M72.15,11.24c1.77,7.48,2.38,15.13,2.5,22.78.05,7.66-.39,15.32-2,22.83-.78-7.62-.88-15.18-1-22.8-.05-7.62-.1-15.18.49-22.82h0Z"/>
      <path class="cls-1" d="M89.4,62.99c-7.88-3.32-16.41-5.06-24.81-3.17-2.75.58-5.45,1.54-8.18,2.74,8.45-9.17,24.53-8.28,32.99.42h0Z"/>
    </g>
  </g>
</svg>