<?xml version="1.0" encoding="UTF-8"?>
<svg id="Layer_2" data-name="Layer 2" xmlns="http://www.w3.org/2000/svg" viewBox="0 0 142.74 408.47">
  <defs>
    <style>
      .cls-1 {
        stroke-width: 0px;
      }
    </style>
  </defs>
  <g id="teeth">
    <g>
      <path class="cls-1" d="M69.85,176.12c-.68,0-1.36-.02-2.04-.05-18.31-.97-30.17-14.5-35.61-22.48-4.6-6.76-10.2-16.44-16.83-37.06-3.13-9.74-4.13-14.12-5.19-18.76-.97-4.23-1.97-8.6-4.75-17.55C2.68,71.42-1.59,55.17.61,45.37c2.8-12.46,14.47-17.63,21.44-20.72.88-.39,1.68-.74,2.36-1.07,4.35-2.09,5.99-2.95,8.07-4.04,1.7-.89,3.81-2.01,8.02-4.1,2.84-1.41,5.46-3.49,8.24-5.7C54.79,4.94,61.66-.49,72.47.04c8.8.43,14.26,5.75,19.54,10.9,3.14,3.07,6.4,6.24,10.42,8.52,4.77,2.7,8.63,4.74,12.04,6.53,9.11,4.8,14.12,7.45,20.7,14.6,13.05,14.19,5.63,41.26,4.01,46.54-2.95,9.61-6.18,14.64-9.92,20.48-3.22,5.02-6.87,10.71-11.04,20.6-2.8,6.64-3.88,9.81-4.66,12.13-1.17,3.45-1.7,5.02-5.98,12.67-6.54,11.7-20.61,23.11-37.73,23.11ZM71.03,3c-8.96,0-14.79,4.62-20.43,9.09-2.9,2.3-5.65,4.48-8.76,6.03-4.18,2.08-6.19,3.14-7.96,4.07-2.1,1.11-3.76,1.98-8.17,4.09-.71.34-1.53.71-2.44,1.11-6.46,2.86-17.26,7.65-19.73,18.63-2.05,9.13,2.1,24.79,4.75,33.31,2.82,9.05,3.83,13.48,4.81,17.77,1.05,4.57,2.03,8.89,5.13,18.51,6.51,20.25,11.97,29.71,16.45,36.29,5.12,7.52,16.26,20.28,33.28,21.18,16.74.88,30.64-10.17,36.99-21.53,4.14-7.41,4.65-8.9,5.76-12.17.8-2.36,1.9-5.59,4.74-12.33,4.27-10.13,7.99-15.94,11.28-21.06,3.62-5.65,6.76-10.52,9.58-19.73,4.24-13.84,5.91-33.57-3.35-43.63-6.22-6.77-10.79-9.18-19.89-13.98-3.42-1.81-7.3-3.85-12.11-6.57-4.36-2.47-7.75-5.78-11.04-8.98-5.1-4.98-9.92-9.68-17.59-10.06-.44-.02-.87-.03-1.3-.03Z"/>
      <path class="cls-1" d="M127.04,63.68c-7.04,8.84-12.18,19.2-13.95,30.35-.81,5.68-1.28,11.69-4.31,16.77-4.98,8.52-13.71,13.99-22.49,17.91-4.17,1.92-8.55,3.36-12.87,4.85.71-8.46,1.16-16.96,1.26-25.45.27-15.49-.46-30.98-2.1-46.39-.79-7.72-1.86-15.4-3.06-23.09,1.86,7.55,3.33,15.2,4.54,22.9,3.57,23.13,4.34,46.66,2.52,69.99l-1.95-1.54c13.45-4.59,29.1-11,34.28-25.33,1.17-3.42,1.47-7.2,2.27-10.96,2.25-11.25,8.05-21.74,15.86-30h0Z"/>
      <path class="cls-1" d="M57.56,40.5c3.38,25.41.75,51.5-6.66,76.01-14.17-12.23-24.22-29.2-27.45-47.68-1.04-5.84-1.45-11.78-1.15-17.66.34,5.88,1.15,11.7,2.56,17.36,4.08,16.91,13.32,32.54,26.27,44.15,0,0-2.44.69-2.44.69,1.71-5.88,3.2-11.83,4.39-17.85,3.72-18.08,5.03-36.57,4.47-55.02h0Z"/>
      <path class="cls-1" d="M110.25,408.47c-3.5,0-7.19-1.45-8.93-2.64-35.85-24.63-57.04-136.84-57.93-141.6-7.49-32.58-11.64-60.15-12.06-112.32l3-.02c.42,51.53,4.48,78.91,11.83,111.04l.04.02.14.74c.22,1.2,5.58,29.82,15.27,61.34,12.73,41.39,27.05,68.48,41.4,78.34,2.04,1.4,7.53,3.16,10.32,1.38,1.3-.83,1.89-3.32,1.64-6.86-2.36-10.13-4.96-23.41-6.37-45.03-1.14-17.55-.81-42.24.71-52.85l.13-.92c2.57-17.96,8.58-60,8.29-96.69-.02-2.15-.01-4.23,0-6.3.04-14.14.07-27.49-7.48-54.63l2.89-.8c7.66,27.54,7.63,41.09,7.59,55.44,0,2.05-.01,4.13,0,6.27.29,36.91-5.75,79.11-8.32,97.13l-.13.92c-1.49,10.44-1.81,34.85-.69,52.23,1.39,21.49,3.98,34.63,6.32,44.66l.04.23c.37,4.87-.67,8.23-3.01,9.73-1.36.87-3.01,1.21-4.71,1.21Z"/>
    </g>
  </g>
</svg>