<?xml version="1.0" encoding="UTF-8"?>
<svg id="Layer_2" data-name="Layer 2" xmlns="http://www.w3.org/2000/svg" viewBox="0 0 183.92 337.07">
  <defs>
    <style>
      .cls-1 {
        stroke-width: 0px;
      }
    </style>
  </defs>
  <g id="teeth">
    <g>
      <path class="cls-1" d="M133.38,337.07c-2.38,0-4.83-.28-7.31-.95-8.54-2.3-14.1-7.84-18.57-12.3-3.17-3.16-5.9-5.88-8.45-6.03-1.88-.11-4.36,2.35-7.24,5.19-4.23,4.16-9.48,9.33-17.32,11.77-13.74,4.29-29.62-5.76-35.6-9.54-.41-.26-.76-.48-1.06-.67-16.06-9.92-24.82-26.23-25.32-47.19-.29-12,3.19-18.19,7.59-26.03,3.34-5.96,7.13-12.71,10.49-23.88,8.45-28.1,1.36-54.15-1.31-63.96l-.31-1.16c-3.99-14.86-7.45-22.81-11.11-31.23-4.09-9.41-8.33-19.14-13.42-39.17-2.33-9.16-8.22-45.42-.78-57.73l.09-.14c.81-1.35,2.96-4.94,7.54-3.66,3.91,1.09,5.58,7.83,8.35,19,3.07,12.4,7.28,29.37,16.56,46.85,6.84,12.89,14.08,19.53,21.07,25.95,6.35,5.82,12.91,11.84,19.12,22.36,1.61,2.72,2.84,5.82,4.15,9.1,2.92,7.35,5.95,14.95,13.34,17.74,3.19,1.2,4.58-.23,6.61-2.67l.43-.51c26.31-31.09,37.57-63.89,33.47-97.47-2.98-24.44-6.48-31.33-14.15-46.41l-.23-.45c-1.76-3.47-1.99-6.75-.63-9.02.98-1.63,2.68-2.55,4.8-2.6.06,0,.12,0,.18,0,8.07,0,19.88,11,30.17,28.11,11.47,19.08,18.35,41.16,18.88,60.59l.04,1.5c.31,10.65.62,21.66-5.07,61.66-1.57,11.04-1.47,26.52-1.39,38.95.05,8.08.1,15.13-.31,19.4,10.56,17.17,18.27,46.24,17.16,66.87-.29,5.43-3.07,24.34-26.53,39.42-3.51,2.26-12.92,8.3-23.91,8.31ZM98.92,314.79c.1,0,.19,0,.29,0,3.69.2,6.8,3.31,10.4,6.9,4.22,4.2,9.47,9.43,17.23,11.52,12.66,3.4,24.82-4.41,28.82-6.98,22.26-14.31,24.88-31.98,25.16-37.05,1.2-22.28-8.67-56.04-20.71-70.83-3.11-3.82-7.18-5.56-12.09-5.17-2.07.17-4.52,1.36-7.36,2.74-4.03,1.96-8.6,4.18-13.91,4.4-7.83.32-13.84-4.57-18.68-8.51-3.16-2.57-5.89-4.79-8.12-4.84-1.95-.05-4.4,3.1-7,6.42-3.09,3.96-6.93,8.89-12.27,11.83-3.24,1.78-5.92,2.89-8.67,3.58-7.55,1.89-13.55-.27-18.83-2.18-4.84-1.75-9.02-3.26-13.75-1.74-1.84.59-3.4,1.33-6.56,5.36-3.32,10.38-7.09,17.1-10.15,22.56-4.34,7.73-7.47,13.31-7.2,24.49.33,13.87,4.75,32.89,23.9,44.71.31.19.67.42,1.09.68,5.66,3.58,20.7,13.09,33.1,9.21,7.14-2.23,12.11-7.12,16.11-11.05,3.43-3.37,6.16-6.05,9.22-6.05ZM43.37,221.26c3.79,0,7.34,1.28,10.81,2.53,5.12,1.85,10.42,3.76,17.09,2.09,2.53-.63,4.91-1.62,7.95-3.29,4.8-2.64,8.28-7.11,11.36-11.05,3.3-4.23,5.91-7.58,9.31-7.58.04,0,.08,0,.11,0,3.26.07,6.36,2.59,9.95,5.52,4.67,3.8,9.96,8.11,16.66,7.84,4.69-.19,8.96-2.27,12.73-4.1,2.98-1.45,5.8-2.82,8.41-3.03,7.45-.59,12.09,3.08,14.68,6.26.49.61.98,1.24,1.47,1.9.14-4.04.11-9.38.07-15.27-.08-12.53-.18-28.13,1.42-39.39,5.66-39.75,5.35-50.63,5.04-61.15l-.04-1.5c-.52-18.93-7.25-40.48-18.46-59.13-9.52-15.84-20.91-26.8-27.71-26.66-1.08.02-1.85.41-2.29,1.14-.79,1.32-.51,3.67.73,6.12l.23.45c7.59,14.94,11.4,22.43,14.45,47.4,4.21,34.45-7.29,68.02-34.16,99.77l-.41.49c-1.84,2.22-4.63,5.57-9.97,3.56-8.64-3.25-12.06-11.85-15.07-19.43-1.26-3.17-2.45-6.17-3.94-8.69-5.99-10.13-12.1-15.74-18.57-21.68-7.18-6.59-14.61-13.41-21.69-26.75-9.45-17.8-13.71-34.98-16.82-47.53-2.16-8.7-4.02-16.21-6.24-16.83-2.2-.61-3.19.68-4.16,2.31l-.09.15c-6.32,10.46-1.7,44.33,1.12,55.44,5.03,19.8,9.22,29.42,13.27,38.72,3.71,8.52,7.21,16.58,11.26,31.65l.31,1.15c2.59,9.54,9.27,34.08,2.47,61.32,1.29-1.01,2.49-1.55,3.86-1.99,1.68-.54,3.3-.76,4.88-.76Z"/>
      <path class="cls-1" d="M128.35,122.33c-1.57-9.81-3.2-19.96-9.75-33.93-3.97-8.48-7.16-14.34-9.97-19.52-3.31-6.08-6.16-11.33-8.96-18.52-1.37-3.53-2.7-7.22-3.98-10.79-5.35-14.88-10.89-30.27-20.12-35.16-1.59-.85-4.66-2.09-7.29-.96-2.69,1.16-4.16,4.52-4.64,7.28-4.5,25.92-.7,53.02-.67,53.3v.15c1.05,22.67-.14,29.43-9.72,55.64l-2.82-1.03c9.49-25.96,10.57-32.08,9.56-54.4-.22-1.63-3.77-28.44.69-54.16.3-1.72,1.64-7.47,6.41-9.53,3.78-1.63,7.82-.03,9.88,1.06,10.25,5.44,15.73,20.67,21.53,36.8,1.28,3.55,2.6,7.23,3.96,10.72,2.72,7.01,5.4,11.94,8.79,18.18,2.83,5.21,6.05,11.12,10.06,19.68,6.72,14.35,8.39,24.71,9.99,34.72l-2.96.48Z"/>
      <path class="cls-1" d="M98.46,316.66c-1.02-4.3-1.16-8.56-1.05-12.91.01-4.35.16-8.61,1.28-12.89,2.37,8.41,2.23,17.43-.23,25.8h0Z"/>
      <path class="cls-1" d="M82.29,285.41c9.61,5.3,20.82,5.51,31.17,2.34-8.63,7.39-23.99,6.8-31.17-2.34h0Z"/>
    </g>
  </g>
</svg>