<?xml version="1.0" encoding="UTF-8"?>
<svg id="Layer_2" data-name="Layer 2" xmlns="http://www.w3.org/2000/svg" viewBox="0 0 120.8 360.7">
  <defs>
    <style>
      .cls-1 {
        stroke-width: 0px;
      }
    </style>
  </defs>
  <g id="teeth">
    <g>
      <path class="cls-1" d="M102.39,246.46l-3-.16c.56-10.18,1.36-37.03-3.16-66.31-2.98-19.29-6.04-31.33-9-42.98-2.7-10.62-5.25-20.64-7.24-34.77-3.53-25.08-5.69-55.43,5.07-90.4.79-3.14.75-5.56-.11-7-.52-.86-1.35-1.43-2.55-1.73-3.7-.93-9.23,4.17-11.85,7.59-24.79,32.45-34.33,69.9-39.46,90.02l-.18.7c-1.89,7.43-3.62,19.55-5.44,32.38-1.16,8.14-2.35,16.56-3.62,23.84-4.76,27.37-8.91,54.15-7.53,80.8l-3,.16c-1.4-26.96,2.78-53.92,7.57-81.46,1.26-7.23,2.45-15.63,3.6-23.75,1.84-12.91,3.57-25.11,5.5-32.7l.18-.7c5.18-20.33,14.82-58.16,39.98-91.1.33-.43,8.06-10.41,14.96-8.68,1.98.5,3.46,1.54,4.39,3.1,1.3,2.18,1.44,5.31.43,9.31l-.02.07c-10.6,34.42-8.47,64.37-4.98,89.13,1.97,13.97,4.5,23.92,7.18,34.45,2.84,11.17,6.06,23.83,9.06,43.26,4.56,29.57,3.75,56.66,3.19,66.93Z"/>
      <path class="cls-1" d="M46.95,360.7c-11.27,0-22.49-.88-32.38-2.93-5.1-1.06-13.01-5.07-13.9-11.77-1.89-14.2-1.02-98.01,19.14-125.55,6.91-9.44,13.84-17.35,28.77-18.57l.12,1.49-.12-1.49c30.36-2.48,51.01,38.29,57.79,51.69.4.79.75,1.48,1.05,2.07,5.25,10.14,16.95,37.91,12.31,76.57-1.62,13.51-13.76,20.34-20.67,22.25-13.22,3.65-32.75,6.24-52.12,6.24ZM51.22,204.78c-.79,0-1.59.03-2.4.1-12.42,1.02-18.93,6.88-26.59,17.35C2.91,248.62,1.85,332.11,3.65,345.6c.65,4.85,7.14,8.32,11.54,9.23,26.4,5.49,62.51,2.42,83.08-3.26.68-.19,16.7-4.78,18.49-19.72,4.53-37.84-6.88-64.94-12-74.84-.31-.59-.66-1.3-1.07-2.09-6.37-12.59-25.4-50.15-52.47-50.15Z"/>
    </g>
  </g>
</svg>