<?xml version="1.0" encoding="UTF-8"?>
<svg id="Layer_2" data-name="Layer 2" xmlns="http://www.w3.org/2000/svg" viewBox="0 0 102.79 308.96">
  <defs>
    <style>
      .cls-1 {
        stroke-width: 0px;
      }
    </style>
  </defs>
  <g id="teeth">
    <g>
      <path class="cls-1" d="M54.79,113c-.2,0-.4,0-.6,0-19.13-.24-27.92-12.77-35.68-23.83-.86-1.23-1.72-2.45-2.57-3.63C6.16,72.04-6.58,39.86,3.96,26.49c2.91-3.69,4.97-4.5,8.38-5.85,2.78-1.1,6.6-2.6,12.97-6.52,4.05-2.49,6.97-4.81,9.54-6.86C39.87,3.28,43.5.39,50.85.04c7.79-.37,11.24,1.93,16.01,5.12,2.71,1.81,5.78,3.87,10.48,6.08,2.2,1.04,4.39,1.97,6.51,2.87,6.18,2.63,11.52,4.89,14.24,8.58,12.8,17.34-4.2,53.86-7.86,59.86-1.52,2.49-2.89,5.03-4.23,7.5-6.38,11.79-12.41,22.94-31.21,22.94ZM50.92,1.54l.07,1.5c-6.39.31-9.52,2.81-14.27,6.59-2.64,2.1-5.63,4.48-9.84,7.07-6.6,4.05-10.56,5.61-13.44,6.75-3.23,1.27-4.71,1.86-7.12,4.91-8.81,11.17,1.42,40.76,12.05,55.44.86,1.19,1.73,2.42,2.6,3.66,7.71,10.98,15.67,22.33,33.26,22.55.19,0,.37,0,.56,0,17.03,0,22.39-9.91,28.58-21.37,1.35-2.5,2.75-5.08,4.31-7.63,4.76-7.81,18.87-41.79,8-56.52-2.24-3.03-7.22-5.15-13-7.6-2.15-.91-4.37-1.86-6.62-2.92-4.89-2.31-8.2-4.52-10.86-6.3-4.61-3.08-7.39-4.95-14.2-4.62l-.07-1.5Z"/>
      <path class="cls-1" d="M42.18,297.11s-.06,0-.09,0c-2.05-.03-7.49-.11-8.42-6.38l-.03-.2.02-.2c1.01-8.65,1.32-17.46.92-26.2-.5-10.93-1.92-17.58-4.49-29.63-1.39-6.52-3.12-14.62-5.23-25.82-2.6-13.84-4.32-22.99-5.7-35.41-1.17-10.52-1.92-23.19-2.21-37.65-.03-1.72-.07-3.3-.1-4.81-.29-12.78-.43-19.2,1.36-42.62l2.99.23c-1.78,23.28-1.64,29.64-1.35,42.33.03,1.5.07,3.1.1,4.81.29,14.37,1.03,26.95,2.19,37.38,1.37,12.31,3.08,21.42,5.67,35.19,2.09,11.16,3.82,19.25,5.21,25.75,2.61,12.21,4.05,18.94,4.55,30.12.4,8.83.09,17.73-.91,26.47.51,2.99,2.33,3.59,5.46,3.63.02,0,.03,0,.05,0,4.05,0,8.54-6.99,13.36-20.79,17.87-51.2,23.88-93.23,23.94-93.65,2.46-13.64,4.43-53.32,2.08-87.06l2.99-.21c2.46,35.31.31,74.3-2.11,87.75-.05.36-6.09,42.67-24.07,94.16-3.71,10.63-8.9,22.81-16.19,22.81Z"/>
      <path class="cls-1" d="M25.61,308.96c-1.3,0-2.53-.28-3.67-.86-3.77-1.89-3.42-8.2-2.97-10.47,1.56-7.66,2.55-14.99,2.88-21.22.92-17.62.23-28.31-.32-36.89-.16-2.45-.31-4.77-.4-6.93-.61-15.47-.12-26.65.57-42.12l3,.12h0c-.68,15.4-1.18,26.53-.57,41.88.08,2.13.23,4.43.39,6.86.53,8.21,1.26,19.45.33,37.24-.34,6.46-1.33,13.75-2.94,21.65-.42,2.12-.32,6.35,1.38,7.2,2.81,1.41,6.01-.18,8.21-1.75,3.34-2.4,4.32-4,6.75-9.23l2.72,1.26c-2.5,5.39-3.73,7.53-7.72,10.4-2.63,1.89-5.24,2.86-7.63,2.86Z"/>
    </g>
  </g>
</svg>