<?xml version="1.0" encoding="UTF-8"?>
<svg id="Layer_2" data-name="Layer 2" xmlns="http://www.w3.org/2000/svg" viewBox="0 0 102.79 308.96">
  <defs>
    <style>
      .cls-1 {
        stroke-width: 0px;
      }
    </style>
  </defs>
  <g id="teeth">
    <g>
      <path class="cls-1" d="M48,113c-18.81,0-24.83-11.15-31.21-22.94-1.33-2.47-2.71-5.01-4.23-7.5-3.66-6-20.65-42.52-7.86-59.86,2.72-3.69,8.06-5.96,14.24-8.58,2.12-.9,4.31-1.83,6.51-2.87,4.69-2.21,7.76-4.27,10.48-6.08C40.7,1.97,44.15-.33,51.94.04c7.35.35,10.98,3.24,16,7.24,2.57,2.05,5.49,4.37,9.54,6.86,6.37,3.92,10.19,5.42,12.97,6.52,3.41,1.34,5.46,2.15,8.38,5.85,10.54,13.37-2.19,45.55-11.97,59.05-.85,1.18-1.71,2.39-2.57,3.62-7.76,11.06-16.56,23.59-35.68,23.83-.2,0-.41,0-.61,0ZM50.32,3c-5.75,0-8.46,1.81-12.72,4.66-2.66,1.78-5.97,3.99-10.86,6.3-2.25,1.06-4.47,2.01-6.62,2.92-5.78,2.45-10.76,4.57-13,7.6-10.87,14.73,3.24,48.71,8,56.52,1.56,2.55,2.95,5.14,4.31,7.63,6.2,11.46,11.56,21.37,28.58,21.37.18,0,.37,0,.56,0,17.59-.22,25.56-11.57,33.26-22.55.87-1.24,1.73-2.47,2.6-3.66,10.63-14.67,20.85-44.27,12.05-55.44-2.41-3.06-3.89-3.64-7.12-4.91-2.89-1.14-6.84-2.7-13.44-6.75-4.21-2.58-7.2-4.97-9.84-7.07-4.75-3.78-7.89-6.28-14.27-6.59-.52-.02-1.01-.04-1.48-.04Z"/>
      <path class="cls-1" d="M60.61,297.11c-7.29,0-12.48-12.18-16.19-22.81-17.97-51.49-24.02-93.8-24.08-94.22-2.42-13.39-4.56-52.38-2.1-87.69l2.99.21c-2.35,33.75-.38,73.42,2.07,87.01.07.48,6.08,42.51,23.95,93.71,4.82,13.8,9.31,20.79,13.35,20.79.02,0,.03,0,.05,0,3.14-.04,4.95-.64,5.46-3.63-1.01-8.74-1.31-17.65-.91-26.47.51-11.18,1.95-17.91,4.55-30.12,1.39-6.5,3.12-14.59,5.21-25.75,2.59-13.78,4.29-22.88,5.67-35.19,1.16-10.43,1.9-23.01,2.19-37.38.03-1.72.07-3.31.1-4.81.28-12.69.43-19.05-1.35-42.33l2.99-.23c1.79,23.43,1.65,29.84,1.36,42.63-.03,1.5-.07,3.09-.1,4.8-.29,14.46-1.03,27.13-2.21,37.65-1.39,12.43-3.1,21.57-5.7,35.41-2.1,11.2-3.83,19.31-5.23,25.82-2.58,12.05-3.99,18.7-4.49,29.63-.4,8.73-.09,17.55.92,26.2l.02.2-.03.2c-.93,6.28-6.37,6.35-8.42,6.38-.03,0-.06,0-.09,0Z"/>
      <path class="cls-1" d="M77.18,308.96c-2.4,0-5.01-.96-7.63-2.86-3.98-2.87-5.21-5.01-7.72-10.4l2.72-1.26c2.43,5.23,3.41,6.83,6.75,9.23,2.19,1.58,5.4,3.17,8.21,1.75,1.7-.86,1.8-5.08,1.38-7.21-1.61-7.9-2.59-15.18-2.93-21.64-.93-17.8-.21-29.04.33-37.25.16-2.43.31-4.73.39-6.85.61-15.35.11-26.47-.57-41.87l3-.14-1.5.07,1.5-.06c.69,15.47,1.18,26.65.57,42.12-.09,2.16-.24,4.48-.39,6.93-.56,8.59-1.25,19.28-.32,36.9.33,6.31,1.3,13.45,2.88,21.21.45,2.28.8,8.59-2.97,10.48-1.14.57-2.37.86-3.67.86Z"/>
    </g>
  </g>
</svg>