<?xml version="1.0" encoding="UTF-8"?>
<svg id="Layer_2" data-name="Layer 2" xmlns="http://www.w3.org/2000/svg" viewBox="0 0 103.6 328.93">
  <defs>
    <style>
      .cls-1 {
        stroke-width: 0px;
      }
    </style>
  </defs>
  <g id="teeth">
    <g>
      <path class="cls-1" d="M38.1,149.24c-.81,0-1.55-.03-2.19-.09-12.15-1.07-21.46-9.65-26.23-24.16C-1.36,91.41-2.67,65.52,4.3,18.47,5.94,7.35,18.38,1.5,29.97.64l.94-.07c11.26-.84,28.27-2.12,45.38,7.69.56.32,1.23.67,1.99,1.07,5.74,3.02,16.43,8.65,22.05,21.74,5.79,13.47,3.01,27.23-1.54,45.18-2.52,9.95-14.85,41.23-41.24,66.12-5.77,5.44-14.13,6.87-19.45,6.87ZM30.19,3.63c-10.4.77-21.52,5.8-22.93,15.29C.38,65.43,1.65,90.98,12.52,124.05c5.6,17.05,15.95,21.44,23.65,22.11,4.41.38,13.45-.43,19.32-5.97,25.87-24.4,37.93-54.96,40.39-64.68,4.41-17.38,7.11-30.65,1.69-43.26-5.2-12.11-15.28-17.42-20.7-20.27-.8-.42-1.51-.79-2.09-1.13C58.49,1.51,42.02,2.74,31.13,3.56l-.94.07Z"/>
      <path class="cls-1" d="M55.13,328.93c-4.45,0-8.08-4.02-9.42-6.26-19.03-31.6-27.42-79.33-31-99.72-.27-1.56-.52-2.96-.74-4.19-4.61-25.55-6.41-50.09-7.7-105.02l3-.07c1.28,54.76,3.07,79.19,7.65,104.56.22,1.23.47,2.63.74,4.2,3.55,20.22,11.87,67.57,30.61,98.69,1.21,2.01,4.25,5.09,7.3,4.78,1.41-.14,3.32-.79,3.62-4.73.17-14.74.48-29.72.93-44.51.32-10.69.5-19.06.64-25.77.35-16.94.54-26.27,2.53-45.64.89-8.71,3.09-18.46,5.63-29.74,3.87-17.16,8.68-38.51,10.46-64.38l2.99.21c-1.8,26.1-6.64,47.58-10.53,64.83-2.52,11.19-4.7,20.85-5.57,29.39-1.97,19.25-2.15,27.99-2.51,45.4-.14,6.73-.31,15.09-.64,25.8-.45,14.79-.76,29.76-.93,44.5v.09c-.45,6.04-4.15,7.31-6.32,7.54-.25.03-.5.04-.75.04Z"/>
      <path class="cls-1" d="M86.67,43.41c1.56,31.81-18.01,60.75-48.22,70.99,0,0-1.12.39-1.12.39l-.63-1.01c-12.55-20.06-20.21-43.2-21.82-66.8-.52-7.84-.45-15.72.36-23.51-.13,7.83.19,15.64,1.13,23.37,1.8,15.42,5.85,30.59,12.06,44.81,3.07,7.11,6.7,13.98,10.8,20.55l-1.75-.62c29.47-9.89,48.33-37.37,49.19-68.16h0Z"/>
    </g>
  </g>
</svg>