<?xml version="1.0" encoding="UTF-8"?>
<svg id="Layer_2" data-name="Layer 2" xmlns="http://www.w3.org/2000/svg" viewBox="0 0 122.11 376.46">
  <defs>
    <style>
      .cls-1 {
        stroke-width: 0px;
      }
    </style>
  </defs>
  <g id="teeth">
    <g>
      <path class="cls-1" d="M62.97,376.46c-.13,0-.27,0-.41,0-5.57-.14-8.4-3.05-12.32-7.07-3.28-3.36-7.37-7.55-14.74-12.12-8.16-5.05-13.63-6.41-18.02-7.5-4.49-1.11-8.04-1.99-11.7-6.26-9.35-10.9-5.76-27.53-.33-52.7,2.26-10.45,5.67-26.25,16.08-44.49,10.58-18.55,18.94-33.2,32.31-35.02,22.46-3.07,41.92,31.73,49.25,44.82,11.94,21.34,29.57,67.08,10.81,87.43-2.17,2.36-3.72,3.14-6.29,4.44-2.9,1.47-7.27,3.69-15.98,9.84-6.7,4.74-11.33,8.54-14.71,11.31-5.89,4.84-8.92,7.33-13.94,7.33ZM54.24,214.26c-11.9,1.62-19.94,15.7-30.11,33.53-10.18,17.85-13.53,33.37-15.75,43.64-5.24,24.3-8.71,40.35-.33,50.12,3.04,3.54,5.87,4.24,10.15,5.3,4.36,1.08,10.32,2.56,18.88,7.86,7.69,4.77,12.1,9.28,15.31,12.58,3.81,3.9,5.91,6.06,10.25,6.17,4.15.07,6.55-1.87,12.37-6.64,3.42-2.81,8.09-6.65,14.88-11.44,8.89-6.28,13.38-8.56,16.36-10.07,2.49-1.26,3.63-1.84,5.44-3.8,17.59-19.09.35-63.25-11.22-83.93-6.38-11.4-25.79-46.09-46.23-43.31h0Z"/>
      <path class="cls-1" d="M14.26,327.83c2.56-10.06,18.53-85.56,35.8-65,2.05,2.55,3.38,5.39,4.59,8.24,2.36,5.72,4.02,11.61,5.53,17.51,3.43,13.26,5.41,26.75,8.68,39.92.29,1.01.63,2.2,1.1,2.98-.27-.24-.79-.32-1.15-.13-.28.15-.34.26-.37.3.64-2.51.42-5.23.46-7.84-.09-6.01-.43-12.07-.66-18.13-.33-9.11-.71-18.25-.27-27.38.28-4.75,1.08-19.7,8.9-12.95,2.3,2.26,3.85,4.92,5.42,7.65,2.98,5.36,5.47,10.91,7.86,16.5,4.63,11.03,8.93,22.72,12.85,34.05-4.57-11.23-9.09-22.48-14.2-33.45-2.84-5.83-9.61-21.42-14.91-24.15-1.56-.58-2.17,2.52-2.48,3.66-1.15,5.77-1.02,11.91-1,17.83.17,12.12,1.16,24.17,1.42,36.33.02,2.33.07,4.66-.19,7.01-.19,1.18-.29,2.58-1.55,3.25-1.75.79-2.9-1.1-3.34-2.44-2.61-8.03-3.67-16.45-5.45-24.64-1.18-5.93-2.44-11.84-3.85-17.7-2.26-8.52-4.22-17.64-9.33-24.85-3.13-4.19-6.4-3.04-9.46.56-2.88,3.38-4.92,7.39-6.86,11.39-7.56,16.49-12.5,34.05-17.54,51.47h0Z"/>
      <path class="cls-1" d="M21.3,247.73c-7.45-55.74-3.25-90.36,1.27-118.43.23-1.41.49-3,.78-4.75,2.38-14.27,6.37-38.16,7.77-70.97.13-3.08.26-5.91.37-8.54.6-13.58.97-21.78.59-30.74-.61-6.24,1.07-13.09,5.47-14.13,8.77-2.09,19.04,15.68,19.14,15.86,5.53,10.18,8.77,33.43,11.9,55.91.67,4.8,1.3,9.33,1.96,13.76.77,5.18,1.42,9.81,2.03,14.15,2.84,20.1,4.72,33.38,12.39,64.42.79,3.2,1.56,6.19,2.3,9.08,4.81,18.73,8.6,33.52,10.57,73.57l-3,.15c-1.96-39.75-5.72-54.41-10.48-72.97-.75-2.9-1.51-5.9-2.31-9.11-7.71-31.19-9.59-44.53-12.45-64.72-.61-4.33-1.27-8.96-2.03-14.13-.66-4.44-1.29-8.98-1.96-13.79-3.09-22.22-6.3-45.2-11.56-54.9-2.48-4.57-10.84-15.56-15.81-14.38-2.22.53-3.71,5.65-3.17,10.96v.08c.4,9.1.03,17.36-.58,31.04-.12,2.62-.24,5.45-.37,8.53-1.41,33-5.57,57.94-7.8,71.33-.29,1.75-.56,3.33-.78,4.73-4.49,27.86-8.65,62.22-1.26,117.56l-2.97.4Z"/>
    </g>
  </g>
</svg>