<?xml version="1.0" encoding="UTF-8"?>
<svg id="Layer_2" data-name="Layer 2" xmlns="http://www.w3.org/2000/svg" viewBox="0 0 181.69 333.67">
  <defs>
    <style>
      .cls-1 {
        stroke-width: 0px;
      }
    </style>
  </defs>
  <g id="teeth">
    <g>
      <path class="cls-1" d="M98.7,115.75h-.06c-7.25,0-10.59-1.29-14.82-2.91-3.74-1.43-8.39-3.21-17.58-4.57-5.76-.85-10.27-.83-13.89-.82-6.14.02-10.58.04-15.11-4.26-10.71-10.19-21.05-39.09-20.66-52.42.37-12.81,13.15-38,32.91-40.73,4.31-.6,7.83-.73,11.23-.86,4.32-.16,8.78-.33,15.03-1.46h0c6.92-1.26,10.35-2.95,13.37-4.44C92.74,1.47,95.88-.07,103.22,0c9.75.1,13.47,2.36,17.78,4.98,3.03,1.84,6.16,3.74,12.08,5.26,4.97,1.27,6.04,1.33,8.18,1.46,1.36.08,3.04.17,6.19.57,12.71,1.6,29.03,7.58,33.23,19.21,4.99,13.8-9.52,59.22-23.87,74.77-3.72,4.03-8.38,3.35-14.29,2.5-2.68-.39-5.72-.83-9.17-.91-9.27-.23-13.53,1.78-18.04,3.91-4.17,1.97-8.48,4-16.63,4ZM53.82,104.44c3.45,0,7.64.09,12.86.86,9.52,1.41,14.34,3.26,18.22,4.74,4.1,1.57,7.06,2.7,13.75,2.71,7.5,0,11.34-1.8,15.4-3.72,4.62-2.18,9.41-4.44,19.39-4.19,3.62.09,6.76.54,9.52.94,5.92.86,9.12,1.18,11.65-1.57,13.54-14.66,27.88-58.9,23.25-71.71-3.5-9.69-17.98-15.65-30.79-17.25-3.05-.38-4.68-.48-5.99-.55-2.26-.13-3.5-.2-8.75-1.55-6.35-1.63-9.83-3.74-12.89-5.6-4.09-2.49-7.33-4.45-16.26-4.54-6.63-.08-9.2,1.2-12.75,2.95-3.04,1.5-6.83,3.37-14.17,4.7-6.45,1.17-11.03,1.34-15.45,1.51-3.48.13-6.76.25-10.93.83-17.92,2.47-29.99,26.24-30.32,37.84-.33,11.5,8.75,39.71,19.73,50.16,3.65,3.47,6.99,3.46,13.03,3.44.48,0,.98,0,1.49,0Z"/>
      <path class="cls-1" d="M65.42,11.92c17.38,17.17,24.33,44.8,15.8,67.88.91-5.99,1.37-11.97,1.22-17.91-.34-17.99-6.92-35.17-17.02-49.97h0Z"/>
      <path class="cls-1" d="M89.73,46.58c6.79-15.13,23.73-24.85,40.21-23.6,5.48.33,10.89,1.69,15.7,4.15-5.24-1.28-10.52-1.92-15.75-1.81-15.93.11-30.71,8.55-40.16,21.26h0Z"/>
      <path class="cls-1" d="M66.7,333.67c-.96,0-1.98-.13-3.04-.42-4.78-1.31-6.26-6.3-6.97-8.69-1.63-5.36-1.26-19.19-.93-31.39.11-4.23.22-8.23.24-11.56.1-20.87-1.36-31.79-3.56-48.33-1.25-9.41-2.81-21.11-4.43-37.53-1.35-13.64-2.52-26.23-3.65-38.4-2-21.61-3.73-40.27-5.59-54.71l2.98-.38c1.86,14.5,3.59,33.18,5.6,54.81,1.13,12.17,2.3,24.75,3.64,38.38,1.62,16.37,3.17,28.05,4.42,37.43,2.22,16.66,3.68,27.67,3.58,48.74-.02,3.36-.12,7.37-.24,11.62-.31,11.38-.69,25.55.81,30.45.83,2.81,1.96,5.86,4.88,6.66,4.67,1.28,8.11-1.67,9.75-3.54,4.99-5.71,39.73-80.08,46.7-96.46,2.58-6.34,4.9-11.82,7.14-17.13,7.13-16.88,12.28-29.07,17.37-48.71,3.37-13.03,5.41-27.46,8.05-57.21l.03-.39c.17-1.98.24-2.98,1.69-2.93.14,0,1.42.08,1.47,1.64,0,.02,0,.05,0,.07.54.65.59,1.82.83,6.98.37,7.97,1.12,24.56,4.52,56.06.8,7.43,1.76,15.02,2.69,22.35,3.56,28.22,6.93,54.88,1.79,72.38-4.26,14.5-13.13,29.62-27.13,46.22-2.33,2.76-9.15,10.12-12.83,11.12-3.27,1.03-5.51.37-6.81-.37-1.68-.95-2.87-2.62-3.35-4.68-1.5-6.47,1.68-13.58,4.24-19.29.69-1.54,1.34-2.99,1.81-4.25,5.67-15.13,8.44-25.15,2.26-63.17-.33.81-.67,1.63-1.01,2.46-6.08,14.29-41.69,90.97-47.21,97.28-1.41,1.61-4.88,4.88-9.75,4.88ZM126.85,223.81c6.93,40.46,4.82,52.29-1.62,69.46-.5,1.34-1.17,2.84-1.88,4.42-2.37,5.3-5.33,11.9-4.06,17.38.29,1.24.96,2.21,1.91,2.75,1.13.64,2.67.68,4.45.11l.08-.02c1.92-.5,7.11-5.15,11.33-10.16,13.72-16.27,22.4-31.03,26.54-45.13,4.96-16.89,1.64-43.25-1.89-71.16-.93-7.35-1.89-14.95-2.69-22.41-2.36-21.85-3.45-36.55-4.02-46.19-2.03,20.04-3.91,31.67-6.69,42.4-5.14,19.85-10.33,32.13-17.51,49.12-1.28,3.03-2.59,6.13-3.96,9.41Z"/>
      <path class="cls-1" d="M9.15,302.06c-3.6,0-6.21-3.05-7.11-5.29-2.31-5.14-3.86-30.8,2.21-54.16l.64-2.48c3.82-14.76,5.25-20.28,13.84-39.75,3.43-7.78,13.94-35.04,17.11-57.54.37-2.61.7-4.79,1-6.76,1.23-8.09,1.9-12.54,2.51-29.47l3,.11c-.61,17.1-1.3,21.61-2.54,29.81-.3,1.96-.63,4.12-.99,6.73-3.21,22.84-13.86,50.46-17.34,58.34-8.49,19.24-9.9,24.7-13.68,39.29l-.64,2.48c-6.13,23.63-4.14,48.32-2.37,52.2l.03.07c.44,1.09,2.33,4.05,5.23,3.32,1.82-.46,3.13-1.93,3.99-4.51,2.54-7.62,4.56-13.89,6.52-19.96,1.44-4.47,2.82-8.73,4.28-13.14,2.56-7.74,7.91-19.2,18.87-29.86,2.09-2.03,7.04-8.24,8.57-10.25l2.39,1.81c-1.62,2.13-6.64,8.42-8.87,10.59-8.22,7.99-14.65,18.16-18.11,28.65-1.45,4.4-2.83,8.65-4.27,13.12-1.96,6.07-3.99,12.35-6.53,19.98-1.19,3.58-3.25,5.75-6.11,6.47-.56.14-1.1.2-1.62.2Z"/>
    </g>
  </g>
</svg>