<?xml version="1.0" encoding="UTF-8"?>
<svg id="Layer_2" data-name="Layer 2" xmlns="http://www.w3.org/2000/svg" viewBox="0 0 99.21 308.7">
  <defs>
    <style>
      .cls-1 {
        stroke-width: 0px;
      }
    </style>
  </defs>
  <g id="teeth">
    <g>
      <path class="cls-1" d="M51.51,104.49c-25.54,0-41.46-30.31-44.43-36.46C.97,55.34-4.48,32.74,5.57,22.48c3.13-3.19,4.78-3.9,9.19-5.8,2.13-.92,5.06-2.17,9.21-4.18,3.7-1.79,6.23-3.86,8.68-5.86C36.71,3.32,40.55.18,48.29,0h0c9.99-.22,14.83,3.16,19.5,6.44,2.11,1.48,4.09,2.87,6.53,3.89,5.52,2.32,8.62,3.23,10.89,3.89,2.96.87,4.45,1.3,7.32,3.79,11.45,9.91,5.97,35.34-.17,49.04-.38.84-.76,1.72-1.17,2.64-5.93,13.51-14.89,33.94-38.55,34.77-.38.01-.76.02-1.14.02ZM48.36,3.01c-6.71.15-9.84,2.71-13.81,5.96-2.47,2.02-5.26,4.3-9.28,6.24-4.21,2.04-7.17,3.31-9.33,4.23-4.24,1.82-5.52,2.37-8.23,5.14-8.91,9.09-3.46,30.67,2.07,42.14,2.87,5.95,18.43,35.6,42.75,34.75,21.78-.76,30.28-20.15,35.91-32.97.41-.93.8-1.82,1.18-2.66,6.04-13.47,10.51-37.26.94-45.55-2.38-2.06-3.42-2.37-6.2-3.18-2.2-.65-5.53-1.62-11.21-4-2.73-1.14-4.95-2.7-7.09-4.2-4.48-3.14-8.7-6.1-17.71-5.89h0Z"/>
      <path class="cls-1" d="M38.83,308.7c-1.66,0-2.95-.46-3.95-1.4-1.52-1.44-2.18-3.86-2.08-7.62v-.08c.2-2.46.48-5.17.79-8.04.95-8.97,2.13-20.14,1.64-33.97-.86-24.13-4.3-38.95-7.63-53.27-1.82-7.81-3.69-15.89-5.1-25.29-3.55-23.79-6.28-51.23-2.34-90.54l2.99.3c-3.91,38.98-1.19,66.2,2.32,89.79,1.38,9.28,3.25,17.3,5.05,25.06,3.36,14.47,6.84,29.43,7.71,53.85.5,14.05-.69,25.33-1.65,34.4-.3,2.83-.58,5.51-.77,7.92-.07,2.7.32,4.54,1.14,5.32.32.3.92.68,2.44.56,3.52-.29,8.88-6.03,11.43-9.58,18.29-25.51,25.7-60.08,27.54-70.07,4.1-22.31,8.48-56.79,6.01-94.35l-.04-.59c-1.31-20.19-2.34-27.08-3.64-35.8-.39-2.58-.78-5.25-1.22-8.48l2.97-.41c.44,3.22.84,5.88,1.22,8.45,1.31,8.79,2.35,15.73,3.67,36.05l.04.59c2.48,37.87-1.92,72.61-6.06,95.09-1.87,10.14-9.4,45.26-28.05,71.27-.3.42-7.47,10.32-13.62,10.83-.28.02-.55.03-.8.03Z"/>
    </g>
  </g>
</svg>