<?xml version="1.0" encoding="UTF-8"?>
<svg id="Layer_2" data-name="Layer 2" xmlns="http://www.w3.org/2000/svg" viewBox="0 0 172.45 315.65">
  <defs>
    <style>
      .cls-1 {
        stroke-width: 0px;
      }
    </style>
  </defs>
  <g id="teeth">
    <g>
      <path class="cls-1" d="M41.23,315.65c-.54,0-1.09-.01-1.66-.03-18.11-.64-34.35-16.73-38.15-31.35-2.6-9.99-1.54-30.23,2.51-48.13,2.91-12.88,9.78-35.05,23-38.85,4.67-1.34,7.34-1.24,10.74-1.1,3.38.13,7.58.3,15.67-.83,8.93-1.25,12.71-3.37,16.03-5.24,3.5-1.97,6.51-3.67,13.85-3.38,7.3.29,11.88,2.25,17.17,4.53,4.61,1.98,9.84,4.23,18.12,5.89,4.18.84,7.32,1.07,10.36,1.3,4.58.34,8.54.64,14.42,2.89,19.89,7.62,28.06,37.92,29,61.55.37,9.32,1.07,26.62-11.87,33.09-3.84,1.92-6.97,2.28-10.93,2.74-3.67.42-8.24.95-15.04,2.97-5.14,1.53-8.51,3.23-11.48,4.73-3.67,1.85-7.14,3.61-12.85,4.49-8.15,1.26-13.35-.86-18.87-3.1-4.55-1.85-9.25-3.76-16.07-3.76-.13,0-.25,0-.38,0-7.63.08-11.28,2.66-15.13,5.39-4.33,3.06-8.79,6.22-18.45,6.22ZM34.81,199.11c-2.1,0-4.08.21-7.06,1.06-8.58,2.46-16.19,15.81-20.9,36.63-3.96,17.49-5.02,37.14-2.53,46.72,3.53,13.58,18.57,28.51,35.35,29.1,9.82.35,13.93-2.56,18.28-5.64,4.06-2.87,8.26-5.85,16.84-5.94.14,0,.27,0,.41,0,7.41,0,12.61,2.11,17.2,3.98,5.34,2.17,9.95,4.05,17.28,2.92,5.24-.81,8.35-2.38,11.95-4.2,3.08-1.56,6.58-3.32,11.98-4.93,7.05-2.09,11.76-2.64,15.55-3.07,3.81-.44,6.56-.76,9.93-2.44,11.2-5.6,10.56-21.65,10.22-30.27-.91-22.74-8.55-51.79-27.08-58.89-5.47-2.1-9.23-2.38-13.57-2.7-2.98-.22-6.36-.48-10.73-1.35-8.59-1.72-13.97-4.03-18.72-6.07-5.23-2.25-9.36-4.02-16.11-4.29h0c-6.47-.25-8.91,1.11-12.26,3-3.38,1.9-7.59,4.27-17.09,5.6-8.35,1.17-12.7.99-16.2.86-.98-.04-1.87-.07-2.73-.07Z"/>
      <path class="cls-1" d="M170.73,278.78c-8.06.1-15.66,3.14-22.62,6.96-8.25,4.61-10.9,10.93-21.8,10.38-12.46-.92-21.55-11.13-33.24-14.01-3.5-.75-7.45-.98-10.6.88-1.46.89-2.72,2.29-3.96,3.81-1.24,1.53-2.47,3.16-3.84,4.71-5.43,6.23-12.7,11.13-20.75,13.21-4.06.98-8.13,1.27-12.17,1.51-2.05.12-4.17.09-6.22-.18-14.42-2.11-25.42-13.4-33.48-24.71,8.72,10.52,19.62,21.02,33.72,22.66,5.81.45,11.92-.54,17.5-1.82,3.76-.98,7.21-2.85,10.46-4.94,5.06-3.16,8.88-7.57,12.47-12.31,1.29-1.58,2.72-3.27,4.69-4.5,3.82-2.31,8.67-2.13,12.85-1.19,11.84,2.8,20.6,13.08,32.74,14.41,3.74.31,7.62-.49,10.75-2.64,3.19-2.28,6.49-4.97,10.09-6.73,7.26-3.6,15.24-6.16,23.4-5.52h0Z"/>
      <path class="cls-1" d="M88.51,231.89c1.8,8,2.42,16.17,2.55,24.34.05,8.17-.4,16.36-2.03,24.39-.75-8.14-.85-16.22-.97-24.36-.05-8.14-.12-16.22.45-24.38h0Z"/>
      <path class="cls-1" d="M148.93,207.35c-3.86-28.43-4.65-49-2.54-66.68,1.15-9.63,2.85-16.73,4.49-23.59,2.18-9.08,4.23-17.66,4.64-30.99.2-6.58.08-11.56-.03-16.37-.14-6.16-.29-12.53.23-22.22.66-12.15,4.94-22.1,8.07-29.36,1.31-3.03,2.44-5.65,2.88-7.53.28-.98.68-3.27-1.22-4.71-2.71-2.05-7.68-.12-9.14.52-15.31,6.71-32.34,49.63-32.51,50.06-.26.61-.52,1.22-.8,1.87-3.04,7.04-8.13,18.82-15.13,43.62-3.16,11.18-11.56,30.38-20.35,38.08-1.4,1.23-5.68,4.96-11.21,2.52-5.9-2.6-6.87-8.73-8.22-17.22-.85-5.38-1.92-12.08-4.48-19.87-7.79-23.69-9.47-32.83-9-48.91.53-18.27,4.66-31.56,14.74-47.39,1.27-2,.99-4.28-.67-5.44-3.16-2.2-9.63.31-19.22,7.46-.32.24-.59.44-.81.6-21.97,15.93-27.73,52.97-28.67,60.23-6.99,54.42-3.68,97.23.48,131.93l-2.98.36c-4.18-34.88-7.51-77.92-.48-132.67,1.35-10.5,7.49-46.04,29.88-62.28.21-.15.47-.34.78-.58,4.43-3.3,16.19-12.07,22.72-7.52,2.98,2.07,3.62,6.16,1.49,9.51-9.88,15.53-13.75,27.96-14.27,45.87-.45,15.65,1.2,24.6,8.86,47.88,2.64,8.02,3.72,14.85,4.59,20.34,1.29,8.11,2.06,13,6.47,14.94,3.35,1.48,6.05-.31,8.02-2.04,8.34-7.29,16.39-25.81,19.44-36.64,7.05-24.99,12.19-36.88,15.26-43.99.28-.65.54-1.25.78-1.82.7-1.77,17.64-44.47,34.08-51.67,2.36-1.03,8.26-3.12,12.16-.16,2.34,1.77,3.2,4.71,2.31,7.86-.48,2.07-1.61,4.67-3.02,7.96-3.04,7.06-7.21,16.72-7.83,28.34-.52,9.58-.38,15.61-.23,21.99.11,4.85.23,9.86.03,16.53-.42,13.64-2.51,22.36-4.72,31.6-1.62,6.78-3.3,13.79-4.43,23.25-2.07,17.42-1.29,37.75,2.54,65.92l-2.97.4Z"/>
    </g>
  </g>
</svg>