<?xml version="1.0" encoding="UTF-8"?>
<svg id="Layer_2" data-name="Layer 2" xmlns="http://www.w3.org/2000/svg" viewBox="0 0 100.05 348.9">
  <defs>
    <style>
      .cls-1 {
        stroke-width: 0px;
      }
    </style>
  </defs>
  <g id="teeth">
    <g>
      <path class="cls-1" d="M50.32,121.17c-19.37,0-29.37-12.37-40.78-34.92C2.72,72.77-3.48,43.52,2.27,32.28c2.37-4.64,3.45-5.36,8.65-8.82,2.31-1.54,5.47-3.64,10.03-6.94,4.03-2.92,6.88-5.81,9.4-8.36C34.93,3.5,38.55-.18,45.77,0c6.69.17,10.51,3.91,14.94,8.25,2.27,2.22,4.62,4.52,7.67,6.72,3.82,2.75,8.09,4.69,12.22,6.57,6.01,2.73,11.7,5.32,15.03,10.03,8.79,12.41,2.27,31.8-.86,41.12l-.11.32c-.16.47-16.18,47.24-42.76,48.13-.53.02-1.06.03-1.58.03ZM45.26,3c-5.64,0-8.5,2.91-12.78,7.25-2.6,2.63-5.54,5.62-9.77,8.69-4.6,3.33-7.79,5.46-10.12,7.01-4.98,3.32-5.62,3.75-7.64,7.69-5.09,9.95.85,38.56,7.28,51.26,13.03,25.74,22.68,33.81,39.59,33.25,24.53-.82,39.86-45.64,40.02-46.09l.11-.32c2.98-8.85,9.17-27.27,1.26-38.43-2.87-4.05-8.19-6.47-13.83-9.03-4.26-1.94-8.67-3.94-12.73-6.86-3.24-2.33-5.78-4.82-8.02-7.01-4.3-4.21-7.41-7.26-12.92-7.4-.14,0-.29,0-.43,0Z"/>
      <path class="cls-1" d="M70.06,348.9c-7.34,0-13.31-8.04-15.08-10.68-21.62-32.39-28.47-110.87-28.75-114.19l-1.02-13.5c-2.29-30.31-3.24-42.86-4-65.66-.38-11.32-.57-24.92-.57-40.4h3c0,15.46.19,29.02.57,40.3.76,22.74,1.71,35.27,4,65.54l1.02,13.49c.07.79,7.06,81.01,28.25,112.77,1.18,1.76,7.38,10.48,13.92,9.22,4.35-.85,4.15-4.47,3.45-9.12-.05-.33-.1-.65-.14-.95l-.18-1.1c-.93-5.54-2.33-13.92-2.45-22.4-.39-28.27,1.71-47.9,3.54-59.38l1.27-7.98c6.1-38.2,10.5-65.8,11.77-92.11,1-20.7-.02-40.94-3.3-65.65l2.97-.39c3.3,24.9,4.33,45.31,3.32,66.19-1.27,26.47-5.69,54.14-11.8,92.44l-1.27,7.98c-1.81,11.37-3.89,30.81-3.5,58.87.11,8.25,1.49,16.49,2.41,21.94l.19,1.14c.05.33.09.63.14.96.54,3.59,1.67,11.05-5.85,12.51-.65.13-1.28.19-1.91.19Z"/>
    </g>
  </g>
</svg>