<?xml version="1.0" encoding="UTF-8"?>
<svg id="Layer_2" data-name="Layer 2" xmlns="http://www.w3.org/2000/svg" viewBox="0 0 97.66 326.91">
  <defs>
    <style>
      .cls-1 {
        stroke-width: 0px;
      }
    </style>
  </defs>
  <g id="teeth">
    <g>
      <path class="cls-1" d="M44.16,114.84c-14.87,0-25.43-19.39-32.45-32.25C5.52,71.23-6.19,31.97,4.03,24.48c.44-.32,1.28-.85,2.45-1.58,2.77-1.73,7.4-4.64,11.6-7.91,3.41-2.65,5.87-4.74,7.85-6.41,4.76-4.03,6.94-5.86,12.6-7.35,2.78-.73,6.23-1.63,10.72-1.05h0c9.1,1.18,14.26,5.47,23.63,13.24l1.62,1.34c5.7,4.72,9.28,7.14,11.9,8.91,3.67,2.48,5.51,3.73,8.08,8,7.85,13.05-.83,31.68-5.5,41.68-9.64,20.68-21.88,31.05-26.7,34.55-6.42,4.66-11.9,6.8-17.77,6.93-.12,0-.25,0-.37,0ZM46.4,3c-2.75,0-5.03.6-7.1,1.14-5,1.31-6.75,2.79-11.42,6.73-2,1.69-4.49,3.8-7.95,6.49-4.32,3.36-9.03,6.32-11.85,8.08-1.07.67-1.92,1.2-2.27,1.46-7.72,5.65,2.12,42.47,8.54,54.25,6.67,12.24,16.73,30.69,29.82,30.69.1,0,.2,0,.3,0,5.22-.11,10.18-2.07,16.07-6.35,3.61-2.62,16.14-12.78,25.74-33.39,4.43-9.5,12.67-27.19,5.64-38.87-2.23-3.7-3.58-4.62-7.19-7.06-2.67-1.81-6.33-4.28-12.14-9.09l-1.62-1.35c-8.94-7.42-13.87-11.51-22.1-12.58-.87-.11-1.69-.16-2.48-.16Z"/>
      <path class="cls-1" d="M52.97,326.91c-5.04,0-9.42-6.3-9.61-6.58-16.98-24.78-18.09-66.14-18.12-67.88-1.58-47.65-3.23-63.44-4.68-77.37-.89-8.5-1.72-16.53-2.45-30.71-1.16-22.55-.86-35.36-.56-47.74l.1-4.32,3,.07-.1,4.33c-.31,12.9-.6,25.08.56,47.51.73,14.09,1.56,22.09,2.44,30.55,1.46,13.98,3.11,29.82,4.69,77.59,0,.44,1.13,42.24,17.6,66.27,1.5,2.18,4.82,5.53,7.46,5.26,3.25-.35,5.09-3.15,4.94-7.48-.58-13.41.18-29.6,2.62-55.85,2.1-22.62,5.5-36.82,8.78-50.55,2.92-12.23,5.69-23.78,7.59-40.81,1.98-17.68,5.29-47.28,1.46-83.25l2.98-.32c3.86,36.3.53,66.1-1.47,83.91-1.93,17.21-4.84,29.39-7.66,41.17-3.26,13.63-6.63,27.72-8.71,50.13-2.43,26.11-3.18,42.17-2.61,55.45.21,5.91-2.78,10.05-7.61,10.58-.21.02-.43.03-.64.03Z"/>
    </g>
  </g>
</svg>