<?xml version="1.0" encoding="UTF-8"?>
<svg id="Layer_2" data-name="Layer 2" xmlns="http://www.w3.org/2000/svg" viewBox="0 0 115.29 385.45">
  <defs>
    <style>
      .cls-1 {
        stroke-width: 0px;
      }
    </style>
  </defs>
  <g id="teeth">
    <g>
      <path class="cls-1" d="M55.9,172.07c-.8,0-1.6-.03-2.41-.1-18.37-1.57-28.96-21.31-32.94-28.74-3.07-5.73-5.24-14.17-9.17-29.51C5.57,91.07,2.66,79.7,1.48,67.05-.37,47.18-1.29,37.21,3.69,27.21,12.4,9.72,30.44-1.4,47.53.14c5.65.51,9.79,2.75,14.17,5.11,4.25,2.3,8.66,4.67,15.11,5.96,18.94,3.77,30.28,9.78,33.71,17.88,8.06,19.05,3.96,34.99,1.75,43.56l-.2.8c-2.34,9.16-5.03,15.16-7.88,21.52-2.67,5.97-5.44,12.15-8.01,21.37-1.57,5.63-2.83,10.26-3.88,14.12-2.92,10.75-4.25,15.65-6.19,19.62-6.79,13.93-17.96,21.99-30.22,21.99ZM44.31,3C29.33,3,14.05,13.15,6.37,28.55c-4.6,9.23-3.7,18.91-1.9,38.21,1.16,12.41,4.05,23.7,9.82,46.2,4.17,16.25,6.13,23.65,8.91,28.83,6.43,11.98,15.71,25.9,30.55,27.17,17.65,1.53,27.17-15.09,29.67-20.21,1.81-3.71,3.12-8.53,5.99-19.09,1.05-3.86,2.31-8.5,3.88-14.14,2.63-9.44,5.44-15.72,8.16-21.79,2.79-6.24,5.43-12.13,7.71-21.04l.21-.8c2.12-8.22,6.05-23.53-1.61-41.64-3.02-7.13-13.63-12.55-31.53-16.11-6.9-1.37-11.71-3.97-15.95-6.26-4.28-2.31-7.98-4.31-13.02-4.77-.98-.09-1.96-.13-2.94-.13Z"/>
      <path class="cls-1" d="M71.63,385.45c-.41,0-.82-.03-1.22-.1-9.96-.16-18.69-29.22-22-41.76-5.08-19.27-7.49-30.97-9.3-53.57-1.9-23.78-5.53-36.97-9.36-50.93-3.31-12.05-6.73-24.5-9.36-44.62-2.24-17.1-2.68-25.95-1.54-55.63l3,.12c-1.13,29.46-.7,38.23,1.51,55.13,2.6,19.92,6,32.27,9.28,44.22,3.87,14.1,7.53,27.43,9.46,51.49,1.79,22.37,4.18,33.96,9.21,53.05,6.23,23.66,13.93,39.52,19.17,39.52.01,0,.02,0,.04,0h.15s.15.02.15.02c2.07.38,4.75-.77,5.84-2.52,6.16-9.86,5.63-27.86,5.17-43.75-.05-1.83-.11-3.63-.15-5.38-.45-18.88.81-28.45,2.55-41.7,1.78-13.51,3.99-30.33,5.58-64.41.14-3,.31-6.23.49-9.65,1.19-22.48,2.81-53.28-.49-87.47l2.99-.29c3.32,34.41,1.69,65.34.5,87.91-.18,3.42-.35,6.63-.49,9.63-1.6,34.21-3.82,51.1-5.61,64.67-1.73,13.11-2.97,22.58-2.53,41.23.04,1.75.09,3.54.15,5.36.48,16.31,1.02,34.8-5.62,45.43-1.5,2.41-4.64,4.01-7.57,4.01Z"/>
    </g>
  </g>
</svg>