<?xml version="1.0" encoding="UTF-8"?>
<svg id="Layer_2" data-name="Layer 2" xmlns="http://www.w3.org/2000/svg" viewBox="0 0 161.25 326.24">
  <defs>
    <style>
      .cls-1 {
        stroke-width: 0px;
      }
    </style>
  </defs>
  <g id="teeth">
    <g>
      <path class="cls-1" d="M15.91,220.81l-3-.11c.36-10.04.8-25.27.51-41.5-.29-16.21-.98-24.7-1.54-31.52-.48-5.83-.89-10.87-.9-18.77v-.23c-.05-24.52-.1-52.31,18.72-79.62.24-.35,24.49-35.33,34.45-30.05,3.96,2.1,3.52,8.53,3.46,9.26-.51,5.88-4.4,13.1-7.83,19.46-.82,1.53-1.6,2.97-2.29,4.33-8.24,16.12-5.91,38.14-4.79,48.72l.04.38c3.24,30.61,14.32,57.51,22.63,63.43.75.53,1.83,1.12,2.75.91,1.85-.43,2.78-5.12,4.06-11.61,1.45-7.37,3.44-17.46,8.2-29.81,5.76-14.94,9.79-22.37,13.68-29.55,3.13-5.77,6.08-11.22,9.66-20.21,1.33-3.34,2.8-7.38,4.49-12.06,2.54-7,5.7-15.72,10-26.49,2.82-7.07,5.65-10.66,8.41-10.66h.03c4.85.05,7.93,6.78,8.83,13.43,1.12,9.47,1.72,19.62-3.08,39.99-7.87,33.39-10.37,45.17-10.7,70.71-.28,22.02,2.93,43.83,9.54,64.85l-2.86.9c-6.71-21.32-9.96-43.45-9.68-65.79.33-25.85,2.85-37.72,10.78-71.36,4.69-19.89,4.1-29.76,3.02-38.92-.83-6.12-3.36-10.78-5.89-10.81h0c-.82,0-3.07,2.37-5.62,8.77-4.28,10.73-7.43,19.42-9.97,26.41-1.71,4.7-3.18,8.76-4.53,12.14-3.64,9.15-6.64,14.68-9.81,20.53-3.85,7.1-7.83,14.44-13.52,29.2-4.67,12.11-6.63,22.05-8.06,29.31-1.61,8.16-2.58,13.08-6.32,13.95-1.61.37-3.35-.09-5.17-1.39-8.81-6.27-20.44-33.12-23.87-65.55l-.04-.38c-1.15-10.87-3.55-33.48,5.1-50.4.71-1.38,1.49-2.84,2.32-4.39,3.29-6.11,7.02-13.04,7.48-18.3.12-1.33.02-5.34-1.88-6.35-4.19-2.22-18.19,11.11-30.58,29.1-18.29,26.54-18.23,53.84-18.19,77.91v.23c.02,7.78.42,12.76.89,18.53.56,6.86,1.26,15.4,1.55,31.71.29,16.31-.15,31.59-.51,41.67Z"/>
      <path class="cls-1" d="M95.13,113.64c-5.57-19.63-6.8-32.57-7.27-42.63-.44-9.48-.26-21.46-.08-33.05.11-7.45.22-14.49.16-20.45-.11-9.66-.53-11.46-3.26-13.73-2.19-1.83-4.67-.06-5.96,1.15-4.2,3.96-9.53,12.07-12.4,16.42l-.5.76-2.5-1.65.5-.76c3.14-4.77,8.4-12.75,12.85-16.95,3.31-3.13,7.12-3.61,9.94-1.27,4,3.33,4.23,6.71,4.34,16,.07,6-.04,13.06-.16,20.53-.18,11.54-.36,23.48.08,32.86.46,9.9,1.67,22.62,7.16,41.96l-2.89.82Z"/>
      <path class="cls-1" d="M39.41,326.24c-17.05,0-25.48-7.79-32.63-19.41-7.53-12.24-7.94-22.45-5.33-45.1,2.32-20.08,6.68-43.74,20.04-48.48,4.25-1.51,7.42-.14,10.77,1.3,3.86,1.66,8.24,3.54,16.08,2.41,8.04-1.16,11.86-2.51,19.45-6.88.66-.38,1.34-.84,2.06-1.33,2.08-1.41,4.44-3.01,7.13-3.1,3.49-.12,5.92,1.37,8.51,2.94,1.46.88,2.97,1.8,4.81,2.52,3.47,1.36,5.76.49,9.57-.95,3.19-1.21,7.17-2.71,13.24-3.42,2.09-.24,12.52-.42,21.59,3.33h0c9.8,4.05,13.87,9.38,17.51,14.95,5.22,7.99,10.92,24.02,8.43,54.99-1,12.41-10.11,28.6-32.7,36.81-9.92,3.61-22.28.77-24.81-.13-6.53-2.32-11.08-6.83-14.41-10.12-2.13-2.11-4.14-4.1-5.37-4.1h0c-1.41,0-5.1,3.42-8.36,6.44-3.38,3.13-7.21,6.67-11.41,9.57-8.84,6.1-14.9,7.26-20.14,7.61-1.4.09-2.74.14-4.04.14ZM25.17,215.59c-.84,0-1.72.15-2.67.48-11.92,4.23-16.02,28.27-18.06,45.99-2.52,21.89-2.16,31.7,4.9,43.19,7.33,11.91,15.55,19.06,33.92,17.85,4.81-.31,10.39-1.39,18.63-7.08,4.02-2.78,7.77-6.25,11.08-9.31,4.71-4.36,7.82-7.23,10.4-7.23h0c2.47,0,4.68,2.19,7.48,4.97,3.3,3.26,7.4,7.32,13.3,9.42,3.13,1.11,14.34,3.21,22.78.14,21.25-7.73,29.81-22.76,30.73-34.24,2.42-30.13-2.99-45.51-7.95-53.11-3.37-5.16-7.13-10.09-16.14-13.82-7.87-3.25-17.49-3.43-20.1-3.13-5.7.66-9.48,2.1-12.52,3.25-4.01,1.52-7.18,2.72-11.73.94-2.07-.81-3.77-1.84-5.27-2.75-2.39-1.45-4.3-2.59-6.86-2.5-1.82.06-3.71,1.34-5.54,2.58-.73.5-1.49,1.01-2.25,1.45-7.9,4.54-12.12,6.03-20.52,7.25-8.68,1.25-13.68-.9-17.7-2.63-2.2-.95-3.98-1.71-5.91-1.71Z"/>
      <path class="cls-1" d="M83.57,301.84c-3.57-8.18-4.07-18.45-1.27-26.92.83,4.51,1.03,8.92,1.28,13.43.18,4.52.38,8.93,0,13.49h0Z"/>
      <path class="cls-1" d="M95.07,269.62c-1.05,3.69-4.64,6.18-8.23,7.13-5.98,1.73-13.22-.24-16.9-5.36,1.12.49,2.18.98,3.27,1.36,7.21,2.57,16.05,2.49,21.86-3.14h0Z"/>
    </g>
  </g>
</svg>