<?xml version="1.0" encoding="UTF-8"?>
<svg id="Layer_2" data-name="Layer 2" xmlns="http://www.w3.org/2000/svg" viewBox="0 0 151.92 283.87">
  <defs>
    <style>
      .cls-1 {
        stroke-width: 0px;
      }
    </style>
  </defs>
  <g id="teeth">
    <g>
      <g>
        <path class="cls-1" d="M13.72,185.4c-2.9-34.52-1.95-62.87,3.18-94.77,4.76-29.64,23.36-52.55,34.01-63.57C66.8,10.64,84.67.02,96.45,0h.02c2.48,0,4.35.69,5.55,2.05,1.95,2.22,1.53,5.49,1.25,7.66-.04.32-.09.71-.12,1.02.33.05.78.08,1.15.11,2.76.21,7.89.59,8.56,8.14.64,7.24.73,14.11.82,21.39.06,4.88.13,9.93.36,15.4.5,11.6,3.68,21.78,7.06,32.56,2.31,7.36,4.69,14.97,6.33,23.44,3.19,16.44,4.25,47.26.38,68.4l-2.95-.54c3.81-20.79,2.77-51.11-.37-67.28-1.61-8.3-3.97-15.83-6.25-23.11-3.44-10.97-6.68-21.34-7.2-33.32-.24-5.52-.3-10.59-.37-15.49-.1-7.22-.18-14.04-.81-21.17-.44-5.01-3.04-5.21-5.8-5.42-1.33-.1-2.49-.19-3.3-.97-.83-.79-.68-1.95-.48-3.54.22-1.73.53-4.09-.53-5.29-.6-.69-1.71-1.04-3.3-1.04h-.02c-21.1.03-68.84,39.94-76.58,88.1-5.09,31.65-6.03,59.78-3.15,94.04l-2.99.25Z"/>
        <path class="cls-1" d="M36.26,283.87c-12.77,0-25.88-5.1-29.94-15.49-13.03-33.39-3.83-77.76,8.91-84.58,7.01-3.76,13.73-4.56,23.03-5.68,2.74-.33,5.57-.67,8.72-1.12,3.73-.53,8.26-2.16,13.05-3.87,6.26-2.24,12.73-4.56,18.09-4.64,5.96-.08,10.71,1.76,15.33,3.55,4.21,1.63,8.56,3.31,13.87,3.55,15.69.71,24.07,3.48,28.01,9.28,14.18,20.85,24.05,50.53,9.22,71.28-7.52,10.52-21.25,20.82-35.44,20.82-.51,0-1.01-.01-1.52-.04-8.12-.43-12.79-3.29-16.9-5.82-3.7-2.28-6.9-4.24-12.18-4.55-3.28-.19-7.44,2.67-12.24,6-5.84,4.04-13.12,9.07-22,10.64-2.59.46-5.29.69-8,.69ZM78.52,171.48c-.12,0-.24,0-.36,0-4.87.07-11.1,2.3-17.12,4.46-4.94,1.77-9.61,3.44-13.64,4.02-3.19.46-6.03.8-8.79,1.13-8.97,1.08-15.45,1.85-21.97,5.35-10.37,5.56-20.59,47.38-7.53,80.85,4.3,11.02,21.32,15.29,34.63,12.94,8.24-1.46,14.93-6.08,20.82-10.16,5.26-3.64,9.79-6.78,14.13-6.52h0c6.04.36,9.87,2.71,13.57,4.99,3.99,2.46,8.12,5,15.48,5.38.46.02.92.04,1.38.04,13.12,0,25.92-9.67,32.99-19.56,13.93-19.5,4.35-47.83-9.26-67.85-3.35-4.93-11.03-7.31-25.66-7.97-5.8-.26-10.39-2.03-14.82-3.75-4.45-1.72-8.66-3.35-13.85-3.35Z"/>
        <path class="cls-1" d="M102.23,11.54c-8.78,11.24-16.7,23.06-22.72,35.97-4.34,9.61-4.99,20.51-5.49,31-.23,3.57-.41,7.21-1.25,10.72.18-3.59-.03-7.14-.21-10.72-.61-10.83-.28-22.11,4.2-32.2,6.18-13.05,14.79-25.06,25.47-34.77h0Z"/>
        <path class="cls-1" d="M78.93,265.71c-1.72-5.21-2.09-10.73-1.76-16.17.39-5.43,1.5-10.86,3.9-15.79-.03,4.72-.62,11.25-.91,15.99-.35,4.75-.64,11.25-1.23,15.97h0Z"/>
        <path class="cls-1" d="M93.46,231.1c-6.67,6.2-18.22,6.56-25.22.71,4.31.73,8.37,1.29,12.65,1.15,4.28-.11,8.31-.9,12.57-1.87h0Z"/>
      </g>
      <path class="cls-1" d="M44.26,283.18l-.52-2.95c8.52-1.51,15.92-6.51,21.86-10.53,5.26-3.56,9.43-6.37,13.09-6.15l-.17,2.99c-2.65-.16-6.63,2.53-11.23,5.64-6.18,4.18-13.86,9.38-23.02,11Z"/>
    </g>
  </g>
</svg>