<?xml version="1.0" encoding="UTF-8"?>
<svg id="Layer_2" data-name="Layer 2" xmlns="http://www.w3.org/2000/svg" viewBox="0 0 120.8 360.7">
  <defs>
    <style>
      .cls-1 {
        stroke-width: 0px;
      }
    </style>
  </defs>
  <g id="teeth">
    <g>
      <path class="cls-1" d="M18.41,246.46c-.56-10.28-1.37-37.37,3.19-66.93,3-19.43,6.22-32.09,9.06-43.26,2.68-10.53,5.21-20.48,7.18-34.45,3.49-24.76,5.62-54.71-4.98-89.13l-.02-.07c-1.03-4.06-.89-7.1.43-9.31.93-1.56,2.41-2.6,4.39-3.1,6.91-1.73,14.64,8.26,14.96,8.68,25.16,32.93,34.8,70.77,39.98,91.1l.18.71c1.93,7.58,3.67,19.78,5.5,32.69,1.15,8.12,2.35,16.52,3.61,23.75,4.79,27.55,8.97,54.51,7.56,81.46l-3-.16c1.39-26.65-2.77-53.42-7.52-80.8-1.26-7.28-2.46-15.7-3.62-23.84-1.82-12.83-3.55-24.95-5.44-32.37l-.18-.71c-5.13-20.12-14.67-57.57-39.46-90.01-2.62-3.43-8.15-8.52-11.85-7.59-1.2.3-2.03.87-2.55,1.73-.86,1.44-.9,3.86-.11,7,10.76,34.97,8.6,65.32,5.07,90.4-1.99,14.13-4.54,24.16-7.24,34.77-2.96,11.65-6.03,23.69-9,42.98-4.52,29.29-3.71,56.13-3.16,66.31l-3,.16Z"/>
      <path class="cls-1" d="M73.85,360.7c-19.37,0-38.9-2.59-52.12-6.24-6.92-1.91-19.05-8.74-20.67-22.25-4.63-38.67,7.07-66.43,12.31-76.57.3-.59.65-1.28,1.05-2.07,6.78-13.4,27.41-54.18,57.79-51.69,14.92,1.22,21.86,9.13,28.77,18.57,20.16,27.54,21.04,111.35,19.14,125.55-.89,6.7-8.8,10.71-13.9,11.77-9.88,2.06-21.1,2.93-32.38,2.93ZM69.58,204.78c-27.08,0-46.1,37.57-52.47,50.15-.4.8-.76,1.5-1.07,2.09-5.12,9.9-16.53,37-12,74.84,1.79,14.94,17.81,19.53,18.49,19.72,20.57,5.68,56.68,8.75,83.08,3.26,4.4-.92,10.89-4.38,11.54-9.23,1.8-13.49.74-96.98-18.59-123.38-7.66-10.47-14.17-16.33-26.59-17.35-.8-.07-1.61-.1-2.4-.1Z"/>
    </g>
  </g>
</svg>