<?xml version="1.0" encoding="UTF-8"?>
<svg id="Layer_2" data-name="Layer 2" xmlns="http://www.w3.org/2000/svg" viewBox="0 0 129.48 351">
  <defs>
    <style>
      .cls-1 {
        stroke-width: 0px;
      }
    </style>
  </defs>
  <g id="teeth">
    <g>
      <path class="cls-1" d="M52.59,154.41c-1.2,0-2.42-.08-3.66-.23-25.8-3.26-32.6-24.63-38.06-41.8-.66-2.08-1.29-4.04-1.93-5.94C-.56,78.52-.7,53.36.56,30.32,1.41,14.75,2.23,10.2,7.72,4.7,13.81-1.41,20.45-.53,36.5,1.59c9.3,1.23,22.03,2.92,39.92,3.95,7.24.42,13.21.44,18.01.45,11.52.04,17.87.06,23.7,5.19,10.37,9.11,10.78,18.87,11.14,27.48.03.75.06,1.49.1,2.23.86,17.01-3.21,34.83-12.11,52.96-6.54,13.33-14.63,24.32-19.57,29.68l-1.9,2.07c-13.02,14.18-26.45,28.8-43.19,28.8ZM20.42,3c-4.76,0-7.78,1.01-10.58,3.82-4.54,4.55-5.42,7.87-6.29,23.67-1.25,22.73-1.11,47.55,8.22,74.99.65,1.93,1.28,3.9,1.95,6,5.47,17.21,11.68,36.71,35.58,39.73,1.08.14,2.16.2,3.22.2,15.49,0,28.47-14.13,41.05-27.83l1.91-2.07c.33-.36,33.12-36.48,30.89-80.46-.04-.75-.07-1.5-.1-2.26-.35-8.4-.71-17.08-10.12-25.35-4.99-4.39-10.59-4.41-21.73-4.44-4.84-.02-10.86-.04-18.18-.46-18-1.04-30.79-2.73-40.14-3.97-6.88-.91-11.85-1.57-15.68-1.57Z"/>
      <path class="cls-1" d="M115.43,44.29c-2.63,16.48-8.44,32.64-18.72,45.96-5.22,6.55-15.7,18.54-25.09,15.66-7.88-2.07-13.97-12.38-22.78-8.13-4.52,2.25-9.36,8.87-15.03,5.18-14.37-10.83-12.57-59.14-11.46-76.37.11,12.44.41,24.86,1.66,37.23,1.18,10.42,3,26.55,9.39,34.92,2.75,3.5,5.42,2.78,8.77.06,6.03-5.11,11.31-6.81,18.62-2.71,5.07,2.8,9.33,8.27,15.55,7.28,3.74-.81,7.14-3.28,10.07-5.78,3.07-2.67,5.88-5.65,8.47-8.79,10.46-12.84,16.79-28.46,20.55-44.51h0Z"/>
      <path class="cls-1" d="M82.66,351c-4.36,0-9.39-3-11.12-4.7-26.59-26.24-44.21-99.82-44.95-102.94-5.52-21.89-14.64-72.89-13.79-125.06l3,.05c-.85,51.86,8.22,102.53,13.71,124.29.18.78,18.16,75.88,44.14,101.52,2.25,2.22,8.54,5.12,11.23,3.26,1.46-1.01,2.06-3.81,1.65-7.68-4.48-23.97-6.4-48.45-5.72-72.78.61-21.79,1.71-36.19,9.16-73.91,1.88-9.49,3.89-16.55,5.84-23.38,4.22-14.77,7.86-27.52,8.8-59.58l3,.09c-.95,32.43-4.82,45.98-8.91,60.31-1.93,6.77-3.93,13.77-5.79,23.14-7.82,39.6-8.56,53.69-9.11,73.42-.68,24.14,1.24,48.43,5.68,72.21l.02.11c.39,3.61.2,8.38-2.92,10.53-1.14.79-2.5,1.11-3.92,1.11Z"/>
    </g>
  </g>
</svg>