<?xml version="1.0" encoding="UTF-8"?>
<svg id="Layer_2" data-name="Layer 2" xmlns="http://www.w3.org/2000/svg" viewBox="0 0 172.18 311.41">
  <defs>
    <style>
      .cls-1 {
        stroke-width: 0px;
      }
    </style>
  </defs>
  <g id="teeth">
    <g>
      <path class="cls-1" d="M89.92,124.82c-6.13,0-11.42-2.13-17.47-4.57-4.22-1.7-9-3.63-14.8-5.11-7.72-1.97-12.52-1.56-16.76-1.2-4.53.39-8.44.72-13.7-2.46C6.79,99.16,1.44,67.62.07,49.91c-.57-7.37,2.22-24.61,14.52-30.89,4.29-2.19,7.67-2.38,11.94-2.61,3.14-.17,6.69-.36,11.57-1.41,7.7-1.65,11.33-4.28,14.85-6.82,3.42-2.47,6.65-4.81,12.91-5.56h0c7.66-.92,12.65,1.28,17.48,3.4,4.47,1.96,9.09,3.99,16.22,3.81,7-.18,10.76-2.26,14.74-4.47,4.19-2.32,8.52-4.72,16.6-5.29,11.52-.81,24.48,4.92,32.22,14.24,11.47,13.82,9.95,29.62,6.77,48.82-3.34,20.15-11.74,43.09-22.97,48.89-5.95,3.08-9.41,2.65-13.4,2.16-4.01-.5-8.57-1.06-17.52,1.7-5.08,1.57-8.33,3.25-11.19,4.74-3.88,2.02-7.23,3.76-13.26,4.13-.55.03-1.09.05-1.62.05ZM46.45,110.64c3.21,0,7.06.35,11.94,1.59,5.99,1.53,10.87,3.5,15.18,5.23,6.5,2.62,11.63,4.68,17.78,4.31,5.39-.33,8.19-1.78,12.06-3.8,2.98-1.55,6.35-3.3,11.69-4.95,9.57-2.95,14.67-2.32,18.77-1.81,3.79.47,6.53.8,11.66-1.85,10.26-5.3,18.28-27.93,21.39-46.72,3.65-22.05,3.67-34.62-6.12-46.42-7.15-8.61-19.09-13.91-29.7-13.17-7.41.52-11.45,2.75-15.35,4.92-4.12,2.28-8.38,4.64-16.12,4.84-7.8.2-12.96-2.06-17.51-4.06-4.67-2.05-9.08-3.99-15.92-3.17h0c-5.48.66-8.27,2.67-11.5,5.01-3.59,2.6-7.66,5.54-15.98,7.32-5.1,1.09-8.94,1.3-12.03,1.47-4.07.22-7.01.38-10.74,2.29C5.11,27.23,2.56,43.23,3.06,49.68c1.07,13.79,5.71,47.18,25.67,59.23,4.43,2.68,7.56,2.41,11.9,2.04,1.73-.15,3.62-.31,5.82-.31Z"/>
      <path class="cls-1" d="M110.09,311.41c-1.68,0-3.25-.34-4.56-1.2-2.96-1.95-6.08-4.93-3.86-10.73l.1-.2c11.09-19.51,12.67-34.15,12.04-43-.68-9.66-1.63-15.73-2.83-23.41-.99-6.33-2.1-13.5-3.44-24.69-.15-1.22-.28-2.53-.41-3.91-.85-8.52-2.01-20.18-9.12-28.92-2.39-2.93-4.99-4.56-7.72-4.83-.18-.02-.35-.03-.53-.03-8.59,0-15.72,20.71-18.45,28.6-.51,1.47-.91,2.64-1.22,3.41-5.07,12.81-6.84,19.09-8.89,26.36-1.58,5.61-3.37,11.97-6.97,22.4-6.47,18.74-13.33,34.41-25.81,49.97-6.02,7.51-14.18,9.62-18.8,7.79-1.96-.78-3.29-2.85-3.96-6.17l-.07-.36.1-.36c3.6-12.33,5.98-25.04,7.05-37.77,1.17-13.89,1.22-17.46,1.31-23.94.04-2.7.08-6.06.23-10.91.48-16.23,2.71-27.5,5.07-39.42,2.02-10.21,4.11-20.77,5.11-35.01.66-9.42,1.1-14.94,2.05-27.04.37-4.65.81-10.31,1.38-17.55l2.99.23c-.57,7.25-1.01,12.9-1.38,17.56-.95,12.08-1.39,17.6-2.05,27.01-1.01,14.43-3.12,25.08-5.16,35.39-2.34,11.8-4.54,22.95-5.02,38.93-.14,4.82-.19,8.03-.22,10.86-.09,6.55-.14,10.16-1.32,24.16-1.08,12.8-3.45,25.59-7.05,38,.45,2,1.18,3.28,2.05,3.63,3.1,1.23,9.91-.09,15.36-6.87,12.2-15.21,18.94-30.62,25.31-49.07,3.57-10.35,5.35-16.67,6.92-22.24,2.07-7.35,3.86-13.71,8.99-26.66.28-.71.67-1.85,1.17-3.28,3.55-10.29,10.9-31.71,22.1-30.59,3.56.35,6.84,2.34,9.75,5.92,7.68,9.44,8.89,21.62,9.78,30.52.14,1.36.26,2.65.41,3.85,1.33,11.14,2.44,18.28,3.42,24.58,1.21,7.75,2.16,13.87,2.85,23.66.66,9.25-.96,24.49-12.37,44.59-1.31,3.52.02,5.25,2.74,7.04,3.14,2.07,10.39-.73,14.29-3.28,19.69-12.83,27.77-48.03,27.85-48.39,5-18.08,10.41-44.81,8.09-91.98-.08-1.65-.16-3.26-.23-4.83-.71-15.3-1.28-27.38-6.36-53.62l2.95-.57c5.12,26.46,5.69,38.64,6.41,54.06.07,1.57.15,3.17.23,4.83,2.34,47.6-3.14,74.62-8.17,92.85-.32,1.42-8.41,36.67-29.12,50.17-2.35,1.53-8.11,4.47-13.02,4.47Z"/>
      <path class="cls-1" d="M39.5,15.82c.19,5.17-.18,10.19-.49,15.3-.37,5.11-.66,10.13-1.54,15.23-1.5-5.01-1.77-10.25-1.45-15.43.38-5.18,1.34-10.33,3.48-15.1h0Z"/>
      <path class="cls-1" d="M100.03,11.24c.6,7.63.54,15.2.49,22.82-.12,7.62-.22,15.18-1,22.8-1.61-7.51-2.05-15.18-2-22.83.12-7.65.74-15.31,2.5-22.78h0Z"/>
      <path class="cls-1" d="M82.78,62.99c8.46-8.7,24.54-9.59,32.99-.42-2.74-1.2-5.43-2.16-8.18-2.74-8.4-1.89-16.92-.15-24.81,3.17h0Z"/>
    </g>
  </g>
</svg>