<?xml version="1.0" encoding="UTF-8"?>
<svg id="Layer_2" data-name="Layer 2" xmlns="http://www.w3.org/2000/svg" viewBox="0 0 145.89 278.04">
  <defs>
    <style>
      .cls-1 {
        stroke-width: 0px;
      }
    </style>
  </defs>
  <g id="teeth">
    <g>
      <path class="cls-1" d="M98.47,278.04c-3.1,0-6.1-.37-8.9-1.16-6.7-1.89-9.76-5.33-12.46-8.36-2.88-3.24-5.38-6.04-11.98-7-1.94-.28-4.26.72-7.18,2-6.07,2.64-14.38,6.26-28.39,3.01-14.57-3.39-26.86-17.99-29.22-34.72-2.37-16.87,8.07-35.12,11.92-40.18.19-.26.41-.55.65-.87,3.85-5.17,12.86-17.29,26.92-16.65,7.79.35,14.38,3.19,20.75,5.93,6.65,2.86,12.93,5.57,20.58,5.76h0c5.38.14,8.75,0,20.76-4.77,9.78-3.88,23.61-7.11,33.99-.48,7.5,4.79,9.14,23,9.47,28.47,1.92,32.49-2.07,41.51-5.97,47.42-8.47,12.84-25.92,21.6-40.95,21.6ZM64.46,258.48c.37,0,.74.02,1.11.08,7.68,1.11,10.79,4.6,13.79,7.97,2.66,2.99,5.17,5.81,11.03,7.46,15.22,4.29,36.95-4.69,46.53-19.2,3.63-5.51,7.35-14.03,5.48-45.59-.78-13.23-3.96-23.48-8.09-26.12-9.31-5.95-22.15-2.88-31.27.74-12.53,4.97-16.32,5.13-21.94,4.98-8.23-.21-15.08-3.16-21.69-6.01-6.41-2.76-12.46-5.36-19.7-5.69-12.47-.59-20.81,10.66-24.37,15.45-.25.33-.47.64-.67.9-2.97,3.91-13.61,21.82-11.34,37.94,2.15,15.3,13.73,29.15,26.92,32.21,13.04,3.03,20.83-.36,26.51-2.83,2.8-1.22,5.27-2.3,7.7-2.3Z"/>
      <path class="cls-1" d="M138.65,183.53l-2.99-.22c.49-6.73-1.25-18.26-4.34-28.69-3.1-10.49-9.37-22.03-17.31-36.63-5.39-9.92-11.5-21.17-17.7-34.14-6.02-12.61-9.84-21.62-13.53-30.33-4.8-11.33-9.34-22.02-18.02-38.65-4.41-8.45-9.2-10.86-11.66-11.55-1.94-.54-3.78-.41-5.05.36-3.83,2.33-3.29,12.37-3.06,16.66.04.74.07,1.38.09,1.87.16,4.78.38,9.45.59,13.97.96,20.37,1.86,39.61-2.95,66.48-2.62,14.65-5.52,25.88-8.08,35.78-3.55,13.72-6.61,25.57-7.94,42.16l-2.99-.24c1.35-16.85,4.45-28.82,8.03-42.67,2.55-9.86,5.44-21.03,8.04-35.56,4.75-26.54,3.86-45.62,2.91-65.82-.21-4.53-.43-9.21-.59-14.03-.01-.48-.05-1.09-.08-1.8-.3-5.64-.87-16.13,4.5-19.39,1.97-1.2,4.67-1.45,7.41-.69,5.06,1.41,9.86,6.04,13.51,13.05,8.74,16.73,13.29,27.48,18.12,38.87,3.68,8.68,7.48,17.66,13.48,30.21,6.16,12.9,12.25,24.11,17.63,34,8.02,14.76,14.36,26.42,17.55,37.22,2.64,8.94,5.04,21.61,4.45,29.76Z"/>
      <path class="cls-1" d="M129.7,149.65l-.03-.61c-.76-17.43-4.42-29.51-7.35-36.57-3.42-8.24-6.36-13.66-9.47-19.41-3.47-6.41-7.4-13.66-12.63-26.03-2.09-4.95-4.04-10.3-5.93-15.48-5.15-14.13-10.48-28.74-19.6-38.55-.94-1.01-3.8-4.09-5.61-3.69-1.37.3-1.96.89-2.05,3.72l-3-.1c.06-1.82.18-5.62,4.4-6.55,3.48-.77,6.84,2.84,8.45,4.58,9.53,10.25,14.97,25.15,20.22,39.56,1.96,5.38,3.81,10.46,5.87,15.34,5.17,12.24,8.9,19.12,12.5,25.77,3.15,5.81,6.13,11.3,9.61,19.68,3.03,7.29,6.8,19.72,7.58,37.59l.03.59-3,.16Z"/>
      <path class="cls-1" d="M25.25,263.23c9.59-.56,18.55-4.34,25.47-10.63,3.4-2.7,6.49-6.03,10.61-7.76,3.42-1.21,7.32-.59,10.43,1.16,5.65,3.43,9.55,8.72,14.22,13.15,7.59,7.09,16.93,12.65,27.51,13.96-13.05.11-25.04-7.37-33.84-16.55-2.95-2.77-5.89-5.99-9.33-7.98-3.27-1.79-7.4-2.04-10.48.32-3.47,2.32-6.64,5.13-10.1,7.61-7.04,4.99-15.92,7.52-24.49,6.72h0Z"/>
      <path class="cls-1" d="M65.33,215.44c.06,4.55-.23,10.83-.36,15.4-.21,5.15-.05,10.12-.09,15.33-4.33-9.16-3.67-21.59.45-30.73h0Z"/>
    </g>
  </g>
</svg>