<?xml version="1.0" encoding="UTF-8"?>
<svg id="Layer_2" data-name="Layer 2" xmlns="http://www.w3.org/2000/svg" viewBox="0 0 109.71 325.34">
  <defs>
    <style>
      .cls-1 {
        stroke-width: 0px;
      }
    </style>
  </defs>
  <g id="teeth">
    <g>
      <path class="cls-1" d="M91.01,229.32l-2.99-.25c.67-7.91.85-24.44,1.02-39.03l.04-3.14c.04-3.57.1-7.02.16-10.41.22-12.68.42-24.65-.45-38.94-2.02-33.16-4.99-46.49-7.16-56.23-.6-2.67-1.11-4.98-1.52-7.34-.09-.45-9.98-49.1-30.48-67.81-1.89-1.72-6.77-4.14-8.78-2.77-.97.66-1.44,2.51-1.29,5.07,1.74,13.75,1.95,32.37.58,52.42-1.26,18.57-4.15,32.6-6.7,44.97-1.25,6.07-2.43,11.8-3.26,17.36-4.18,28.03-4.21,51.06-2.19,101.86l-3,.12c-2.03-51.01-1.99-74.15,2.22-102.42.84-5.64,2.03-11.41,3.28-17.52,2.53-12.28,5.39-26.2,6.64-44.57,1.35-19.89,1.15-38.32-.57-51.89v-.1c-.24-3.77.65-6.46,2.58-7.78,4-2.73,10.56,1.27,12.49,3.03,21.22,19.38,31,67.44,31.41,69.47.4,2.33.91,4.6,1.5,7.24,2.19,9.83,5.19,23.3,7.22,56.7.88,14.41.67,26.44.45,39.17-.06,3.39-.12,6.83-.16,10.4l-.04,3.14c-.16,14.64-.35,31.22-1.03,39.25Z"/>
      <path class="cls-1" d="M54.63,325.34c-5.78,0-9.75-2.82-16.18-7.4-2.89-2.05-6.16-4.38-10.41-7.09-3.37-2.14-6.6-4.02-9.45-5.66-6.97-4.03-12.48-7.22-15.18-11.57-9.53-15.4,3.49-39.01,8.39-47.9,7.3-13.22,22.48-40.73,45.07-39.88,15.58.59,29.08,11.99,41.28,34.84.2.38,19.88,37.73,7.45,56.42-3.32,4.99-8.86,7.63-14.73,10.43-2.45,1.16-4.98,2.37-7.46,3.79-3.89,2.23-7.16,4.32-10.04,6.16-6.95,4.44-11.98,7.64-18.11,7.85-.21,0-.42.01-.62.01ZM55.84,208.82c-20.27,0-34.52,25.83-41.42,38.34-4.67,8.47-17.08,30.97-8.47,44.87,2.3,3.71,7.52,6.73,14.13,10.56,2.88,1.66,6.14,3.55,9.56,5.73,4.32,2.75,7.77,5.2,10.54,7.18,6.56,4.67,9.86,7.01,14.96,6.84,5.32-.18,9.81-3.05,16.6-7.38,2.91-1.86,6.21-3.97,10.16-6.23,2.58-1.48,5.16-2.71,7.66-3.9,5.72-2.72,10.67-5.08,13.53-9.38,9.5-14.29-2.26-43.36-7.6-53.35-11.65-21.83-24.33-32.71-38.74-33.25h0c-.3-.01-.61-.02-.91-.02Z"/>
    </g>
  </g>
</svg>