<?xml version="1.0" encoding="UTF-8"?>
<svg id="Layer_2" data-name="Layer 2" xmlns="http://www.w3.org/2000/svg" viewBox="0 0 79.96 313.35">
  <defs>
    <style>
      .cls-1 {
        stroke-width: 0px;
      }
    </style>
  </defs>
  <g id="teeth">
    <g>
      <path class="cls-1" d="M40.64,144.09c-19.09,0-31.59-31.6-35.55-48.35C.43,76-3.59,16.91,5.2,7.68,12.7-.21,29.64-.39,39.08.21c.9.06,2.47.01,4.46-.05,8.97-.25,25.67-.73,30.9,6.81,7.62,10.98,8.83,82.82-6.06,112.49-5.27,10.52-13.88,24.51-27.61,24.62-.05,0-.09,0-.14,0ZM32.53,3c-12,0-21,2.38-25.16,6.75-7.03,7.39-4.73,62.54.64,85.31,4.38,18.53,16.67,46.04,32.63,46.04.04,0,.07,0,.11,0,9.2-.07,17.13-7.37,24.95-22.97,14.14-28.2,13.44-99.11,6.27-109.44h0c-4.31-6.21-20.55-5.75-28.35-5.52-2.07.06-3.7.11-4.73.04-2.2-.14-4.32-.21-6.36-.21Z"/>
      <path class="cls-1" d="M35.24,313.35c-.06,0-.11,0-.17,0-8.5-.23-11.55-11.81-13.01-17.38-.14-.53-.26-1-.38-1.4l-.02-.07c-5.03-22.06-6.73-55-7.86-100.99-.42-17.39-1.28-29.47-2.11-41.15-.91-12.87-1.78-25.02-1.92-42.72l3-.02c.14,17.61,1,29.72,1.91,42.53.83,11.71,1.69,23.83,2.12,41.29,1.12,45.78,2.81,78.54,7.78,100.36.11.41.24.89.38,1.42,1.28,4.86,3.94,14.97,10.19,15.14,4.2.12,7.26-8.69,8.62-16.27,8.48-47.45,14.4-101.66,14.46-102.2.34-3,.67-5.84.99-8.61,1.93-16.55,3.6-30.85,4.16-60.82l3,.06c-.57,30.11-2.24,44.48-4.18,61.11-.32,2.76-.65,5.6-.99,8.59-.06.54-5.99,54.85-14.49,102.4-1.01,5.66-4.15,18.74-11.48,18.74Z"/>
    </g>
  </g>
</svg>