<?xml version="1.0" encoding="UTF-8"?>
<svg id="Layer_2" data-name="Layer 2" xmlns="http://www.w3.org/2000/svg" viewBox="0 0 161.25 326.24">
  <defs>
    <style>
      .cls-1 {
        stroke-width: 0px;
      }
    </style>
  </defs>
  <g id="teeth">
    <g>
      <path class="cls-1" d="M145.33,220.81c-.36-10.09-.81-25.38-.51-41.66.29-16.31.99-24.85,1.55-31.71.47-5.77.88-10.75.89-18.53v-.23c.05-24.08.1-51.37-18.19-77.92-12.39-17.99-26.39-31.31-30.58-29.1-1.89,1-1.99,5.02-1.87,6.35.46,5.26,4.19,12.19,7.48,18.3.83,1.54,1.61,3,2.32,4.38,8.65,16.92,6.25,39.53,5.1,50.4l-.04.38c-3.43,32.44-15.06,59.28-23.87,65.55-1.82,1.29-3.56,1.76-5.17,1.39-3.75-.87-4.71-5.79-6.32-13.95-1.43-7.26-3.39-17.2-8.06-29.31-5.69-14.76-9.67-22.1-13.52-29.2-3.17-5.85-6.17-11.38-9.81-20.53-1.35-3.38-2.82-7.44-4.53-12.14-2.53-6.98-5.69-15.67-9.97-26.41-2.55-6.39-4.79-8.77-5.62-8.77h0c-2.53.03-5.06,4.69-5.89,10.83-1.08,9.14-1.66,19.01,3.02,38.89,7.92,33.63,10.45,45.51,10.78,71.36.28,22.34-2.97,44.47-9.68,65.79l-2.86-.9c6.61-21.01,9.82-42.83,9.54-64.85-.33-25.54-2.83-37.32-10.7-70.71-4.8-20.36-4.19-30.52-3.08-39.96.9-6.67,3.99-13.4,8.84-13.45h.03c2.76,0,5.59,3.58,8.41,10.66,4.3,10.78,7.46,19.49,10,26.5,1.7,4.67,3.16,8.71,4.49,12.05,3.58,8.99,6.53,14.44,9.66,20.21,3.89,7.18,7.92,14.61,13.68,29.55,4.76,12.35,6.75,22.44,8.2,29.81,1.28,6.49,2.2,11.18,4.06,11.61.92.21,2-.38,2.75-.91,8.31-5.92,19.39-32.82,22.63-63.43l.04-.38c1.12-10.58,3.45-32.6-4.79-48.72-.69-1.35-1.47-2.8-2.29-4.33-3.43-6.37-7.32-13.59-7.83-19.47-.06-.73-.5-7.16,3.46-9.26,9.97-5.28,34.21,29.69,34.45,30.05,18.82,27.32,18.76,55.11,18.72,79.63v.23c-.02,7.9-.43,12.94-.9,18.77-.56,6.82-1.25,15.31-1.54,31.52-.29,16.21.15,31.45.51,41.5l-3,.11Z"/>
      <path class="cls-1" d="M66.12,113.64l-2.89-.82c5.49-19.34,6.7-32.06,7.16-41.96.44-9.38.25-21.32.08-32.86-.11-7.47-.22-14.53-.16-20.53.1-9.29.34-12.67,4.34-16,2.81-2.34,6.62-1.86,9.94,1.27,4.45,4.2,9.92,12.5,12.86,16.96l.49.75-2.5,1.65-.5-.75c-2.87-4.36-8.21-12.47-12.41-16.43-1.28-1.21-3.77-2.97-5.96-1.15-2.73,2.27-3.15,4.07-3.26,13.73-.07,5.96.04,13,.16,20.46.18,11.59.36,23.57-.08,33.05-.47,10.06-1.7,23-7.27,42.63Z"/>
      <path class="cls-1" d="M121.84,326.24c-1.3,0-2.64-.04-4.04-.14-5.23-.34-11.3-1.5-20.13-7.61-4.2-2.9-8.03-6.44-11.41-9.57-3.26-3.02-6.96-6.43-8.36-6.43h0c-1.24,0-3.24,1.99-5.37,4.1-3.32,3.29-7.87,7.8-14.41,10.12-2.53.9-14.88,3.74-24.81.13-22.59-8.22-31.7-24.41-32.7-36.81-2.49-30.98,3.21-47,8.43-54.99,3.63-5.56,7.71-10.9,17.51-14.95,9.07-3.75,19.49-3.58,21.59-3.33,6.07.71,10.04,2.21,13.24,3.42,3.81,1.44,6.1,2.31,9.57.95,1.84-.72,3.35-1.64,4.81-2.52,2.59-1.57,5.03-3.05,8.51-2.94,2.69.09,5.05,1.69,7.13,3.1.72.49,1.4.95,2.06,1.33,7.59,4.37,11.41,5.72,19.45,6.88,7.84,1.13,12.22-.75,16.08-2.41,3.35-1.44,6.52-2.81,10.78-1.3,13.35,4.73,17.72,28.39,20.04,48.48,2.61,22.65,2.2,32.86-5.33,45.1-7.15,11.62-15.59,19.41-32.63,19.41ZM77.89,299.49c2.58,0,5.69,2.88,10.4,7.23,3.31,3.06,7.05,6.53,11.08,9.31,8.24,5.69,13.82,6.77,18.63,7.08,18.36,1.2,26.59-5.94,33.92-17.85,7.06-11.49,7.43-21.3,4.9-43.19-2.04-17.72-6.14-41.77-18.06-45.99-3.14-1.11-5.43-.13-8.59,1.23-4.02,1.73-9.02,3.88-17.7,2.63-8.4-1.22-12.62-2.71-20.52-7.25-.75-.43-1.51-.95-2.25-1.45-1.83-1.24-3.72-2.52-5.54-2.58-2.59-.09-4.48,1.06-6.86,2.5-1.5.91-3.19,1.93-5.27,2.75-4.54,1.78-7.71.58-11.73-.94-3.04-1.15-6.82-2.58-12.52-3.25-2.61-.31-12.23-.13-20.1,3.13h0c-9.01,3.73-12.78,8.66-16.14,13.82-4.96,7.6-10.37,22.98-7.95,53.11.92,11.48,9.48,26.5,30.73,34.24,8.44,3.07,19.65.97,22.78-.14,5.9-2.1,10-6.16,13.3-9.42,2.8-2.77,5.01-4.97,7.48-4.97h0Z"/>
      <path class="cls-1" d="M77.68,301.84c-.39-4.56-.18-8.98,0-13.49.25-4.51.45-8.92,1.28-13.43,2.8,8.47,2.3,18.74-1.27,26.92h0Z"/>
      <path class="cls-1" d="M66.18,269.62c5.81,5.62,14.64,5.71,21.86,3.14,1.09-.38,2.14-.87,3.27-1.36-3.68,5.12-10.91,7.09-16.9,5.36-3.58-.95-7.18-3.44-8.23-7.13h0Z"/>
    </g>
  </g>
</svg>