<?xml version="1.0" encoding="UTF-8"?>
<svg id="Layer_2" data-name="Layer 2" xmlns="http://www.w3.org/2000/svg" viewBox="0 0 183.92 337.07">
  <defs>
    <style>
      .cls-1 {
        stroke-width: 0px;
      }
    </style>
  </defs>
  <g id="teeth">
    <g>
      <path class="cls-1" d="M50.54,337.07c-10.99,0-20.39-6.05-23.91-8.31C3.18,313.68.4,294.78.11,289.35c-1.11-20.63,6.59-49.7,17.16-66.87-.41-4.27-.36-11.32-.31-19.41.08-12.43.18-27.91-1.39-38.95-5.69-40-5.38-51.01-5.07-61.66l.04-1.5c.53-19.43,7.42-41.51,18.88-60.59,10.29-17.12,22.1-28.11,30.17-28.11.06,0,.12,0,.18,0,2.12.04,3.82.97,4.8,2.6,1.36,2.27,1.13,5.56-.63,9.02l-.23.45c-7.66,15.08-11.16,21.96-14.15,46.41-4.1,33.58,7.16,66.38,33.47,97.47l.43.51c2.02,2.43,3.42,3.87,6.61,2.67,7.39-2.78,10.42-10.39,13.34-17.74,1.31-3.28,2.54-6.39,4.15-9.1,6.21-10.51,12.78-16.54,19.12-22.36,7-6.42,14.23-13.06,21.07-25.95,9.28-17.47,13.48-34.45,16.56-46.85,2.77-11.17,4.44-17.91,8.35-19,4.58-1.28,6.73,2.31,7.54,3.66l.09.14c7.44,12.31,1.55,48.57-.78,57.73-5.09,20.04-9.33,29.76-13.42,39.17-3.66,8.42-7.13,16.37-11.11,31.23l-.31,1.16c-2.67,9.81-9.76,35.87-1.31,63.96,3.36,11.17,7.15,17.92,10.49,23.88,4.4,7.84,7.87,14.03,7.59,26.03-.5,20.96-9.26,37.28-25.32,47.19-.3.19-.66.41-1.06.67-5.98,3.78-21.86,13.83-35.6,9.54-7.83-2.45-13.09-7.62-17.32-11.77-2.89-2.84-5.38-5.29-7.24-5.19-2.55.14-5.28,2.87-8.45,6.03-4.47,4.45-10.03,10-18.57,12.29-2.48.67-4.94.95-7.31.95ZM34.59,213.13c-4.34,0-7.95,1.75-10.77,5.22-12.04,14.79-21.92,48.56-20.71,70.83.27,5.08,2.9,22.75,25.16,37.05,4,2.57,16.15,10.38,28.82,6.98,7.77-2.09,13.02-7.32,17.23-11.52,3.6-3.59,6.71-6.69,10.4-6.9,3.19-.16,5.98,2.57,9.51,6.04,4,3.93,8.97,8.82,16.11,11.05,12.41,3.88,27.44-5.63,33.1-9.21.42-.26.78-.49,1.09-.68,19.15-11.82,23.56-30.84,23.9-44.71.27-11.17-2.87-16.76-7.2-24.49-3.06-5.46-6.83-12.18-10.15-22.56-3.16-4.03-4.72-4.77-6.56-5.36-4.73-1.52-8.91-.01-13.75,1.74-5.29,1.91-11.28,4.07-18.83,2.18-2.76-.69-5.43-1.79-8.67-3.58-5.34-2.94-9.19-7.87-12.27-11.83-2.58-3.3-5.01-6.42-6.96-6.42-.01,0-.03,0-.04,0-2.23.05-4.96,2.27-8.12,4.84-4.83,3.94-10.85,8.84-18.68,8.51-5.32-.22-9.88-2.44-13.91-4.4-2.84-1.38-5.29-2.57-7.34-2.74-.46-.04-.9-.05-1.34-.05ZM84.03,203.97c3.4,0,6.02,3.35,9.31,7.58,3.07,3.94,6.55,8.4,11.36,11.05,3.05,1.68,5.42,2.66,7.95,3.29,6.66,1.67,11.96-.25,17.09-2.1,4.91-1.77,9.98-3.61,15.69-1.77,1.37.44,2.56.98,3.86,1.99-6.81-27.23-.13-51.78,2.47-61.31l.31-1.15c4.05-15.08,7.55-23.13,11.26-31.65,4.05-9.3,8.23-18.91,13.27-38.71,2.82-11.11,7.44-44.97,1.12-55.44l-.09-.15c-.98-1.63-1.97-2.92-4.16-2.31-2.23.62-4.09,8.13-6.24,16.83-3.11,12.55-7.37,29.73-16.82,47.53-7.08,13.34-14.51,20.16-21.69,26.75-6.47,5.94-12.58,11.54-18.57,21.68-1.49,2.52-2.68,5.52-3.94,8.69-3.02,7.59-6.44,16.18-15.07,19.43-5.35,2.01-8.13-1.34-9.97-3.56l-.41-.49c-26.87-31.76-38.36-65.33-34.16-99.77,3.05-24.97,6.86-32.46,14.45-47.4l.23-.45c1.25-2.45,1.53-4.8.73-6.12-.44-.73-1.21-1.12-2.29-1.14-.04,0-.09,0-.13,0-6.81,0-18.13,10.92-27.59,26.66-11.21,18.65-17.94,40.2-18.46,59.13l-.04,1.5c-.3,10.52-.62,21.4,5.04,61.15,1.6,11.26,1.5,26.86,1.42,39.39-.04,5.89-.07,11.23.07,15.27.48-.66.97-1.3,1.47-1.9,2.59-3.18,7.23-6.85,14.66-6.26,2.64.21,5.45,1.58,8.44,3.03,3.77,1.83,8.03,3.91,12.73,4.1,6.69.28,11.99-4.03,16.66-7.84,3.59-2.92,6.69-5.44,9.95-5.52.04,0,.08,0,.11,0Z"/>
      <path class="cls-1" d="M55.57,122.33l-2.96-.48c1.61-10.02,3.27-20.38,9.99-34.72,4.01-8.56,7.22-14.47,10.06-19.68,3.39-6.24,6.07-11.17,8.79-18.18,1.36-3.49,2.68-7.17,3.96-10.72,5.8-16.13,11.28-31.36,21.53-36.8,2.07-1.1,6.1-2.69,9.88-1.06,4.77,2.05,6.11,7.81,6.41,9.53,4.46,25.72.91,52.53.69,54.16-1.01,22.32.07,28.44,9.56,54.4l-2.82,1.03c-9.59-26.21-10.77-32.97-9.74-55.64v-.15c.05-.27,3.85-27.38-.65-53.3-.48-2.76-1.95-6.13-4.64-7.28-2.64-1.13-5.7.11-7.29.96-9.23,4.89-14.76,20.28-20.12,35.16-1.28,3.57-2.61,7.26-3.98,10.79-2.79,7.19-5.65,12.44-8.95,18.52-2.81,5.18-6,11.04-9.97,19.52-6.54,13.97-8.17,24.11-9.75,33.93Z"/>
      <path class="cls-1" d="M85.46,316.67c-2.47-8.37-2.61-17.39-.23-25.8,1.12,4.28,1.27,8.54,1.28,12.89.12,4.35-.02,8.61-1.05,12.91h0Z"/>
      <path class="cls-1" d="M101.63,285.41c-7.18,9.14-22.54,9.74-31.17,2.34,10.35,3.16,21.56,2.96,31.17-2.34h0Z"/>
    </g>
  </g>
</svg>