<?xml version="1.0" encoding="UTF-8"?>
<svg id="Layer_2" data-name="Layer 2" xmlns="http://www.w3.org/2000/svg" viewBox="0 0 97.66 326.91">
  <defs>
    <style>
      .cls-1 {
        stroke-width: 0px;
      }
    </style>
  </defs>
  <g id="teeth">
    <g>
      <path class="cls-1" d="M53.5,114.84c-.12,0-.25,0-.37,0-5.87-.13-11.35-2.26-17.77-6.93-4.82-3.5-17.06-13.87-26.7-34.55C3.99,63.36-4.69,44.73,3.16,31.68c2.57-4.27,4.41-5.52,8.08-8,2.62-1.77,6.21-4.2,11.9-8.91l1.62-1.34C34.14,5.65,39.3,1.37,48.4.19h0c4.49-.58,7.95.32,10.72,1.05,5.66,1.48,7.84,3.32,12.6,7.34,1.98,1.67,4.45,3.76,7.85,6.41,4.2,3.27,8.83,6.17,11.6,7.91,1.17.73,2.01,1.26,2.45,1.58,10.22,7.48-1.49,46.75-7.68,58.1-7.01,12.87-17.58,32.26-32.45,32.26ZM48.78,3.16h0c-8.23,1.07-13.16,5.16-22.1,12.58l-1.62,1.35c-5.81,4.81-9.47,7.28-12.14,9.09-3.61,2.44-4.96,3.36-7.19,7.06-7.03,11.68,1.21,29.37,5.64,38.87,9.6,20.6,22.13,30.76,25.74,33.39,5.89,4.28,10.85,6.24,16.07,6.35,13.22.29,23.4-18.35,30.12-30.69,6.42-11.78,16.26-48.59,8.54-54.25-.35-.26-1.2-.79-2.27-1.46-2.82-1.77-7.53-4.72-11.85-8.08-3.46-2.69-5.95-4.79-7.95-6.49-4.67-3.95-6.42-5.42-11.42-6.73-2.66-.7-5.67-1.49-9.58-.98Z"/>
      <path class="cls-1" d="M44.69,326.91c-.21,0-.43-.01-.64-.03-4.83-.52-7.82-4.67-7.61-10.57.58-13.29-.18-29.35-2.61-55.46-2.08-22.41-5.45-36.5-8.71-50.13-2.82-11.78-5.73-23.96-7.66-41.17-1.99-17.81-5.33-47.61-1.47-83.91l2.98.32c-3.83,35.97-.51,65.57,1.47,83.25,1.91,17.03,4.67,28.58,7.59,40.81,3.28,13.73,6.68,27.93,8.78,50.55,2.44,26.25,3.2,42.44,2.62,55.86-.15,4.32,1.69,7.11,4.94,7.46,2.62.27,5.96-3.08,7.46-5.26,16.47-24.04,17.59-65.84,17.6-66.26,1.59-47.79,3.24-63.63,4.69-77.61.88-8.46,1.72-16.46,2.44-30.55,1.16-22.44.87-34.62.56-47.51l-.1-4.33,3-.07.1,4.32c.3,12.38.6,25.19-.56,47.74-.73,14.17-1.57,22.2-2.45,30.71-1.45,13.93-3.1,29.72-4.68,77.38-.04,1.73-1.15,43.09-18.12,67.87-.19.28-4.57,6.58-9.61,6.58Z"/>
    </g>
  </g>
</svg>