<?xml version="1.0" encoding="UTF-8"?>
<svg id="Layer_2" data-name="Layer 2" xmlns="http://www.w3.org/2000/svg" viewBox="0 0 158.88 294.42">
  <defs>
    <style>
      .cls-1 {
        stroke-width: 0px;
      }
    </style>
  </defs>
  <g id="teeth">
    <g>
      <path class="cls-1" d="M80.41,110.77c-4.85,0-7.08-1.05-9.85-2.35-2.53-1.19-5.68-2.67-12.22-4-7.24-1.48-11.97-1-16.14-.57-4.32.44-8.39.86-13.96-1.06C10.52,96.69,1.96,65.25,1.11,56.9-.44,41.53-2.38,22.4,10.71,9.98,23.85-2.49,43.3.11,45.47.45c9.25,1.44,13.88,4.41,17.97,7.03,3.95,2.54,7.37,4.72,14.4,5.04h0c7.75.33,12.83-2.07,18.19-4.62,5.31-2.53,10.81-5.15,19.19-5.43,16.8-.56,34.35,10.93,40.87,26.75,6.45,15.65.42,31.51-5.41,46.85-3.99,10.49-12.28,32.32-26.15,33.45-4.55.37-7.68-1-10.7-2.33-3.25-1.42-6.31-2.77-11.43-2.35-4.68.38-7.2,1.62-9.87,2.93-2.82,1.39-5.74,2.83-11.01,2.99-.39.01-.76.02-1.12.02ZM48.97,100.41c2.8,0,6.03.26,9.97,1.07,6.89,1.41,10.21,2.97,12.89,4.23,2.92,1.37,4.69,2.2,9.61,2.05,4.62-.14,7.01-1.32,9.78-2.68,2.67-1.31,5.69-2.8,10.95-3.23,5.88-.48,9.6,1.15,12.88,2.59,2.93,1.28,5.46,2.39,9.26,2.09,11.98-.97,19.82-21.61,23.59-31.52,5.88-15.47,11.43-30.09,5.44-44.64-5.92-14.37-21.63-24.92-36.87-24.92-.37,0-.74,0-1.12.02-7.76.26-12.97,2.74-18.01,5.14-5.46,2.6-11.11,5.29-19.62,4.91-7.84-.35-11.75-2.85-15.89-5.51-4.03-2.58-8.19-5.25-16.81-6.59-.81-.13-19.93-2.94-32.24,8.74C.76,23.56,2.61,41.88,4.1,56.6c1.03,10.23,10.03,38.16,25.12,43.35,4.95,1.7,8.36,1.35,12.68.91,2.14-.22,4.41-.45,7.07-.45Z"/>
      <path class="cls-1" d="M79.41,14.2c.39,7.17.3,14.2.14,21.33-.19,7.12-.28,14.18-.89,21.32-1.65-7.01-2.15-14.19-2.09-21.37.12-7.17.69-14.39,2.84-21.28h0Z"/>
      <path class="cls-1" d="M95.42,64.49c-8.95-7.05-20.96-9.17-30.96-2.9,7.45-10.46,25.06-7.93,30.96,2.9h0Z"/>
      <path class="cls-1" d="M65.82,294.42c-.2,0-.38-.01-.53-.03-7.08-.86-22.53-12.36-33.11-31.73-10.04-18.39-16.94-41.26-17.95-93.07-.08-3.97-.2-7.98-.32-11.86-.55-18.1-1.13-36.82,2.1-65.21l2.98.34c-3.2,28.17-2.63,46.78-2.08,64.78.12,3.89.24,7.9.32,11.89,1,51.2,7.75,73.68,17.58,91.69,10.3,18.87,25.33,29.52,30.84,30.19.84.1,3.7-.46,5.09-2.33,1.75-2.35.76-7.41-2.73-13.89l-.11-.21c-5.43-10.21-6.77-16.61-10.12-39.54-1.7-11.59-3.68-46.04,7.39-65.97,1.29-2.32,6.09-9.73,13.81-7.56,2.3.65,5.9,4.43,7.97,9.64,2.25,5.69,4.69,14.02,7.05,22.08.61,2.08,1.21,4.15,1.82,6.18.45,1.53.81,3.02,1.22,4.75,1.62,6.81,3.83,16.14,14.92,38.92.16.3,17.63,33.81,26.22,39.85,1.78,1.26,6.95,2.77,9.09,2.11,2.92-.9,6.6-3.36,4.95-14.3-.42-2.8-1.47-6.22-2.93-10.96-4.16-13.55-11.12-36.22-14.58-80.9-1.15-14.79-2.68-47.68-1.18-77.15l3,.15c-1.5,29.31.03,62.04,1.17,76.76,3.44,44.35,10.34,66.83,14.46,80.25,1.49,4.86,2.57,8.37,3.03,11.39.55,3.65,2.23,14.76-7.03,17.62-3.44,1.06-9.62-1.06-11.7-2.52-9.19-6.46-26.44-39.55-27.18-40.96-11.25-23.12-13.51-32.63-15.16-39.58-.4-1.69-.75-3.14-1.18-4.59-.6-2.03-1.21-4.11-1.82-6.19-2.34-8-4.76-16.26-6.96-21.82-1.96-4.95-5.04-7.59-5.99-7.86-5.45-1.53-9.07,3.77-10.38,6.13-10.67,19.2-8.71,52.77-7.05,64.08,3.3,22.51,4.6,28.77,9.81,38.56l.1.19c4.19,7.77,5.05,13.68,2.49,17.1-1.95,2.62-5.44,3.54-7.32,3.54Z"/>
    </g>
  </g>
</svg>