<?xml version="1.0" encoding="UTF-8"?>
<svg id="Layer_2" data-name="Layer 2" xmlns="http://www.w3.org/2000/svg" viewBox="0 0 108.08 322.48">
  <defs>
    <style>
      .cls-1 {
        stroke-width: 0px;
      }
    </style>
  </defs>
  <g id="teeth">
    <g>
      <path class="cls-1" d="M13.71,226.39c-2.75-16.3-3.1-39.72-1-65.96,1.29-16.08,3.25-27.86,5.14-39.25,2.01-12.12,3.91-23.56,5.06-39.74,1.59-22.32.04-45.44-4.6-68.71l-.02-.12c-.32-2.84-.37-7.9,2.91-9.85,3.14-1.87,7.36.27,8.59,1.17,26.11,19.07,42.14,75.85,43.4,80.84h.04c8.48,34.66,16.32,74.48,16.34,130.72h-3c-.02-55.91-7.83-95.53-16.26-130.01-.15-.57-15.96-59.89-42.29-79.12-.93-.68-3.76-1.93-5.28-1.02-1.55.92-1.76,4.27-1.48,6.88,4.68,23.51,6.24,46.88,4.63,69.45-1.16,16.32-3.07,27.83-5.1,40.02-1.88,11.33-3.83,23.04-5.11,39-2.08,26-1.74,49.16.97,65.22l-2.96.5Z"/>
      <path class="cls-1" d="M56.48,40.47l-2.98-.3c2.38-23.6-1.46-36.12-4.81-37.15-.48-.15-2.19.61-3.54,3.39-1.7,3.71-2.36,5.49-3.96,10.02l-2.83-1c1.64-4.62,2.31-6.44,4.08-10.31,1.8-3.68,4.73-5.71,7.14-4.97,6.37,1.96,9.14,18.16,6.91,40.32Z"/>
      <path class="cls-1" d="M54.06,322.48c-8.1,0-13.58-4.74-21.17-11.31-.76-.65-1.54-1.33-2.35-2.02-4.29-3.68-8.42-5.7-12.42-7.65-5.1-2.49-9.92-4.85-13.96-10.24-10.1-13.47.93-43.98,4.54-53.01,12.18-30.37,26.84-46.33,43.59-47.43l.1,1.5-.1-1.5c22.13-1.45,33.96,16.79,43.45,36.72.23.48,20.52,50.14,8.57,63.81-3.41,3.9-6.73,5.76-11.76,8.58-2.79,1.57-6.27,3.52-10.69,6.34-5.06,3.23-8.8,6.22-11.81,8.63-5.7,4.57-9.47,7.58-16,7.58ZM54.72,193.74c-.73,0-1.48.02-2.23.07-15.5,1.02-29.3,16.34-41,45.55-7.15,17.85-12.21,40.38-4.93,50.09,3.61,4.82,7.91,6.92,12.88,9.34,3.97,1.94,8.47,4.14,13.05,8.07.81.7,1.6,1.38,2.36,2.03,7.36,6.37,12.23,10.58,19.21,10.58,5.48,0,8.73-2.61,14.12-6.92,3.06-2.45,6.87-5.5,12.07-8.82,4.49-2.87,8.01-4.84,10.84-6.43,4.92-2.76,7.89-4.43,10.97-7.94,9.28-10.61-5.78-53.73-9.02-60.54-8.12-17.05-18.42-35.09-38.31-35.09Z"/>
    </g>
  </g>
</svg>