<?xml version="1.0" encoding="UTF-8"?>
<svg id="Layer_2" data-name="Layer 2" xmlns="http://www.w3.org/2000/svg" viewBox="0 0 95.36 329.36">
  <defs>
    <style>
      .cls-1 {
        stroke-width: 0px;
      }
    </style>
  </defs>
  <g id="teeth">
    <g>
      <path class="cls-1" d="M54.92,153.06c-3.59,0-8.11-.98-14.86-6.03-11.63-8.7-18.78-21.68-28.3-51.42-.54-1.69-1.07-3.34-1.6-4.97C2.23,66.08-4.03,46.68,3.15,25.56,7.14,13.84,15.01,9.34,18.38,7.42h0C34.1-1.56,54.41-.14,63.08.47c.96.07,1.75.12,2.34.15,13.43.57,21.69,4.14,24.55,10.6,13.43,30.33-1.68,107.29-8.03,120.02-7.55,15.13-14.06,20.82-24.88,21.72-.68.06-1.39.1-2.14.1ZM19.87,10.02c-3.33,1.9-10.25,5.86-13.87,16.5-6.86,20.18-1.04,38.22,7.02,63.19.53,1.63,1.06,3.29,1.6,4.98,9.31,29.06,16.18,41.66,27.24,49.93,7.93,5.93,12.15,5.58,14.95,5.34,9.7-.81,15.37-5.88,22.45-20.07,6.03-12.1,20.79-88.51,7.97-117.47-2.36-5.33-9.74-8.3-21.94-8.82-.62-.03-1.43-.08-2.43-.15-8.4-.59-28.06-1.96-43,6.57h0Z"/>
      <path class="cls-1" d="M47.66,329.36c-4.48,0-6.54-2.12-7.85-8.08l-.02-.1c-2.87-19.11-3.49-36.21-4.04-51.29-.39-10.73-.75-20.86-1.91-29.71-2.29-17.54-4.73-26.68-7.32-36.35-2.04-7.62-4.14-15.51-6.15-27.81-5.03-30.76-4.68-46.72-4.23-66.94l.02-1.12,3,.07-.02,1.12c-.44,20.06-.79,35.9,4.19,66.39,1.99,12.16,4.07,19.97,6.09,27.52,2.5,9.34,5.08,19,7.39,36.74,1.17,8.99,1.54,19.19,1.93,29.99.54,14.99,1.16,31.98,4,50.9,1.27,5.7,2.9,5.69,4.97,5.68,2.18,0,4.72-2.09,6.81-5.55,13.05-21.68,19.63-84.84,19.69-85.47,2.72-21.91,4.6-60.3,5.14-105.34l3,.04c-.55,45.15-2.43,83.66-5.16,105.64-.26,2.59-6.71,64.42-20.1,86.68-2.71,4.5-6.04,6.99-9.36,7.01h-.06Z"/>
    </g>
  </g>
</svg>