<?xml version="1.0" encoding="UTF-8"?>
<svg id="Layer_2" data-name="Layer 2" xmlns="http://www.w3.org/2000/svg" viewBox="0 0 161.09 324.38">
  <defs>
    <style>
      .cls-1 {
        stroke-width: 0px;
      }
    </style>
  </defs>
  <g id="teeth">
    <g>
      <path class="cls-1" d="M116.63,121.07c-6.78,0-11.57-1.49-16.92-3.16-4.27-1.33-9.11-2.84-15.79-3.8-11.22-1.61-19.75-.66-27.27.18-8.59.96-16.01,1.79-25.08-1.13-18.19-5.84-23.82-21.01-26.93-35.08-.24-1.08-.5-2.22-.77-3.4-3.09-13.49-7.32-31.97.91-48.16C10.83,14.61,22.19,6.28,37.62,2.43,53.82-1.6,69.24.37,75.12,1.4c13.07,2.3,18.65,7.55,23.13,11.77,3.41,3.21,6.1,5.74,11.2,6.28,3.61.38,5.99.05,8.51-.31,3.66-.52,7.45-1.05,14.62.89,14.42,3.9,25.49,17.44,27.55,33.68,3.41,26.88-2.32,46.25-17.01,57.59-10.22,7.88-18.65,9.2-20.23,9.39-2.28.27-4.35.38-6.26.38ZM71.74,110.24c3.83,0,7.99.24,12.61.91,6.91.99,11.87,2.54,16.25,3.9,6.81,2.12,12.19,3.8,21.94,2.66.89-.1,8.95-1.23,18.74-8.78,13.8-10.64,19.14-29.09,15.87-54.83-1.88-14.81-12.3-27.63-25.35-31.16-6.58-1.78-9.9-1.31-13.42-.82-2.59.37-5.27.74-9.25.32-6.1-.65-9.42-3.77-12.94-7.08-4.41-4.15-9.41-8.85-21.6-11C55.78,1.04,20.47,2.27,7.46,27.89c-7.73,15.22-3.64,33.09-.66,46.13.27,1.19.53,2.33.77,3.42,2.92,13.23,8.17,27.49,24.92,32.87,8.46,2.72,15.58,1.92,23.83,1,4.63-.52,9.64-1.08,15.42-1.08Z"/>
      <path class="cls-1" d="M81.37,324.38c-.62,0-1.26-.08-1.92-.24-7.48-1.8-13.94-13.52-17.42-19.81l-.5-.9c-19.1-34.41-21.77-83.53-23.21-109.93l-.15-2.75c-1.44-25.92-.83-49.85,1.97-77.58l2.99.3c-2.78,27.57-3.38,51.35-1.95,77.11l.15,2.75c1.43,26.15,4.08,74.83,22.84,108.63l.5.9c3.02,5.47,9.3,16.85,15.49,18.34,1.41.34,2.64.11,3.55-.67,1.01-.86,1.51-2.31,1.37-3.97-.78-14.06-.18-26.04.83-42.71,1.85-30.61,8.5-62.82,19.77-95.75l.72-2.1c6.49-19,12.1-35.41,28.57-62.71l2.57,1.55c-16.3,27.02-21.86,43.29-28.3,62.13l-.72,2.1c-11.18,32.67-17.78,64.62-19.61,94.96-1,16.57-1.6,28.46-.83,42.32.21,2.59-.67,4.95-2.41,6.45-1.19,1.02-2.67,1.54-4.28,1.54Z"/>
      <path class="cls-1" d="M62.92,306.62c-3.53,0-8.53-.95-12.77-3.71-2.76-1.8-10.15-7.44-19.07-20.88-14.98-22.58-18.49-60.77-19.3-76.14-1.63-30.97-2.92-55.43,2.77-105.22l2.98.34c-5.67,49.54-4.38,73.89-2.76,104.72.8,15.13,4.23,52.68,18.8,74.64,8.61,12.98,15.6,18.33,18.21,20.02,4.48,2.92,9.81,3.37,12.25,3.18l.23,2.99c-.42.03-.87.05-1.35.05Z"/>
      <path class="cls-1" d="M136.13,300.04c-.28,0-.57-.01-.86-.04-3.71-.33-5.58-4.23-6.06-5.42-4.73-11.58-8.59-20.31-11.74-27.32-2.72-6.04-5.4-11.2-8-16.2-3.35-6.44-6.81-13.09-10.29-21.58-3.18-7.75-4.28-11.43-4.34-14.58l3-.06c.06,2.74,1.09,6.14,4.12,13.5,3.43,8.36,6.71,14.66,10.18,21.33,2.62,5.03,5.32,10.23,8.07,16.35,3.16,7.03,7.03,15.79,11.78,27.41.64,1.56,1.95,3.43,3.55,3.57,2.14.19,3.27-.51,4.02-2.5,1.05-3.23,2.31-8.81,2.14-16.67-.31-14.71-3.09-26.24-4.75-33.13-.38-1.56-.7-2.91-.91-3.95-9.04-45.08-7.12-85.59-4.85-100.71,1.31-8.72,2.86-14.38,5.21-22.95.46-1.67.94-3.44,1.46-5.36l2.9.78c-.52,1.93-1,3.7-1.46,5.37-2.32,8.47-3.85,14.06-5.13,22.61-2.25,14.94-4.13,55,4.82,99.67.2.98.52,2.31.89,3.84,1.69,7.01,4.52,18.74,4.84,33.77.17,8.28-1.16,14.22-2.31,17.73-1.16,3.02-3.25,4.52-6.25,4.52Z"/>
      <path class="cls-1" d="M106.18,20.51c-1.58,8.34-1.86,16.9-.47,25.27.62,3.93,1.83,8.08,2.94,11.9,0,0-3.28-2.13-3.28-2.13-12.61-8.17-28.12-10.8-42.94-9,12.94-4.02,27.45-2.59,39.51,3.58,1.73.91,3.41,1.9,5.04,2.99l-2.21,1.62c-3.12-11.17-2.81-23.4,1.4-34.23h0Z"/>
    </g>
  </g>
</svg>