<?xml version="1.0" encoding="UTF-8"?>
<svg id="Layer_2" data-name="Layer 2" xmlns="http://www.w3.org/2000/svg" viewBox="0 0 158.88 294.42">
  <defs>
    <style>
      .cls-1 {
        stroke-width: 0px;
      }
    </style>
  </defs>
  <g id="teeth">
    <g>
      <path class="cls-1" d="M78.47,110.77c-.36,0-.73,0-1.12-.02-5.27-.16-8.19-1.6-11.01-2.99-2.67-1.31-5.18-2.55-9.87-2.93-5.12-.42-8.19.93-11.43,2.35-3.02,1.33-6.15,2.7-10.7,2.33-13.87-1.13-22.17-22.96-26.15-33.45C2.36,60.73-3.67,44.87,2.78,29.22,9.3,13.39,26.85,1.92,43.65,2.46c8.39.29,13.88,2.9,19.19,5.43,5.37,2.55,10.44,4.97,18.19,4.62h0c7.04-.31,10.45-2.5,14.4-5.04,4.09-2.62,8.72-5.59,17.97-7.03,2.18-.34,21.62-2.94,34.76,9.53,13.08,12.42,11.15,31.55,9.6,46.92-.84,8.35-9.41,39.79-27.13,45.89-5.57,1.92-9.64,1.5-13.96,1.06-4.17-.43-8.9-.91-16.14.57-6.54,1.34-9.69,2.82-12.22,4-2.77,1.3-5,2.35-9.85,2.35ZM54.67,101.76c.65,0,1.34.03,2.05.09,5.25.43,8.28,1.92,10.95,3.23,2.77,1.36,5.16,2.54,9.78,2.68,4.93.15,6.69-.68,9.6-2.05,2.68-1.26,6-2.82,12.89-4.23,7.69-1.57,12.66-1.06,17.05-.61,4.32.44,7.73.79,12.68-.91,15.1-5.2,24.09-33.12,25.12-43.35,1.49-14.72,3.34-33.04-8.68-44.44C133.8.48,114.68,3.29,113.87,3.42c-8.62,1.34-12.79,4.01-16.81,6.59-4.14,2.65-8.05,5.16-15.89,5.51h0c-8.51.38-14.15-2.31-19.62-4.91-5.04-2.4-10.25-4.88-18.01-5.14-15.61-.5-31.93,10.17-37.99,24.9-5.99,14.55-.44,29.17,5.44,44.64,3.77,9.92,11.61,30.55,23.59,31.52,3.79.31,6.33-.8,9.26-2.09,2.88-1.26,6.11-2.68,10.83-2.68Z"/>
      <path class="cls-1" d="M79.46,14.2c2.15,6.89,2.72,14.11,2.84,21.28.06,7.17-.45,14.36-2.09,21.37-.61-7.13-.7-14.19-.89-21.32-.16-7.13-.25-14.16.14-21.33h0Z"/>
      <path class="cls-1" d="M63.46,64.49c5.9-10.83,23.51-13.35,30.96-2.9-10.01-6.28-22.02-4.15-30.96,2.9h0Z"/>
      <path class="cls-1" d="M93.06,294.42c-1.88,0-5.37-.92-7.32-3.54-2.55-3.42-1.69-9.34,2.49-17.1l.1-.19c5.21-9.79,6.51-16.05,9.81-38.56,1.66-11.31,3.62-44.88-7.05-64.08-1.31-2.35-4.93-7.65-10.38-6.13-.95.27-4.03,2.91-5.99,7.86-2.2,5.56-4.62,13.82-6.96,21.82-.61,2.08-1.22,4.16-1.82,6.19-.43,1.45-.78,2.9-1.18,4.59-1.65,6.95-3.91,16.46-15.14,39.54-.75,1.44-18,34.54-27.19,41-2.08,1.46-8.26,3.58-11.7,2.52-9.26-2.86-7.58-13.97-7.03-17.62.46-3.02,1.54-6.53,3.03-11.39,4.12-13.43,11.02-35.9,14.46-80.25,1.14-14.72,2.67-47.45,1.17-76.76l3-.15c1.51,29.46-.03,62.36-1.18,77.15-3.46,44.69-10.42,67.36-14.58,80.9-1.45,4.73-2.5,8.16-2.93,10.96-1.66,10.94,2.03,13.4,4.95,14.3,2.14.67,7.3-.85,9.09-2.11,8.59-6.04,26.06-39.55,26.24-39.89,11.07-22.75,13.29-32.08,14.9-38.89.41-1.73.76-3.22,1.22-4.75.6-2.03,1.21-4.1,1.82-6.18,2.36-8.06,4.8-16.39,7.05-22.08,2.06-5.21,5.67-8.99,7.97-9.64,7.72-2.17,12.52,5.24,13.81,7.56,11.07,19.93,9.09,54.38,7.39,65.97-3.36,22.93-4.7,29.32-10.12,39.53l-.11.21c-3.49,6.47-4.48,11.53-2.73,13.89,1.4,1.87,4.25,2.43,5.09,2.33,5.52-.67,20.54-11.33,30.84-30.19,9.83-18,16.58-40.49,17.58-91.69.08-3.99.2-8.01.32-11.89.55-17.99,1.12-36.6-2.08-64.77l2.98-.34c3.23,28.39,2.65,47.1,2.1,65.2-.12,3.88-.24,7.89-.32,11.86-1.01,51.81-7.9,74.68-17.95,93.07-10.58,19.37-26.03,30.88-33.11,31.73-.16.02-.34.03-.53.03Z"/>
    </g>
  </g>
</svg>