<?xml version="1.0" encoding="UTF-8"?>
<svg id="Layer_2" data-name="Layer 2" xmlns="http://www.w3.org/2000/svg" viewBox="0 0 161.09 324.38">
  <defs>
    <style>
      .cls-1 {
        stroke-width: 0px;
      }
    </style>
  </defs>
  <g id="teeth">
    <g>
      <path class="cls-1" d="M44.46,121.07c-1.91,0-3.98-.12-6.26-.38-1.58-.18-10.01-1.5-20.23-9.39C3.27,99.96-2.45,80.59.96,53.71c2.06-16.24,13.13-29.77,27.55-33.68,7.17-1.94,10.96-1.41,14.63-.89,2.52.36,4.91.69,8.51.31,5.1-.54,7.79-3.07,11.2-6.28,4.48-4.22,10.06-9.46,23.13-11.77l.26,1.48-.26-1.48c5.88-1.04,21.3-3.01,37.5,1.03,15.43,3.85,26.78,12.18,32.83,24.1,8.22,16.19,3.99,34.67.91,48.16-.27,1.18-.53,2.31-.77,3.4-3.11,14.07-8.73,29.23-26.93,35.08-9.07,2.91-16.49,2.09-25.08,1.13-7.53-.84-16.06-1.79-27.27-.18-6.67.96-11.51,2.47-15.78,3.8-5.36,1.67-10.14,3.16-16.92,3.16ZM37.64,21.66c-2.2,0-4.8.31-8.35,1.27-13.05,3.53-23.48,16.35-25.36,31.16-3.26,25.75,2.07,44.19,15.87,54.83,9.8,7.56,17.86,8.68,18.75,8.78,9.75,1.14,15.13-.54,21.94-2.66,4.38-1.36,9.34-2.91,16.25-3.9,11.59-1.67,20.33-.69,28.03.17,8.25.92,15.37,1.71,23.83-1,16.75-5.38,21.99-19.63,24.92-32.87.24-1.09.5-2.23.77-3.42,2.99-13.04,7.07-30.91-.66-46.13C140.63,2.27,105.31,1.04,86.49,4.36c-12.19,2.15-17.19,6.85-21.6,11-3.51,3.31-6.83,6.43-12.94,7.08-3.97.42-6.66.05-9.25-.32-1.62-.23-3.2-.45-5.07-.45Z"/>
      <path class="cls-1" d="M79.72,324.38c-1.62,0-3.09-.53-4.28-1.54-1.75-1.5-2.63-3.86-2.41-6.49.76-13.82.17-25.72-.83-42.28-1.83-30.34-8.43-62.28-19.61-94.96l-.72-2.1c-6.44-18.84-12-35.11-28.3-62.13l2.57-1.55c16.46,27.3,22.07,43.71,28.57,62.71l.72,2.1c11.27,32.93,17.92,65.14,19.77,95.75,1.01,16.67,1.61,28.65.83,42.67-.14,1.7.36,3.14,1.37,4.01.91.78,2.14,1.01,3.55.67,6.19-1.49,12.47-12.87,15.49-18.34l.5-.91c18.76-33.81,21.42-82.49,22.84-108.64l.15-2.75c1.43-25.76.82-49.54-1.95-77.11l2.98-.3c2.79,27.73,3.4,51.66,1.97,77.58l-.15,2.74c-1.44,26.39-4.12,75.52-23.21,109.93l-.5.9c-3.47,6.29-9.94,18.01-17.41,19.81-.65.16-1.3.24-1.92.24Z"/>
      <path class="cls-1" d="M98.17,306.62c-.48,0-.93-.02-1.35-.05l.23-2.99c2.44.19,7.77-.26,12.25-3.18,2.61-1.7,9.6-7.05,18.21-20.02,14.57-21.96,18-59.51,18.8-74.64,1.62-30.83,2.91-55.18-2.76-104.72l2.98-.34c5.7,49.79,4.41,74.25,2.77,105.22-.81,15.37-4.31,53.56-19.3,76.14-8.92,13.44-16.31,19.08-19.07,20.88-4.24,2.76-9.24,3.71-12.77,3.71Z"/>
      <path class="cls-1" d="M24.96,300.04c-3,0-5.09-1.5-6.23-4.46-1.18-3.59-2.51-9.52-2.34-17.8.31-15.04,3.14-26.77,4.84-33.77.37-1.53.69-2.86.89-3.84,8.95-44.67,7.07-84.73,4.82-99.67-1.28-8.55-2.82-14.14-5.13-22.6-.46-1.67-.94-3.45-1.46-5.37l2.9-.78c.52,1.92,1,3.7,1.46,5.36,2.35,8.57,3.9,14.23,5.21,22.95,2.27,15.12,4.19,55.63-4.85,100.71-.21,1.04-.53,2.39-.91,3.95-1.66,6.89-4.45,18.42-4.75,33.13-.16,7.86,1.09,13.44,2.17,16.74.74,1.92,1.86,2.62,4,2.43,1.6-.14,2.91-2.01,3.55-3.57,4.74-11.61,8.62-20.37,11.78-27.41,2.75-6.12,5.46-11.32,8.07-16.35,3.47-6.67,6.75-12.97,10.18-21.33,3.02-7.36,4.06-10.77,4.12-13.5l3,.06c-.06,3.15-1.16,6.83-4.34,14.58-3.48,8.48-6.95,15.14-10.29,21.57-2.6,4.99-5.28,10.16-8,16.2-3.15,7.02-7.01,15.75-11.74,27.32-.49,1.19-2.36,5.1-6.06,5.42-.3.03-.58.04-.86.04Z"/>
      <path class="cls-1" d="M54.91,20.51c4.21,10.83,4.53,23.06,1.4,34.23l-2.21-1.62c1.62-1.09,3.31-2.08,5.04-2.99,12.05-6.16,26.57-7.6,39.51-3.58-14.81-1.8-30.33.83-42.94,9,0,0-3.28,2.13-3.28,2.13,1.12-3.83,2.32-7.97,2.94-11.9,1.39-8.37,1.11-16.92-.47-25.27h0Z"/>
    </g>
  </g>
</svg>