<?xml version="1.0" encoding="UTF-8"?>
<svg id="Layer_2" data-name="Layer 2" xmlns="http://www.w3.org/2000/svg" viewBox="0 0 109.71 325.34">
  <defs>
    <style>
      .cls-1 {
        stroke-width: 0px;
      }
    </style>
  </defs>
  <g id="teeth">
    <g>
      <path class="cls-1" d="M18.69,229.32c-.68-8.03-.86-24.62-1.03-39.26l-.04-3.12c-.04-3.57-.1-7.01-.16-10.4-.22-12.74-.43-24.77.45-39.18,2.03-33.4,5.03-46.87,7.23-56.7.59-2.63,1.09-4.91,1.49-7.2.41-2.07,10.19-50.13,31.41-69.51,1.94-1.77,8.49-5.76,12.5-3.03,1.92,1.31,2.82,4,2.58,7.78v.1c-1.73,13.57-1.93,32-.58,51.89,1.25,18.37,4.12,32.29,6.64,44.57,1.26,6.11,2.44,11.88,3.28,17.52,4.21,28.27,4.24,51.41,2.22,102.42l-3-.12c2.02-50.8,1.99-73.83-2.19-101.86-.83-5.56-2.01-11.29-3.26-17.35-2.55-12.37-5.43-26.4-6.7-44.97-1.37-20.06-1.16-38.67.58-52.42.15-2.56-.32-4.41-1.29-5.07-2.01-1.37-6.89,1.05-8.78,2.77-20.49,18.71-30.39,67.36-30.49,67.84-.4,2.32-.92,4.63-1.51,7.3-2.17,9.73-5.14,23.07-7.16,56.23-.87,14.29-.66,26.26-.45,38.94.06,3.39.12,6.84.16,10.41l.04,3.12c.16,14.59.35,31.13,1.02,39.04l-2.99.25Z"/>
      <path class="cls-1" d="M55.08,325.34c-.2,0-.41,0-.62-.01-6.14-.21-11.16-3.42-18.11-7.85-2.89-1.84-6.15-3.93-10.04-6.16-2.48-1.42-5.01-2.63-7.46-3.79-5.87-2.79-11.41-5.43-14.73-10.43-12.43-18.7,7.25-56.05,7.45-56.42,12.2-22.85,25.7-34.25,41.28-34.84h0c22.6-.87,37.78,26.65,45.07,39.87,4.9,8.89,17.93,32.5,8.4,47.9-2.69,4.35-8.2,7.54-15.18,11.57-2.85,1.65-6.09,3.52-9.45,5.67-4.26,2.71-7.53,5.04-10.42,7.09-6.43,4.58-10.41,7.4-16.18,7.4ZM52.95,208.83c-14.42.55-27.09,11.43-38.74,33.25-5.33,9.99-17.1,39.06-7.6,53.35,2.86,4.3,7.8,6.65,13.53,9.38,2.5,1.19,5.08,2.42,7.66,3.9,3.95,2.26,7.25,4.37,10.16,6.23,6.8,4.34,11.29,7.2,16.6,7.38,5.12.18,8.4-2.17,14.96-6.84,2.77-1.97,6.22-4.42,10.54-7.18,3.42-2.18,6.69-4.07,9.56-5.73,6.61-3.82,11.83-6.84,14.13-10.56,8.61-13.9-3.8-36.4-8.47-44.87-6.9-12.51-21.15-38.34-41.42-38.34-.3,0-.6,0-.91.02h0Z"/>
    </g>
  </g>
</svg>