<?xml version="1.0" encoding="UTF-8"?>
<svg id="Layer_2" data-name="Layer 2" xmlns="http://www.w3.org/2000/svg" viewBox="0 0 137.73 407.11">
  <defs>
    <style>
      .cls-1 {
        stroke-width: 0px;
      }
    </style>
  </defs>
  <g id="teeth">
    <g>
      <path class="cls-1" d="M114.17,274.38l-2.96-.49c4.73-28.73,6.22-57.81,4.54-88.92-1-18.45-2.88-32.56-4.71-46.2-2.49-18.65-4.85-36.26-4.58-62.46.22-20.98,2.85-42.02,7.82-62.53,1-3.61,1.46-8.33-.5-9.87-2.5-1.96-6.95-.45-10.05,2.06-17.9,14.47-43.15,87.38-48.72,108.56-8.41,31.96-13.05,49.57-16.03,69.29-5.26,34.73-5.56,65.45-5.45,77.05l-3,.03c-.11-11.67.2-42.59,5.49-77.53,3.01-19.88,7.66-37.54,16.1-69.6,4.76-18.08,30.26-94.38,49.74-110.13,4.03-3.26,9.86-5.17,13.79-2.09,3.83,3,2.36,10.08,1.56,12.98-4.9,20.24-7.5,41.05-7.72,61.8-.27,25.99,2.07,43.5,4.55,62.04,1.83,13.7,3.73,27.86,4.73,46.43,1.69,31.32.19,60.62-4.57,89.57Z"/>
      <path class="cls-1" d="M66,407.11c-.08,0-.17,0-.25,0-11.83-.12-17.75-4.94-25.24-11.05-2.37-1.93-4.82-3.93-7.73-6.02-4.1-2.96-7.84-5.17-11.15-7.13-5.8-3.43-10.81-6.39-15.28-11.83-8.25-10.03-12.58-33.78,13.62-89.96l.54-1.15c8.06-17.31,21.51-46.28,50.13-44.63h0c16.47.94,28.19,11.89,46.43,43.37,16.26,28.06,23.28,54.31,19.78,73.91-1.54,8.64-6.27,19.98-20.07,24.97-.19.07-.34.12-.44.16l-.07.03c-11.23,4.06-14.58,6.58-17.03,8.42-.41.31-.8.6-1.19.88-6.02,4.22-10.33,7.92-13.79,10.89-6.65,5.69-10.69,9.15-18.26,9.15ZM68.39,238.27c-25.16,0-37.63,26.79-45.16,42.97l-.54,1.15C-2.85,337.15.97,359.81,8.67,369.18c4.14,5.03,8.71,7.73,14.49,11.15,3.36,1.99,7.16,4.24,11.37,7.27,2.98,2.15,5.58,4.27,7.87,6.13,7.31,5.96,12.6,10.27,23.37,10.37.08,0,.15,0,.23,0,6.46,0,9.78-2.84,16.31-8.43,3.51-3.01,7.89-6.76,14.02-11.06.37-.26.73-.53,1.12-.82,2.6-1.95,6.16-4.62,17.78-8.83.13-.05.31-.12.54-.2,12.45-4.5,16.73-14.82,18.13-22.68,3.38-18.9-3.52-44.43-19.43-71.88-17.64-30.44-28.74-41.01-44.01-41.88-.7-.04-1.39-.06-2.07-.06Z"/>
    </g>
  </g>
</svg>