<?xml version="1.0" encoding="UTF-8"?>
<svg id="Layer_2" data-name="Layer 2" xmlns="http://www.w3.org/2000/svg" viewBox="0 0 97.36 339.99">
  <defs>
    <style>
      .cls-1 {
        stroke-width: 0px;
      }
    </style>
  </defs>
  <g id="teeth">
    <g>
      <path class="cls-1" d="M50.5,339.99c-.3,0-.58-.01-.86-.03-8.33-.7-15.53-3.96-22.02-9.99-2.34-2.18-4.96-2.53-7.99-2.95-1.68-.23-3.42-.47-5.21-1.04-9.41-3-13.08-12.12-13.77-17.04-3.03-21.82,5.26-38.15,8.81-45.12l.38-.75c5.18-10.27,20.87-32.11,36.28-34.09h0c13.29-1.71,26.8,9.98,40.14,34.74l.4.75c1.61,2.96,15.51,29.54,8.95,51.68-2.04,6.9-8.21,8.17-13.17,9.2-2.88.59-5.59,1.15-7.26,2.6-7.01,6.08-17.92,12.05-24.69,12.05ZM48.53,231.82c-.71,0-1.38.05-2.03.13h0c-12.84,1.65-27.87,20.35-33.98,32.47l-.38.76c-3.41,6.72-11.41,22.46-8.51,43.35.59,4.22,3.71,12.05,11.71,14.59,1.54.49,3.15.71,4.7.92,3.24.44,6.59.9,9.63,3.72,5.98,5.55,12.59,8.56,20.22,9.2,5.17.44,15.65-4.63,23.33-11.29,2.26-1.96,5.49-2.62,8.62-3.27,4.81-.99,9.36-1.93,10.9-7.11,6.32-21.34-8.1-48.26-8.71-49.39l-.41-.76c-14.56-27.03-26.82-33.32-35.08-33.32Z"/>
      <path class="cls-1" d="M10.64,262.37c-4.26-19.09-6.41-37.45-4.81-74.81.92-26.12,4.97-43.06,8.54-58.01,2.33-9.74,4.53-18.94,5.56-29.47,2.92-29.66.36-55.2-2.36-82.25l-.02-.16c-.36-3.53-1.3-12.9,3.9-16.03,3.52-2.13,8.99-3.25,15.07,3.44l.12.16c5.3,7.7,10.8,18.81,17.33,34.99,14,34.7,14.9,62.87,15.63,85.51.49,15.13,2.02,29.01,3.64,43.71,2.63,23.86,5.35,48.53,3.31,79.16l-2.99-.2c2.02-30.36-.68-54.9-3.3-78.63-1.63-14.76-3.16-28.7-3.65-43.94-.72-22.4-1.61-50.27-15.41-84.48-6.42-15.91-11.81-26.82-16.96-34.33-3.81-4.16-7.48-5.08-11.23-2.81-3.57,2.16-2.74,10.44-2.46,13.17l.02.16c2.73,27.2,5.31,52.89,2.36,82.84-1.06,10.73-3.28,20.03-5.63,29.87-3.54,14.81-7.55,31.59-8.46,57.43-1.59,37.23.44,54.74,4.74,74.04l-2.93.65Z"/>
      <path class="cls-1" d="M1.34,300.32c5.71-3.62,13.51-3.74,19.61-.73,2.1,1.01,3.92,2.45,5.7,3.63,3.38,2.39,7.57,3.25,11.42,1.83,1.89-.65,3.68-1.8,5.67-2.92,2.96-1.8,6.93-2.92,10.53-2.13,6.03.92,8.19,7.83,13.57,9.43,6.2,1.79,12.34-1.76,17.54-5.16,3.64-2.45,7.03-5.29,10.39-8.19-4.38,5.03-9.28,9.79-15.1,13.19-6.45,3.85-14.11,4.74-19.73-1.14-2.42-2.35-4.05-4.67-7.23-5.24-8.47-1.46-12.26,7.35-21.96,5.27-4.65-.71-7.94-4.65-11.72-6.87-5.6-3.25-12.66-3.68-18.69-1h0Z"/>
      <path class="cls-1" d="M54.28,302.06c-.55-3.71-.22-7.34.37-10.98.66-3.63,1.56-7.16,3.32-10.47.56,3.71.23,7.34-.37,10.98-.66,3.63-1.56,7.16-3.32,10.47h0Z"/>
    </g>
  </g>
</svg>