<?xml version="1.0" encoding="UTF-8"?>
<svg id="Layer_2" data-name="Layer 2" xmlns="http://www.w3.org/2000/svg" viewBox="0 0 145.89 278.04">
  <defs>
    <style>
      .cls-1 {
        stroke-width: 0px;
      }
    </style>
  </defs>
  <g id="teeth">
    <g>
      <path class="cls-1" d="M47.42,278.04c-15.03,0-32.48-8.76-40.95-21.6-3.9-5.91-7.89-14.94-5.97-47.42.32-5.47,1.96-23.68,9.47-28.47,8.34-5.32,19.77-5.16,33.99.48,12.01,4.77,15.37,4.92,20.76,4.77h0c7.66-.2,13.94-2.9,20.58-5.76,6.37-2.74,12.96-5.58,20.75-5.93.36-.02.71-.02,1.06-.02,13.46,0,22.11,11.64,25.86,16.68.24.33.46.62.65.87,3.85,5.06,14.3,23.31,11.92,40.18-2.36,16.73-14.64,31.33-29.22,34.72-14.01,3.26-22.32-.36-28.39-3-2.93-1.27-5.24-2.28-7.18-2-6.6.96-9.09,3.76-11.98,7-2.7,3.03-5.75,6.47-12.46,8.36-2.8.79-5.8,1.16-8.9,1.16ZM24.25,179.73c-4.48,0-8.87.93-12.67,3.35-4.13,2.64-7.3,12.89-8.09,26.12-1.87,31.56,1.85,40.08,5.48,45.59,9.57,14.52,31.31,23.49,46.52,19.2,5.86-1.65,8.37-4.48,11.03-7.46,3-3.37,6.1-6.86,13.79-7.97,2.79-.4,5.58.81,8.81,2.22,5.69,2.48,13.47,5.86,26.51,2.83,13.2-3.07,24.77-16.91,26.92-32.21,2.27-16.13-8.36-34.03-11.34-37.94-.2-.26-.42-.56-.67-.9-3.56-4.79-11.91-16.02-24.37-15.45-7.25.33-13.3,2.93-19.7,5.69-6.62,2.85-13.46,5.79-21.69,6.01h0c-5.62.15-9.41-.01-21.94-4.98-5.4-2.14-12.1-4.09-18.6-4.09Z"/>
      <path class="cls-1" d="M7.24,183.53c-.59-8.15,1.81-20.82,4.45-29.76,3.19-10.8,9.53-22.46,17.55-37.22,5.37-9.89,11.47-21.1,17.63-34,5.99-12.55,9.8-21.53,13.48-30.21,4.83-11.38,9.38-22.13,18.12-38.87,3.66-7,8.46-11.64,13.51-13.05,2.73-.76,5.43-.51,7.41.69,5.37,3.26,4.8,13.75,4.5,19.38-.04.71-.07,1.32-.08,1.79-.16,4.82-.38,9.51-.59,14.04-.95,20.2-1.84,39.27,2.91,65.82,2.6,14.53,5.49,25.71,8.04,35.56,3.58,13.86,6.67,25.82,8.03,42.67l-2.99.24c-1.33-16.59-4.4-28.44-7.94-42.16-2.56-9.91-5.46-21.14-8.08-35.78-4.81-26.88-3.91-46.12-2.95-66.49.21-4.52.43-9.19.59-13.98.01-.48.05-1.12.09-1.86.23-4.29.77-14.33-3.06-16.66-1.27-.77-3.11-.9-5.05-.36-2.46.69-7.25,3.1-11.66,11.55-8.68,16.62-13.21,27.32-18.02,38.65-3.69,8.71-7.51,17.72-13.53,30.33-6.19,12.97-12.31,24.22-17.7,34.14-7.94,14.61-14.21,26.14-17.31,36.63-3.08,10.43-4.83,21.96-4.34,28.69l-2.99.22Z"/>
      <path class="cls-1" d="M16.18,149.65l-3-.16.03-.58c.78-17.87,4.55-30.31,7.58-37.6,3.48-8.38,6.46-13.87,9.61-19.69,3.61-6.65,7.33-13.54,12.5-25.77,2.06-4.88,3.91-9.96,5.87-15.34,5.25-14.41,10.69-29.31,20.22-39.56,1.61-1.74,4.97-5.35,8.45-4.58,4.22.93,4.34,4.73,4.4,6.55l-3,.1c-.09-2.83-.68-3.41-2.05-3.72-1.8-.4-4.67,2.68-5.61,3.69-9.12,9.81-14.45,24.42-19.6,38.55-1.89,5.18-3.84,10.53-5.93,15.48-5.22,12.37-9.16,19.63-12.63,26.03-3.11,5.74-6.05,11.17-9.47,19.41-2.93,7.07-6.59,19.15-7.35,36.58l-.03.61Z"/>
      <path class="cls-1" d="M120.63,263.23c-8.57.8-17.45-1.73-24.49-6.72-3.46-2.48-6.63-5.29-10.1-7.61-1.62-1.08-3.14-1.8-5.09-1.72-4.07-.03-7.24,2.32-10.16,5.04-2.22,2.03-4.66,4.43-6.83,6.56-8.37,8.15-19.67,14.41-31.56,14.33,10.57-1.31,19.91-6.87,27.51-13.96,4.67-4.43,8.57-9.72,14.22-13.15,3.11-1.74,7.01-2.37,10.43-1.16,4.12,1.73,7.21,5.06,10.61,7.76,6.92,6.3,15.88,10.07,25.47,10.63h0Z"/>
      <path class="cls-1" d="M80.56,215.44c4.12,9.14,4.78,21.56.45,30.73-.04-5.21.12-10.18-.09-15.33-.14-4.59-.42-10.83-.36-15.4h0Z"/>
    </g>
  </g>
</svg>