<?xml version="1.0" encoding="UTF-8"?>
<svg id="Layer_2" data-name="Layer 2" xmlns="http://www.w3.org/2000/svg" viewBox="0 0 137.73 407.11">
  <defs>
    <style>
      .cls-1 {
        stroke-width: 0px;
      }
    </style>
  </defs>
  <g id="teeth">
    <g>
      <path class="cls-1" d="M23.56,274.38c-4.77-28.95-6.26-58.24-4.57-89.57,1-18.57,2.9-32.74,4.73-46.44,2.48-18.54,4.82-36.05,4.55-62.03-.21-20.76-2.82-41.57-7.73-61.85-.79-2.86-2.26-9.93,1.57-12.93,3.93-3.08,9.76-1.17,13.79,2.09,19.48,15.75,44.98,92.05,49.74,110.13,8.44,32.06,13.09,49.72,16.1,69.6,5.29,34.94,5.6,65.85,5.49,77.53l-3-.03c.11-11.6-.2-42.33-5.45-77.05-2.86-18.92-6.98-34.92-16.03-69.29-5.58-21.18-30.83-94.09-48.73-108.56-3.1-2.51-7.55-4.02-10.05-2.06-1.97,1.54-1.51,6.25-.52,9.82,4.98,20.55,7.61,41.59,7.83,62.57.27,26.2-2.08,43.82-4.58,62.46-1.82,13.64-3.71,27.75-4.71,46.2-1.68,31.1-.19,60.19,4.54,88.92l-2.96.49Z"/>
      <path class="cls-1" d="M71.73,407.11c-7.58,0-11.62-3.46-18.26-9.15-3.47-2.97-7.78-6.66-13.79-10.89-.39-.27-.78-.57-1.19-.88-2.45-1.84-5.81-4.35-17.03-8.42l-.07-.03c-.1-.04-.24-.09-.43-.16-13.79-4.99-18.52-16.33-20.07-24.97-3.5-19.6,3.53-45.84,19.78-73.91,18.24-31.49,29.96-42.43,46.43-43.37h0c28.59-1.65,42.07,27.33,50.13,44.64l.53,1.15c26.2,56.17,21.87,79.92,13.62,89.96-4.47,5.44-9.48,8.4-15.28,11.83-3.3,1.95-7.05,4.17-11.15,7.13-2.91,2.1-5.36,4.09-7.73,6.02-7.49,6.11-13.41,10.93-25.24,11.05-.09,0-.17,0-.25,0ZM22.5,374.97c11.62,4.21,15.18,6.88,17.78,8.83.39.29.75.56,1.12.82,6.13,4.31,10.51,8.05,14.02,11.06,6.61,5.66,9.91,8.5,16.53,8.43,10.78-.11,16.06-4.41,23.37-10.37,2.29-1.87,4.89-3.98,7.87-6.13,4.21-3.04,8.02-5.29,11.37-7.27,5.78-3.42,10.35-6.12,14.49-11.15,7.7-9.37,11.52-32.02-14.02-86.78l-.54-1.15c-7.74-16.62-20.71-44.42-47.24-42.91h0c-15.27.87-26.37,11.44-44.01,41.88C7.36,307.66.46,333.19,3.83,352.09c1.4,7.86,5.69,18.17,18.13,22.68.23.08.41.15.54.2Z"/>
    </g>
  </g>
</svg>