<?xml version="1.0" encoding="UTF-8"?>
<svg id="Layer_2" data-name="Layer 2" xmlns="http://www.w3.org/2000/svg" viewBox="0 0 149.1 287.44">
  <defs>
    <style>
      .cls-1 {
        stroke-width: 0px;
      }
    </style>
  </defs>
  <g id="teeth">
    <g>
      <path class="cls-1" d="M104.34,115.39c-7,0-12.05-2.24-16.95-4.41-5.48-2.43-10.66-4.71-18.52-4.07-6.74.56-10.2,2.4-13.55,4.19-3.07,1.64-6.25,3.33-11.58,3.76-6.89.57-14.25-3.18-21.3-10.81C8.64,89.12-2.1,60.74.35,45.68c1.31-8.09,8.6-14.54,24.91-27.34C43.51,4.02,53.1-.59,63.28.06c3.63.23,5.26,1.07,7.33,2.12,2.06,1.05,4.62,2.37,10.56,3.83,4.96,1.22,8.74,1.65,11.77,1.99,4.71.53,8.1.91,12.15,3.64,3.33,2.25,5,4.2,6.62,6.09,1.72,2.01,3.35,3.91,7.06,6.14,4.67,2.8,8.19,3.98,11.6,5.12,3.82,1.28,7.44,2.48,11.63,5.84,11.21,8.97,6.76,32.18,2.84,43.2h0c-5.45,15.31-21.42,37.01-39.89,37.35-.2,0-.4,0-.6,0ZM71.52,103.81c7.07,0,12.15,2.25,17.08,4.43,4.96,2.19,9.65,4.26,16.28,4.15,17.04-.31,31.96-20.86,37.12-35.35h0c4.27-12,7.29-32.51-1.88-39.86-3.78-3.02-6.99-4.1-10.71-5.34-3.4-1.13-7.24-2.42-12.19-5.39-4.13-2.48-5.99-4.66-7.8-6.76-1.56-1.82-3.03-3.54-6.01-5.56-3.43-2.32-6.36-2.65-10.8-3.15-3.12-.35-7-.79-12.16-2.06-6.27-1.54-9.12-3-11.2-4.07-1.96-1-3.14-1.61-6.15-1.8-9.32-.6-18.4,3.85-35.98,17.65C10.2,33.97,4.39,39.5,3.31,46.16c-2.33,14.32,8.04,41.47,21.33,55.86,4.47,4.84,11.38,10.47,18.85,9.86,4.71-.38,7.35-1.79,10.41-3.42,3.45-1.84,7.36-3.92,14.72-4.53,1-.08,1.97-.12,2.89-.12Z"/>
      <path class="cls-1" d="M98.63,277.34l-1.66-2.5c.97-.65,1.82-1.13,2.65-1.59,1.92-1.08,3.44-1.94,5.46-4.41,2.98-3.63,2.65-8.88,2.51-11.12l-.03-.44c-1.01-18.56,2.49-37.94,4.66-47.84,1.38-6.29,2.68-12.01,3.94-17.54,3.23-14.2,6.02-26.47,8.01-39.09.25-1.61.52-3.21.78-4.84,2.12-12.97,4.31-26.38,4.01-49.04l3-.04c.3,22.92-2.01,37.07-4.05,49.56-.26,1.62-.53,3.22-.78,4.82-2.01,12.72-4.81,25.03-8.05,39.29-1.26,5.53-2.56,11.24-3.94,17.52-2.14,9.75-5.59,28.83-4.6,47.03l.02.41c.15,2.37.55,8.66-3.18,13.21-2.38,2.9-4.29,3.98-6.31,5.12-.78.44-1.58.89-2.46,1.48Z"/>
      <path class="cls-1" d="M89.82,287.44c-4.87,0-8.27-3.24-13.36-12.65-11.75-21.73-18.07-46.1-19.46-57.18-2.09-16.75-2.36-25.71-2.62-34.37-.21-6.89-.4-13.39-1.54-23.31-2.61-22.64-5.3-34.64-8.81-46.67l2.88-.84c3.55,12.18,6.28,24.31,8.91,47.16,1.16,10.05,1.35,16.61,1.56,23.56.26,8.59.52,17.48,2.6,34.09,1.35,10.85,7.56,34.76,19.12,56.12,5.59,10.33,8.23,11.13,10.89,11.08,5.07-.1,6.88-4.89,6.68-17.66-.18-11.68-1.71-26.52-2.36-32.86-.19-1.84-.27-2.67-.29-2.99-1.85-38.93-.7-60.21.33-72.82.09-1.11.17-2.22.26-3.32.84-11,1.71-22.37,8.59-41.73l2.83,1.01c-6.75,18.99-7.61,30.16-8.43,40.96-.08,1.11-.17,2.22-.26,3.34-1.02,12.53-2.16,33.68-.32,72.44.01.25.13,1.39.28,2.83.65,6.38,2.19,21.31,2.37,33.12.16,9.92-.45,20.52-9.62,20.71-.08,0-.15,0-.23,0Z"/>
      <path class="cls-1" d="M78.07,276.29c-4.48-1.35-7.76-3.57-14.28-8-3.81-2.58-23.36-17.06-34.46-48.41-3.49-9.86-8.19-27.89-10.76-57.77l-.15-1.76c-1.48-17.05-3-34.69-.63-62.86l2.99.25c-2.35,27.91-.84,45.42.63,62.34l.15,1.76c2.68,31.12,7.79,49.09,10.6,57.03,10.78,30.47,29.64,44.43,33.31,46.93,6.47,4.39,9.42,6.39,13.46,7.61l-.87,2.87Z"/>
      <path class="cls-1" d="M91.41,42.99c-10.5-5.9-21.3-6.44-32.48-2.07,8.78-8.56,24.9-7.62,32.48,2.07h0Z"/>
      <path class="cls-1" d="M115.94,43.34c5,15.68-.1,34.35-12.44,45.26,8.93-13.9,13-28.75,12.44-45.26h0Z"/>
    </g>
  </g>
</svg>