<?xml version="1.0" encoding="UTF-8"?>
<svg id="Layer_2" data-name="Layer 2" xmlns="http://www.w3.org/2000/svg" viewBox="0 0 103.6 328.93">
  <defs>
    <style>
      .cls-1 {
        stroke-width: 0px;
      }
    </style>
  </defs>
  <g id="teeth">
    <g>
      <path class="cls-1" d="M65.5,149.24c-5.32,0-13.68-1.43-19.45-6.87C19.66,117.48,7.33,86.2,4.81,76.25.26,58.3-2.52,44.54,3.27,31.07c5.62-13.09,16.31-18.72,22.06-21.74.76-.4,1.44-.76,1.99-1.07C44.42-1.55,61.43-.28,72.69.57l.94.07c11.59.86,24.03,6.71,25.67,17.84,6.97,47.05,5.66,72.93-5.38,106.52-4.77,14.52-14.09,23.1-26.23,24.16-.65.06-1.39.09-2.19.09ZM60.77,3.01c-9.49,0-20.76,1.43-31.96,7.85-.58.33-1.29.71-2.09,1.13-5.41,2.85-15.49,8.16-20.7,20.27-5.42,12.61-2.72,25.88,1.69,43.26,2.46,9.72,14.52,40.27,40.39,64.68,5.87,5.54,14.91,6.36,19.32,5.97,7.69-.68,18.04-5.06,23.65-22.11,10.87-33.07,12.15-58.62,5.26-105.14-1.4-9.49-12.53-14.51-22.93-15.29l-.94-.07c-3.41-.26-7.37-.55-11.69-.55Z"/>
      <path class="cls-1" d="M48.47,328.93c-.25,0-.5-.01-.75-.04-2.17-.22-5.87-1.49-6.31-7.53v-.09c-.17-14.71-.48-29.68-.93-44.5-.32-10.7-.5-19.07-.64-25.79-.36-17.41-.54-26.15-2.51-45.41-.87-8.54-3.05-18.2-5.57-29.39-3.89-17.26-8.73-38.73-10.53-64.83l2.99-.21c1.79,25.87,6.6,47.23,10.46,64.38,2.54,11.28,4.74,21.03,5.63,29.74,1.98,19.37,2.17,28.71,2.53,45.65.14,6.72.31,15.08.64,25.77.45,14.82.76,29.8.93,44.51.3,3.93,2.21,4.58,3.62,4.73,3.03.31,6.09-2.77,7.3-4.78,18.75-31.13,27.06-78.48,30.61-98.69.27-1.56.52-2.97.74-4.19,4.58-25.37,6.37-49.8,7.65-104.56l3,.07c-1.29,54.94-3.09,79.48-7.7,105.02-.22,1.22-.47,2.62-.74,4.18-3.58,20.38-11.96,68.12-31,99.72-1.35,2.24-4.97,6.26-9.42,6.26Z"/>
      <path class="cls-1" d="M16.93,43.41c.86,30.8,19.72,58.27,49.19,68.16,0,0-1.75.62-1.75.62,4.11-6.57,7.73-13.43,10.8-20.55,6.21-14.22,10.27-29.39,12.06-44.81.93-7.73,1.25-15.54,1.13-23.37.81,7.79.88,15.66.36,23.51-1.61,23.61-9.27,46.75-21.82,66.8l-.63,1.01-1.12-.39c-30.21-10.23-49.78-39.19-48.22-70.99h0Z"/>
    </g>
  </g>
</svg>