<?xml version="1.0" encoding="UTF-8"?>
<svg id="Layer_2" data-name="Layer 2" xmlns="http://www.w3.org/2000/svg" viewBox="0 0 149.1 287.44">
  <defs>
    <style>
      .cls-1 {
        stroke-width: 0px;
      }
    </style>
  </defs>
  <g id="teeth">
    <g>
      <path class="cls-1" d="M44.76,115.4c-.2,0-.4,0-.6,0-18.47-.33-34.45-22.04-39.89-37.35-3.92-11.02-8.37-34.23,2.84-43.2,4.19-3.36,7.81-4.57,11.63-5.84,3.41-1.14,6.93-2.32,11.6-5.12,3.71-2.23,5.34-4.13,7.06-6.14,1.62-1.89,3.29-3.85,6.62-6.09,4.04-2.73,7.44-3.11,12.15-3.64,3.03-.34,6.81-.77,11.77-1.99,5.93-1.46,8.49-2.77,10.56-3.83,2.06-1.06,3.69-1.89,7.33-2.12,10.17-.66,19.77,3.96,38.02,18.28,16.31,12.8,23.59,19.25,24.91,27.34,2.45,15.06-8.29,43.44-22.09,58.38-7.05,7.64-14.41,11.38-21.3,10.81-5.32-.43-8.5-2.13-11.58-3.76-3.35-1.78-6.81-3.63-13.56-4.19-7.86-.65-13.04,1.64-18.52,4.07-4.9,2.17-9.96,4.41-16.95,4.41ZM87.63,3c-.54,0-1.08.02-1.62.05-3.01.19-4.19.8-6.15,1.8-2.08,1.07-4.93,2.53-11.2,4.07-5.15,1.27-9.04,1.7-12.16,2.06-4.44.5-7.37.83-10.8,3.15-2.99,2.02-4.46,3.74-6.01,5.56-1.8,2.11-3.67,4.29-7.8,6.76-4.95,2.97-8.8,4.26-12.19,5.39-3.72,1.24-6.93,2.32-10.71,5.34-9.17,7.34-6.15,27.86-1.88,39.86h0c5.16,14.49,20.08,35.05,37.12,35.35,6.63.12,11.32-1.95,16.28-4.15,5.58-2.47,11.36-5.02,19.98-4.31,7.36.61,11.27,2.69,14.72,4.53,3.06,1.63,5.71,3.04,10.41,3.42,7.49.61,14.39-5.02,18.85-9.86,13.29-14.39,23.66-41.54,21.33-55.86-1.08-6.66-6.89-12.19-23.8-25.46C105.43,7.71,96.41,3,87.63,3Z"/>
      <path class="cls-1" d="M50.47,277.34c-.88-.59-1.68-1.04-2.46-1.48-2.02-1.14-3.93-2.21-6.31-5.12-3.73-4.55-3.33-10.84-3.18-13.21l.03-.42c.99-18.21-2.46-37.28-4.6-47.03-1.38-6.28-2.68-11.99-3.93-17.52-3.24-14.26-6.04-26.57-8.05-39.29-.25-1.6-.51-3.2-.78-4.82-2.04-12.49-4.35-26.64-4.05-49.56l3,.04c-.29,22.66,1.9,36.07,4.01,49.04.27,1.62.53,3.23.78,4.83,1.99,12.62,4.78,24.89,8.01,39.09,1.26,5.53,2.56,11.25,3.94,17.54,2.18,9.9,5.68,29.28,4.66,47.84l-.03.44c-.14,2.24-.47,7.48,2.51,11.12,2.02,2.47,3.54,3.32,5.46,4.41.82.46,1.68.94,2.65,1.59l-1.66,2.5Z"/>
      <path class="cls-1" d="M59.28,287.44c-.08,0-.15,0-.23,0-9.17-.19-9.77-10.79-9.62-20.71.18-11.8,1.72-26.73,2.37-33.1.15-1.45.27-2.59.28-2.84,1.84-38.75.7-59.9-.32-72.44-.09-1.12-.18-2.23-.26-3.34-.82-10.8-1.68-21.97-8.43-40.95l2.83-1.01c6.89,19.36,7.75,30.73,8.59,41.73.08,1.11.17,2.21.26,3.33,1.02,12.62,2.17,33.9.33,72.82-.01.32-.1,1.16-.29,3.01-.65,6.34-2.17,21.18-2.36,32.84-.2,12.77,1.61,17.56,6.68,17.66,2.65.06,5.3-.74,10.89-11.08,11.55-21.36,17.76-45.27,19.12-56.12,2.07-16.61,2.34-25.49,2.6-34.09.21-6.95.4-13.52,1.56-23.56,2.63-22.85,5.36-34.99,8.91-47.16l2.88.84c-3.51,12.02-6.2,24.02-8.81,46.67-1.14,9.92-1.34,16.42-1.54,23.31-.26,8.66-.53,17.62-2.62,34.37-1.38,11.08-7.71,35.45-19.46,57.18-5.09,9.41-8.49,12.65-13.36,12.65Z"/>
      <path class="cls-1" d="M71.03,276.29l-.87-2.87c4.05-1.22,7-3.22,13.46-7.61,3.67-2.49,22.53-16.46,33.31-46.93,2.81-7.94,7.92-25.9,10.6-57.03l.15-1.77c1.46-16.93,2.98-34.43.63-62.33l2.99-.25c2.37,28.16.85,45.79-.63,62.84l-.15,1.77c-2.57,29.89-7.27,47.91-10.76,57.77-11.09,31.35-30.65,45.82-34.46,48.41-6.52,4.42-9.79,6.64-14.28,8Z"/>
      <path class="cls-1" d="M57.69,42.99c7.58-9.7,23.7-10.63,32.48-2.07-11.18-4.37-21.98-3.82-32.48,2.07h0Z"/>
      <path class="cls-1" d="M33.16,43.34c-.56,16.51,3.51,31.36,12.44,45.26-12.34-10.9-17.43-29.58-12.44-45.26h0Z"/>
    </g>
  </g>
</svg>