<?xml version="1.0" encoding="UTF-8"?>
<svg id="Layer_2" data-name="Layer 2" xmlns="http://www.w3.org/2000/svg" viewBox="0 0 100.32 338.41">
  <defs>
    <style>
      .cls-1 {
        stroke-width: 0px;
      }
    </style>
  </defs>
  <g id="teeth">
    <g>
      <path class="cls-1" d="M48.21,338.41c-16.31,0-27.39-2.62-34.41-5.25-6.66-2.5-16.72-6.27-13.01-49.05,3.1-35.73,7.81-50.17,10.63-58.79.31-.94.59-1.82.86-2.66l.03-.1c4.03-12.83,15.42-42.63,34.17-41.93,16.27.58,28.72,25.84,38.74,50.48,11.49,28.23,21.64,60.75,9.81,87.95-3.8,8.74-14.45,16.74-23.74,17.82l-.77.09c-8.34,1.02-15.76,1.44-22.33,1.44ZM14.86,330.35c9.53,3.58,26.87,7.11,55.32,3.64l.78-.09c8.2-.96,17.97-8.31,21.33-16.04,11.38-26.18,1.41-57.97-9.84-85.62-9.1-22.36-21.42-48.09-36.07-48.61-.16,0-.33,0-.5,0-16.87,0-27.75,30.44-30.7,39.84l-.03.1c-.27.85-.56,1.74-.87,2.69-2.96,9.05-7.42,22.73-10.49,58.12-3.51,40.51,5.26,43.81,11.07,45.99Z"/>
      <path class="cls-1" d="M77.72,303.88c-2.94-19.16-5.45-38.36-9.82-57.21-1.4-5.39-2.67-11.17-5.64-15.84-.9-1.21-1.64-1.88-2.75-.85-2.85,2.6-4.46,6.5-7.77,8.77-3.51,2.51-7.43.67-9.28-2.87-1.45-2.31-2.15-5.4-3.78-7.43-.33-.3-.31-.25-.55-.24-2.25,1.25-3.6,4.24-4.91,6.54-9.16,19.19-14.82,39.8-21.6,59.95,4.6-18.84,9.49-37.74,16.74-55.81,1.58-3.69,3.11-7.29,5.52-10.6,1.15-1.68,3.7-3.93,5.97-2.57,3.9,2,4.52,14.04,10.22,10.55,4.02-2.41,7.5-13.42,13.42-8.44,9.19,9.6,13.08,60.78,14.24,76.06h0Z"/>
      <path class="cls-1" d="M80.73,221.89l-2.96-.51c5.89-34.05,3.74-51.8.3-71.47-2.07-11.86-4.58-20.32-7.02-28.5-2.98-10.04-6.07-20.43-8.36-37.09-4.1-29.83-1.7-58.65-.55-72.5.29-7.55-.79-8.34-4.21-8.79-1.56-.21-5.15.78-11.43,9.78-13.91,19.93-17.4,57.2-19.27,77.22-.14,1.48-.27,2.87-.4,4.18-1.58,16.31-2.9,29.57-3.96,40.22-3.01,30.18-4.13,41.48-4.25,51.96-.02,1.44-.04,3.01-.07,4.67-.13,7.14-.28,16.02.35,22.39l-2.99.3c-.65-6.55-.49-15.53-.36-22.74.03-1.65.06-3.21.07-4.65.12-10.62,1.25-21.95,4.27-52.23,1.06-10.65,2.38-23.91,3.96-40.22.13-1.3.26-2.7.39-4.17,2.03-21.72,5.44-58.07,19.8-78.66C49.6,3.13,54.27-.49,58.33.05c6.72.89,7.06,5.51,6.81,11.95-1.15,13.81-3.53,42.4.53,71.9,2.26,16.43,5.31,26.71,8.27,36.64,2.46,8.26,5,16.81,7.1,28.84,3.48,19.96,5.67,37.97-.3,72.5Z"/>
    </g>
  </g>
</svg>