<?xml version="1.0" encoding="UTF-8"?>
<svg id="Layer_2" data-name="Layer 2" xmlns="http://www.w3.org/2000/svg" viewBox="0 0 83.84 320.15">
  <defs>
    <style>
      .cls-1 {
        stroke-width: 0px;
      }
    </style>
  </defs>
  <g id="teeth">
    <g>
      <path class="cls-1" d="M40.53,320.15c-9.6,0-19.71-1.74-28.77-6.8-2.61-1.46-8.03-6.11-9.85-13.25-6.1-22.84,3.9-71.61,9.59-85.25,6.89-16.51,21-44.06,37.98-43.13,12.72.7,19.31,13.38,23.17,22.85,15.78,38.77,11.57,92.65,7.22,111.27-1.23,5.29-6.95,9.17-16.98,11.54h0c-6.46,1.52-14.22,2.76-22.35,2.76ZM48.62,174.7c-15.44,0-29.14,28.79-34.36,41.31-5.58,13.36-15.39,61.07-9.45,83.33,1.47,5.72,5.84,9.94,8.42,11.39,15.88,8.88,35.39,6.93,48.97,3.73h0c8.83-2.08,13.8-5.21,14.75-9.3,4.28-18.33,8.43-71.35-7.08-109.46-5.64-13.85-12.17-20.52-20.55-20.99-.23-.01-.46-.02-.68-.02Z"/>
      <path class="cls-1" d="M12.49,284.5c1.54-18.71,3.43-37.49,7.35-55.91,1.04-3.94,2.85-13.96,6.86-15.7,1.92-.81,3.67.83,4.49,2.23,2.23,3.34,3.73,8.61,8.11,9.17,4.36.15,7.06-4.67,10.26-7.2,7.82-6.83,12.27,5.72,14,11.6,5.1,18.18,6.81,37.07,8.3,55.81-3.02-18.48-5.38-37.13-10.81-55.02-.57-1.75-1.19-3.49-1.91-5.15-1.05-2.26-2.17-4.78-4.21-6.06-2.06-1.01-3.97,1.59-5.41,2.9-2,2.04-4.17,4.5-7.06,5.61-3.22,1.37-7.09-.08-9.18-2.72-2.28-2.56-3.19-5.7-5.19-8.24-.22-.23-.37-.27-.32-.25-.96.63-1.53,1.98-2.08,3.12-1.42,3.28-2.38,6.91-3.28,10.5-4.29,18.23-6.84,36.8-9.9,55.31h0Z"/>
      <path class="cls-1" d="M16.57,204.45c-1.81-28.87.35-59.66,3.61-100.01l.44-5.41c2.88-35.83,4.62-57.45,9.73-87.02.43-3.06,1.9-10.42,6.02-11.74,3.66-1.18,7.48,1.61,9.21,4.84,14.11,26.31,16.74,66.54,16.77,66.94.5,14.32,2.54,27.21,4.89,42.14,3.54,22.46,7.56,47.93,7.45,86.06h-3c.11-37.91-3.89-63.24-7.41-85.59-2.37-15.02-4.42-28-4.93-42.46-.02-.36-2.62-39.94-16.42-65.67-1.15-2.14-3.64-4.05-5.65-3.4-1.64.53-3.28,4.37-3.98,9.35-5.1,29.48-6.83,51.05-9.71,86.79l-.44,5.41c-3.24,40.22-5.4,70.91-3.6,99.58l-2.99.19Z"/>
    </g>
  </g>
</svg>