<?xml version="1.0" encoding="UTF-8"?>
<svg id="Layer_2" data-name="Layer 2" xmlns="http://www.w3.org/2000/svg" viewBox="0 0 150.45 284.68">
  <defs>
    <style>
      .cls-1 {
        stroke-width: 0px;
      }
    </style>
  </defs>
  <g id="teeth">
    <g>
      <path class="cls-1" d="M55.95,115.26c-10.73,0-21.31-2.22-29.37-7.77-8.71-6-12.32-9.24-18.53-21.99C.3,69.58-.61,59.73.28,43.66c.9-16.29,16.17-27.46,30.08-29.7,8.48-1.36,15.36.53,22.01,2.37,5.6,1.55,11.39,3.14,18.37,2.94,3.78-.11,5.45-2.21,7.98-5.39,3.95-4.97,9.36-11.79,26.4-13.8,6.18-.73,19.26,3.13,27.52,9.4,6.51,4.93,12.02,11.46,14.04,16.62.18.46.39.92.6,1.4,1.85,4.12,4.38,9.76,2.53,32.9-1.74,21.69-2.89,36.01-13.37,41.41-3.72,1.92-6.69,1.24-10.12.46-2.7-.61-6.06-1.38-10.9-1.18-9.99.41-14.39,2.32-21.05,5.21-2.44,1.06-5.2,2.26-8.63,3.56-8.57,3.25-19.25,5.4-29.78,5.4ZM36.2,16.5c-1.71,0-3.49.13-5.36.43-12.75,2.05-26.75,12.18-27.56,26.9-.88,15.84-.04,24.94,7.47,40.35,5.93,12.16,9.14,15.05,17.54,20.84,15.08,10.38,39.8,8.33,56.39,2.04,3.36-1.28,6.09-2.46,8.5-3.51,6.97-3.03,11.58-5.03,22.12-5.46,5.25-.22,8.82.6,11.69,1.25,3.32.76,5.33,1.21,8.08-.2,8.6-4.43,9.95-16.41,11.75-38.98,1.79-22.37-.65-27.82-2.27-31.43-.24-.53-.46-1.03-.66-1.54-1.83-4.68-6.96-10.7-13.06-15.32-7.59-5.75-19.86-9.46-25.36-8.81-15.81,1.87-20.57,7.87-24.4,12.68-2.6,3.28-5.06,6.37-10.24,6.52l-.04-1.5.04,1.5c-7.44.22-13.45-1.44-19.26-3.05-5.05-1.4-9.89-2.73-15.38-2.73Z"/>
      <path class="cls-1" d="M67.01,19.99c5.12,9.17,6.19,21.11,2.67,31.02-.49-5.25-.63-10.33-1.12-15.53-.41-5.2-1.14-10.23-1.55-15.49h0Z"/>
      <path class="cls-1" d="M54.05,59.67c6.34-11.18,22.85-13.28,33.4-7.1-3.05-.42-6-.69-8.94-.71-8.77-.11-17.56,2.11-24.46,7.81h0Z"/>
      <path class="cls-1" d="M53.31,284.68c-2.46,0-4.51-1.08-6.32-3.28-3.86-4.69-4.61-16.29-4.75-19.74-.06-1.52-.36-4.27-.86-8.82-.65-5.94-1.64-14.91-2.87-28.28-1.41-15.39-3.75-35.99-9.33-58.92-4.36-17.92-7.19-35.65-10.44-65.39l2.98-.33c3.23,29.6,6.05,47.22,10.37,65,5.63,23.12,7.98,43.87,9.41,59.35,1.23,13.34,2.21,22.3,2.86,28.23.51,4.62.81,7.4.88,9.03.25,6.31,1.47,14.79,4.07,17.95,1.85,2.25,3.65,2.7,6.65,1.68,2.99-1.02,4.66-4.01,5.6-9.98l.69-4.37,2.11,3.88c.17.3.32.62.48.93.81,1.62,1.45,2.9,3.46,3.47,5.11,1.42,12.41-3.9,15.06-7.29,23.95-30.58,41.52-86.13,41.69-86.69l.05-.14c3.58-8.47,8.94-31.06,9.52-48.63.53-15.94.53-22.86-.48-32.43l2.98-.31c1.09,10.31.99,17.93.49,32.85-.62,18.57-6.13,41.08-9.73,49.63-.73,2.3-18.27,57.05-42.17,87.57-3.01,3.84-11.44,10.23-18.23,8.33-1.8-.5-2.96-1.41-3.79-2.44-1.01,3.65-2.88,7.12-6.78,8.45-1.3.44-2.5.67-3.62.67Z"/>
      <path class="cls-1" d="M81.31,122.2c-.8,18.91-1.71,37.8-4.1,56.59-1.63,10.81-4.39,26.35-6.1,37.31-1.55,9.32-3.67,18.54-5.55,27.8-1.74,9.22-3.38,18.57-2.52,28-2.4-12.48-.05-25.33,2.06-37.7,2.04-10.69,4.36-26.32,6.09-37.23.73-4.5,1.64-9.45,2.46-13.96,3.3-20.16,4.78-40.58,7.64-60.82h0Z"/>
    </g>
  </g>
</svg>