<?xml version="1.0" encoding="UTF-8"?>
<svg id="Layer_2" data-name="Layer 2" xmlns="http://www.w3.org/2000/svg" viewBox="0 0 100.99 336.99">
  <defs>
    <style>
      .cls-1 {
        stroke-width: 0px;
      }
    </style>
  </defs>
  <g id="teeth">
    <g>
      <path class="cls-1" d="M14.46,214.35c0-1.75-.02-3.48-.03-5.23-.1-11.48-.21-23.35,2.78-44.9,2.33-16.8,4.68-29.19,6.94-41.16,2.47-13.05,4.81-25.37,6.54-41.08,1.08-9.73,3.31-36.08.8-70.54v-.1c-.02-3.7.57-8.85,5.94-10.86,4.29-1.6,9.41,1.2,10.77,3.25,15.66,23.67,26.09,87.19,26.53,89.88l.16.86c8.71,46.81,11.37,90.4,12.06,118.73l-3,.07c-.69-28.22-3.33-71.65-12.01-118.26l-.17-.9c-.11-.69-10.78-65.61-26.08-88.74-.76-1.15-4.52-3.11-7.22-2.1-2.81,1.05-4.01,3.44-4,7.98,2.52,34.69.27,61.23-.82,71.04-1.75,15.82-4.1,28.2-6.58,41.31-2.26,11.94-4.6,24.28-6.92,41.01-2.96,21.33-2.85,33.09-2.75,44.46.02,1.76.03,3.5.03,5.25h-3Z"/>
      <path class="cls-1" d="M72.04,336.99c-19.05,0-41.3-8.28-41.61-8.4-.55-.21-1.12-.43-1.7-.65-9.97-3.79-25.05-9.51-27.04-24.11-4.41-32.3.71-56.31,5.67-73.62,4.38-15.29,21.9-46.46,48.16-45.17h0c21.26,1.05,31.53,27.02,37.04,40.98,5.72,14.48,8.86,37.59,8.39,61.84-.35,18.25-2.94,39.4-9.13,44.05-4.99,3.74-12.12,5.08-19.78,5.08ZM53.92,188.01c-23.66,0-39.6,28.77-43.69,43.03-4.88,17.03-9.92,40.64-5.58,72.39,1.75,12.83,15.27,17.96,25.13,21.71.59.22,1.16.44,1.72.65,10.88,4.19,45,13.86,58.51,3.72,9-6.75,12.18-70.94-.25-102.39-5.27-13.33-15.07-38.13-34.4-39.08-.48-.02-.97-.04-1.44-.04Z"/>
    </g>
  </g>
</svg>