<?xml version="1.0" encoding="UTF-8"?>
<svg id="Layer_2" data-name="Layer 2" xmlns="http://www.w3.org/2000/svg" viewBox="0 0 99.63 337.79">
  <defs>
    <style>
      .cls-1 {
        stroke-width: 0px;
      }
    </style>
  </defs>
  <g id="teeth">
    <g>
      <path class="cls-1" d="M16.79,243.35c-4.42-37.18-3.53-58.75-.65-81.5,3.33-26.36,6.13-37.83,11.7-60.67,1.27-5.21,2.69-11,4.28-17.71,5.71-23.93,3.92-52.37,2.85-69.37-.15-2.4-.29-4.58-.39-6.48v-.08c0-3.64,1.57-6.07,4.67-7.21,4.35-1.6,9.27,2.96,10.65,4.69,16.03,20.02,22.72,76.41,22.99,78.81,3,20.95,4.89,76.82,4.93,85.01.15,32.74-.36,47.24-2.35,67.5l-2.99-.29c1.98-20.14,2.48-34.58,2.33-67.19-.04-8.16-1.92-63.79-4.91-84.64-.07-.62-6.87-57.97-22.36-77.31-1.43-1.78-5.08-4.55-7.28-3.75-1.89.69-2.7,2-2.71,4.35.1,1.89.24,4.04.38,6.41,1.08,17.16,2.89,45.88-2.92,70.25-1.6,6.71-3.02,12.52-4.29,17.73-5.55,22.73-8.33,34.14-11.64,60.33-2.85,22.52-3.73,43.89.65,80.76l-2.98.35Z"/>
      <path class="cls-1" d="M50.91,337.79c-7.12,0-11.03-3.76-15.53-8.09-2.57-2.47-5.48-5.26-9.42-7.78-4.7-3-7.92-4.83-10.27-6.17-4.95-2.81-6.61-3.76-10.75-9.06-10.25-13.12-2.23-38.19,3.44-49.61,5.72-11.53,21.28-38.29,42.27-38.29h.14c15.73.09,23.91,14.78,32.56,30.34,1.14,2.05,2.29,4.12,3.48,6.18,7.24,12.64,18.53,40.22,9.38,54.16-3.11,4.75-7.23,6.57-11.58,8.51-3.51,1.56-7.13,3.17-11.04,6.46-2.89,2.43-5.08,4.44-6.85,6.06-5.45,5-7.5,6.87-14.69,7.26-.39.02-.77.03-1.15.03ZM50.65,221.79c-19.86,0-35.32,28.02-39.59,36.62-5.38,10.84-13.09,34.49-3.76,46.43,3.77,4.83,5.06,5.56,9.87,8.3,2.38,1.35,5.64,3.21,10.41,6.25,4.2,2.68,7.22,5.58,9.89,8.15,4.58,4.4,7.89,7.58,14.44,7.22,6.12-.33,7.54-1.63,12.82-6.47,1.78-1.63,4-3.67,6.94-6.14,4.23-3.56,8.23-5.34,11.75-6.91,4.28-1.9,7.66-3.41,10.29-7.41,7.74-11.79-1.43-36.97-9.48-51.02-1.19-2.08-2.35-4.16-3.49-6.22-8.58-15.41-15.99-28.72-29.96-28.8h-.12Z"/>
      <path class="cls-1" d="M13.36,286.1c5.61-3.82,13.99-4.29,20.4-2.37,3.52,1.09,6.49,3.4,9.08,5.67,4.79,4.6,10.08,8.63,16.27,4.37,2.75-1.91,5.45-4.58,8.81-5.73,6.9-2.57,14.5-.08,19.95,4.29-5.83-3.11-12.86-4.89-19.07-2.15-3.11,1.37-5.28,3.81-8.06,5.89-2.98,2.38-7.41,3.05-11.05,1.76-5.18-1.83-8.26-6.52-12.52-9.55-6.01-4.6-16.95-5.23-23.79-2.2h0Z"/>
      <path class="cls-1" d="M33.63,309.16c4.71-3.05,9.16-6.09,13.32-9.75,1.54-1.3,2.93-2.81,5.05-3.45,4.29-1.15,8.24,1.02,11.46,3.4,3.05,2.34,5.62,5.12,7.81,8.18-3.07-2.16-6.01-4.41-9.12-6.21-2.85-1.58-6.04-3.31-9.3-2.49-1.5.44-2.76,1.79-4.09,2.76-4.47,3.47-9.64,6.17-15.12,7.55h0Z"/>
    </g>
  </g>
</svg>