<?xml version="1.0" encoding="UTF-8"?>
<svg id="Layer_2" data-name="Layer 2" xmlns="http://www.w3.org/2000/svg" viewBox="0 0 100.32 338.41">
  <defs>
    <style>
      .cls-1 {
        stroke-width: 0px;
      }
    </style>
  </defs>
  <g id="teeth">
    <g>
      <path class="cls-1" d="M52.1,338.41c-6.57,0-13.98-.42-22.32-1.44l-.77-.09c-9.29-1.09-19.94-9.08-23.74-17.82-11.82-27.2-1.67-59.72,9.81-87.95,10.02-24.64,22.47-49.9,38.74-50.48,18.73-.7,30.14,29.1,34.17,41.93l.03.1c.26.84.55,1.72.86,2.66,2.82,8.62,7.53,23.06,10.63,58.79,3.71,42.78-6.35,46.56-13.01,49.05h0c-7.02,2.63-18.1,5.25-34.41,5.25ZM54.44,183.61c-.17,0-.33,0-.5,0-14.65.52-26.97,26.25-36.07,48.61-11.25,27.65-21.22,59.45-9.84,85.62,3.36,7.74,13.13,15.08,21.33,16.04l.78.09c28.44,3.47,45.78-.06,55.32-3.64h0c5.81-2.18,14.59-5.47,11.07-45.99-3.07-35.39-7.54-49.07-10.49-58.12-.31-.95-.6-1.84-.87-2.69l-.03-.1c-2.95-9.4-13.84-39.84-30.7-39.84Z"/>
      <path class="cls-1" d="M22.6,303.88c1.15-15.15,5.04-66.44,14.24-76.06,5.91-4.98,9.4,6.04,13.42,8.44,5.7,3.49,6.31-8.54,10.22-10.55,2.27-1.36,4.82.89,5.97,2.57,2.41,3.32,3.94,6.91,5.52,10.6,7.24,18.07,12.14,36.97,16.74,55.81-6.08-18.4-11.59-36.98-19.15-54.78-1.52-3.39-3.14-6.98-5.36-9.91-.66-.81-1.25-1.5-2.01-1.81-.04,0-.07,0-.1-.02-.03-.01-.04.01-.06,0-.73.31-1.14,1.37-1.63,2.31-1.33,2.78-2.21,5.85-4.66,8.02-1.9,1.79-5.21,1.74-7.16.22-3.31-2.27-4.92-6.18-7.77-8.77-1.11-1.02-1.86-.35-2.75.85-2.97,4.66-4.23,10.44-5.64,15.84-4.36,18.85-6.88,38.05-9.82,57.21h0Z"/>
      <path class="cls-1" d="M19.59,221.89c-5.98-34.53-3.79-52.54-.3-72.5,2.1-12.03,4.64-20.58,7.1-28.84,2.95-9.94,6.01-20.21,8.27-36.64,4.06-29.5,1.68-58.1.53-71.84-.26-6.5.09-11.13,6.81-12.02,4.06-.55,8.73,3.07,14.28,11.03,14.36,20.58,17.77,56.94,19.8,78.66.14,1.47.27,2.87.39,4.17,1.58,16.31,2.9,29.57,3.96,40.22,3.02,30.28,4.14,41.61,4.27,52.23.02,1.44.04,3,.07,4.65.13,7.22.28,16.2-.36,22.75l-2.99-.3c.63-6.37.47-15.26.35-22.4-.03-1.65-.06-3.22-.07-4.66-.12-10.49-1.25-21.78-4.25-51.96-1.06-10.65-2.38-23.91-3.96-40.22-.13-1.31-.26-2.7-.4-4.18-1.88-20.02-5.37-57.29-19.27-77.22-6.27-8.99-9.85-9.98-11.43-9.78-3.42.45-4.5,1.24-4.21,8.86,1.15,13.78,3.55,42.6-.56,72.43-2.29,16.66-5.38,27.05-8.36,37.09-2.43,8.18-4.95,16.64-7.02,28.5-3.43,19.67-5.59,37.42.3,71.47l-2.96.51Z"/>
    </g>
  </g>
</svg>