<?xml version="1.0" encoding="UTF-8"?>
<svg id="Layer_2" data-name="Layer 2" xmlns="http://www.w3.org/2000/svg" viewBox="0 0 142.74 408.47">
  <defs>
    <style>
      .cls-1 {
        stroke-width: 0px;
      }
    </style>
  </defs>
  <g id="teeth">
    <g>
      <path class="cls-1" d="M72.9,176.12c-17.11,0-31.18-11.41-37.72-23.11-4.28-7.65-4.81-9.22-5.98-12.67-.79-2.32-1.86-5.49-4.66-12.13-4.17-9.89-7.82-15.58-11.04-20.6-3.74-5.83-6.98-10.87-9.92-20.48-1.62-5.28-9.04-32.36,4.01-46.54,6.57-7.15,11.59-9.79,20.7-14.6,3.4-1.8,7.26-3.83,12.04-6.53,4.02-2.28,7.27-5.45,10.42-8.52C56.01,5.79,61.47.46,70.27.04h0c10.84-.53,17.69,4.91,23.74,9.7,2.78,2.2,5.4,4.28,8.24,5.7,4.2,2.1,6.32,3.21,8.02,4.1,2.08,1.09,3.72,1.95,8.07,4.04.68.33,1.48.68,2.36,1.07,6.97,3.09,18.64,8.26,21.44,20.72,2.2,9.81-2.07,26.05-4.81,34.86-2.79,8.94-3.79,13.32-4.75,17.55-1.06,4.64-2.06,9.01-5.19,18.76-6.63,20.62-12.23,30.3-16.83,37.06-5.44,7.98-17.29,21.51-35.61,22.48-.68.04-1.36.05-2.04.05ZM71.71,3c-.43,0-.86.01-1.3.03-7.67.37-12.49,5.08-17.59,10.06-3.28,3.2-6.68,6.52-11.04,8.98-4.81,2.72-8.69,4.77-12.11,6.57-9.1,4.8-13.67,7.21-19.89,13.98-9.26,10.07-7.59,29.8-3.35,43.63,2.82,9.21,5.95,14.09,9.58,19.73,3.29,5.12,7.01,10.93,11.28,21.06,2.84,6.74,3.94,9.97,4.74,12.33,1.11,3.27,1.62,4.76,5.76,12.17,6.35,11.35,20.24,22.41,36.99,21.53,17.02-.9,28.16-13.65,33.29-21.18,4.48-6.58,9.94-16.03,16.45-36.29,3.09-9.62,4.08-13.93,5.13-18.51.98-4.29,1.99-8.72,4.81-17.77,2.65-8.52,6.8-24.19,4.75-33.31-2.47-10.99-13.27-15.77-19.73-18.63-.91-.4-1.74-.77-2.44-1.11-4.4-2.11-6.06-2.99-8.17-4.09-1.77-.93-3.79-1.99-7.96-4.07-3.12-1.55-5.86-3.73-8.76-6.03-5.64-4.47-11.47-9.09-20.43-9.09Z"/>
      <path class="cls-1" d="M15.7,63.68c7.82,8.26,13.62,18.75,15.86,30,.79,3.76,1.1,7.55,2.27,10.96,5.19,14.34,20.83,20.74,34.28,25.33,0,0-1.95,1.54-1.95,1.54-1.82-23.33-1.05-46.86,2.52-69.99,1.21-7.69,2.68-15.34,4.54-22.9-1.2,7.68-2.27,15.37-3.06,23.09-1.63,15.41-2.36,30.9-2.1,46.39.1,8.49.55,16.99,1.26,25.45-4.32-1.49-8.7-2.93-12.87-4.85-8.78-3.92-17.51-9.39-22.49-17.91-3.03-5.08-3.49-11.09-4.31-16.77-1.78-11.15-6.91-21.5-13.96-30.35h0Z"/>
      <path class="cls-1" d="M85.18,40.5c-.56,18.45.74,36.95,4.47,55.02,1.19,6.01,2.68,11.96,4.39,17.85l-2.44-.69c12.96-11.61,22.19-27.24,26.27-44.15,1.41-5.66,2.22-11.48,2.56-17.36.3,5.88-.1,11.82-1.15,17.66-3.22,18.48-13.28,35.45-27.45,47.68-7.4-24.51-10.03-50.59-6.66-76.01h0Z"/>
      <path class="cls-1" d="M32.49,408.47c-1.69,0-3.34-.34-4.71-1.21-2.37-1.51-3.38-4.79-3.01-9.73l.04-.23c2.34-10.02,4.93-23.17,6.32-44.66,1.13-17.38.81-41.79-.69-52.23l-.13-.92c-2.58-18.02-8.61-60.22-8.32-97.13.02-2.14.01-4.21,0-6.27-.04-14.35-.08-27.91,7.59-55.44l2.89.8c-7.55,27.14-7.52,40.49-7.48,54.63,0,2.06.01,4.15,0,6.3-.29,36.68,5.73,78.73,8.29,96.68l.13.92c1.52,10.61,1.85,35.3.71,52.85-1.4,21.62-4,34.9-6.37,45.03-.25,3.53.34,6.03,1.64,6.86,2.79,1.78,8.28.02,10.32-1.38,35.03-24.06,56.46-138.53,56.68-139.68,7.47-32.49,11.59-59.91,12.01-111.8l3,.02c-.42,52.17-4.57,79.74-12.07,112.38h0c-1.14,6.92-22.62,117.31-57.9,141.55-1.74,1.2-5.43,2.64-8.93,2.64Z"/>
    </g>
  </g>
</svg>