<?xml version="1.0" encoding="UTF-8"?>
<svg id="Layer_2" data-name="Layer 2" xmlns="http://www.w3.org/2000/svg" viewBox="0 0 129.48 351">
  <defs>
    <style>
      .cls-1 {
        stroke-width: 0px;
      }
    </style>
  </defs>
  <g id="teeth">
    <g>
      <path class="cls-1" d="M76.89,154.41c-16.74,0-30.17-14.63-43.19-28.8l-1.9-2.07c-4.94-5.36-13.03-16.35-19.57-29.68C3.32,75.72-.75,57.91.11,40.89c.04-.74.07-1.48.1-2.23.36-8.61.77-18.36,11.14-27.48h0c5.84-5.13,12.18-5.15,23.7-5.19,4.8-.02,10.78-.04,18.01-.45,17.89-1.03,30.62-2.71,39.92-3.95,16.04-2.12,22.68-3,28.78,3.1,5.49,5.5,6.31,10.05,7.16,25.63,1.26,23.04,1.12,48.2-8.37,76.12-.65,1.9-1.27,3.86-1.93,5.94-5.46,17.17-12.26,38.53-38.06,41.8-1.24.16-2.46.23-3.66.23ZM13.33,13.44C3.92,21.71,3.56,30.39,3.21,38.79c-.03.76-.06,1.51-.1,2.26-2.23,43.98,30.56,80.1,30.89,80.46l1.91,2.07c13.44,14.63,27.34,29.77,44.27,27.62,23.9-3.02,30.11-22.52,35.58-39.73.67-2.09,1.29-4.07,1.95-6,9.33-27.44,9.46-52.26,8.22-74.99-.87-15.81-1.75-19.13-6.29-23.67-5.05-5.06-10.82-4.29-26.26-2.25-9.34,1.24-22.14,2.93-40.14,3.97-7.32.42-13.34.44-18.17.46-11.15.04-16.74.06-21.73,4.44h0Z"/>
      <path class="cls-1" d="M14.05,44.29c3.76,16.05,10.09,31.67,20.55,44.51,4.85,5.63,11.15,12.73,18.54,14.57,6.22.99,10.48-4.49,15.55-7.28,7.34-4.11,12.58-2.39,18.62,2.71,3.35,2.72,6,3.45,8.77-.06,6.39-8.37,8.21-24.48,9.39-34.92,1.25-12.37,1.55-24.79,1.66-37.23,1.11,17.13,2.92,65.53-11.46,76.37-5.68,3.69-10.51-2.93-15.03-5.18-8.81-4.24-14.89,6.06-22.78,8.13-9.37,2.88-19.87-9.11-25.09-15.66-10.29-13.32-16.09-29.48-18.72-45.96h0Z"/>
      <path class="cls-1" d="M46.82,351c-1.43,0-2.78-.32-3.92-1.11-3.13-2.16-3.31-6.92-2.92-10.53l.02-.11c4.45-23.77,6.36-48.06,5.69-72.2-.55-19.72-1.29-33.82-9.11-73.42-1.85-9.37-3.85-16.37-5.79-23.14-4.1-14.34-7.97-27.88-8.91-60.31l3-.09c.94,32.06,4.58,44.81,8.8,59.58,1.95,6.83,3.97,13.89,5.84,23.38,7.45,37.72,8.56,52.12,9.16,73.91.68,24.33-1.25,48.82-5.72,72.78-.41,3.88.19,6.68,1.65,7.68,2.69,1.86,8.98-1.04,11.23-3.26,25.98-25.63,43.96-100.74,44.14-101.49,5.49-21.79,14.56-72.46,13.71-124.32l3-.05c.85,52.18-8.27,103.17-13.8,125.08-.73,3.1-18.35,76.68-44.94,102.92-1.73,1.71-6.76,4.7-11.12,4.7Z"/>
    </g>
  </g>
</svg>