<?xml version="1.0" encoding="UTF-8"?>
<svg id="Layer_2" data-name="Layer 2" xmlns="http://www.w3.org/2000/svg" viewBox="0 0 108.08 322.48">
  <defs>
    <style>
      .cls-1 {
        stroke-width: 0px;
      }
    </style>
  </defs>
  <g id="teeth">
    <g>
      <path class="cls-1" d="M94.37,226.39l-2.96-.5c2.71-16.06,3.05-39.22.97-65.22-1.28-15.96-3.23-27.67-5.11-39-2.03-12.19-3.94-23.7-5.1-40.02-1.6-22.57-.04-45.93,4.63-69.45.29-2.61.07-5.96-1.48-6.88-1.53-.91-4.36.34-5.29,1.02-26.33,19.23-42.14,78.54-42.29,79.14-8.42,34.46-16.23,74.07-16.25,129.99h-3c.02-56.23,7.87-96.06,16.34-130.73h.04c1.25-4.98,17.29-61.76,43.4-80.83,1.23-.9,5.46-3.05,8.59-1.17,3.28,1.96,3.23,7.02,2.91,9.85l-.02.12c-4.64,23.27-6.18,46.39-4.6,68.71,1.15,16.18,3.05,27.62,5.06,39.74,1.89,11.39,3.85,23.17,5.14,39.25,2.1,26.24,1.75,49.66-1,65.96Z"/>
      <path class="cls-1" d="M51.6,40.47c-2.23-22.16.54-38.36,6.91-40.32,2.4-.74,5.33,1.29,7.12,4.93,1.78,3.9,2.46,5.72,4.09,10.34l-2.83,1c-1.6-4.53-2.26-6.31-3.98-10.06-1.34-2.73-3.03-3.5-3.53-3.35-3.35,1.03-7.19,13.55-4.81,37.15l-2.99.3Z"/>
      <path class="cls-1" d="M54.02,322.48c-6.53,0-10.3-3.02-16-7.58-3.01-2.41-6.75-5.4-11.81-8.63-4.42-2.82-7.9-4.77-10.69-6.34-5.02-2.82-8.34-4.68-11.76-8.58-11.95-13.66,8.35-63.33,8.57-63.81,9.49-19.93,21.31-38.17,43.45-36.72,16.75,1.1,31.42,17.06,43.59,47.43,3.62,9.03,14.64,39.54,4.54,53.01-4.05,5.4-8.86,7.75-13.96,10.24-3.99,1.95-8.12,3.97-12.42,7.65-.81.69-1.59,1.37-2.35,2.02-7.59,6.57-13.07,11.31-21.17,11.31ZM53.36,193.74c-19.89,0-30.19,18.04-38.31,35.09-3.24,6.81-18.31,49.93-9.02,60.54,3.07,3.51,6.04,5.18,10.97,7.94,2.83,1.59,6.34,3.56,10.84,6.43,5.2,3.32,9.01,6.37,12.07,8.82,5.39,4.32,8.64,6.92,14.12,6.92,6.98,0,11.85-4.21,19.21-10.58.76-.66,1.54-1.33,2.36-2.03,4.59-3.93,9.08-6.13,13.05-8.07,4.97-2.43,9.27-4.53,12.88-9.34,7.28-9.71,2.23-32.24-4.93-50.09-11.71-29.21-25.51-44.53-41-45.55-.76-.05-1.5-.07-2.23-.07Z"/>
    </g>
  </g>
</svg>