<?xml version="1.0" encoding="UTF-8"?>
<svg id="Layer_2" data-name="Layer 2" xmlns="http://www.w3.org/2000/svg" viewBox="0 0 115.29 385.45">
  <defs>
    <style>
      .cls-1 {
        stroke-width: 0px;
      }
    </style>
  </defs>
  <g id="teeth">
    <g>
      <path class="cls-1" d="M59.39,172.07c-12.26,0-23.42-8.06-30.22-21.99-1.93-3.97-3.27-8.87-6.19-19.63-1.05-3.86-2.31-8.48-3.87-14.11-2.57-9.22-5.33-15.39-8.01-21.37-2.85-6.36-5.54-12.36-7.88-21.52l-.2-.79c-2.2-8.57-6.31-24.51,1.75-43.56,3.43-8.1,14.77-14.12,33.71-17.88,6.46-1.28,10.86-3.66,15.11-5.96,4.38-2.37,8.52-4.6,14.17-5.11l.14,1.49-.14-1.49c17.09-1.55,35.12,9.58,43.84,27.07,4.98,10,4.05,19.97,2.2,39.84-1.18,12.64-4.09,24.01-9.9,46.66-3.93,15.34-6.1,23.78-9.17,29.51-3.99,7.43-14.57,27.17-32.94,28.74-.81.07-1.61.1-2.41.1ZM70.98,3c-.98,0-1.96.04-2.94.13-5.03.46-8.73,2.45-13.02,4.77-4.24,2.29-9.05,4.89-15.95,6.26-17.91,3.56-28.52,8.98-31.53,16.11C-.13,48.38,3.81,63.69,5.93,71.91l.2.8c2.28,8.91,4.92,14.8,7.71,21.04,2.72,6.07,5.53,12.35,8.16,21.79,1.57,5.64,2.83,10.27,3.88,14.13,2.87,10.56,4.18,15.39,5.99,19.1,2.39,4.9,11.21,20.31,27.43,20.31.73,0,1.48-.03,2.24-.1,14.85-1.27,24.13-15.19,30.55-27.17,2.78-5.18,4.74-12.59,8.91-28.83,5.77-22.5,8.67-33.79,9.82-46.19,1.8-19.3,2.7-28.99-1.9-38.22-7.68-15.4-22.96-25.56-37.94-25.56Z"/>
      <path class="cls-1" d="M43.66,385.45c-2.93,0-6.07-1.6-7.57-4.01-6.64-10.63-6.1-29.12-5.62-45.44.05-1.82.11-3.61.15-5.36.44-18.65-.8-28.12-2.53-41.23-1.79-13.57-4.01-30.45-5.61-64.67-.14-3-.31-6.22-.49-9.64-1.19-22.58-2.82-53.49.5-87.9l2.99.29c-3.3,34.18-1.68,64.97-.49,87.45.18,3.43.35,6.65.49,9.66,1.59,34.09,3.8,50.9,5.58,64.41,1.74,13.24,3,22.81,2.55,41.7-.04,1.75-.09,3.55-.15,5.38-.47,15.89-1,33.9,5.17,43.76,1.1,1.75,3.77,2.91,5.84,2.52l.15-.03h.15s.02,0,.04,0c5.24,0,12.94-15.86,19.17-39.52,5.03-19.09,7.42-30.68,9.21-53.05,1.93-24.06,5.59-37.38,9.46-51.49,3.28-11.95,6.68-24.3,9.28-44.22,2.21-16.9,2.65-25.67,1.51-55.13l3-.12c1.14,29.68.7,38.53-1.54,55.63-2.63,20.12-6.05,32.58-9.36,44.62-3.84,13.96-7.46,27.15-9.36,50.93-1.81,22.6-4.22,34.3-9.3,53.57-3.3,12.54-12.04,41.6-22,41.76-.4.07-.81.1-1.22.1Z"/>
    </g>
  </g>
</svg>