<?xml version="1.0" encoding="UTF-8"?>
<svg id="Layer_2" data-name="Layer 2" xmlns="http://www.w3.org/2000/svg" viewBox="0 0 172.45 315.65">
  <defs>
    <style>
      .cls-1 {
        stroke-width: 0px;
      }
    </style>
  </defs>
  <g id="teeth">
    <g>
      <path class="cls-1" d="M131.23,315.65c-9.67,0-14.13-3.16-18.45-6.22-3.86-2.73-7.5-5.31-15.13-5.39-7.03-.09-11.82,1.88-16.45,3.76-5.51,2.24-10.72,4.36-18.87,3.1-5.71-.88-9.18-2.63-12.85-4.49-2.97-1.5-6.34-3.2-11.48-4.73-6.8-2.02-11.37-2.55-15.04-2.97-3.96-.46-7.09-.82-10.93-2.74C-.91,289.52-.22,272.21.15,262.91c.95-23.65,9.11-53.95,29-61.57,5.88-2.25,9.84-2.55,14.42-2.89,3.04-.23,6.18-.46,10.36-1.3,8.29-1.66,13.51-3.9,18.12-5.89,5.3-2.28,9.88-4.24,17.17-4.53h0c7.34-.29,10.35,1.41,13.85,3.38,3.33,1.87,7.1,3.99,16.03,5.24,8.09,1.13,12.29.96,15.67.83,3.39-.13,6.06-.24,10.74,1.1,13.22,3.8,20.09,25.97,23,38.85,4.05,17.9,5.11,38.15,2.51,48.13-3.8,14.62-20.03,30.71-38.15,31.35-.57.02-1.13.03-1.67.03ZM97.26,301.04c.13,0,.27,0,.41,0,8.57.09,12.77,3.06,16.84,5.94,4.35,3.08,8.46,5.99,18.28,5.64,16.78-.59,31.82-15.53,35.35-29.1,2.49-9.58,1.42-29.23-2.53-46.72-4.71-20.82-12.33-34.17-20.9-36.63-4.21-1.21-6.43-1.12-9.79-.99-3.5.14-7.85.31-16.2-.86-9.5-1.33-13.71-3.69-17.09-5.6-3.35-1.89-5.77-3.25-12.26-3h0c-6.74.27-10.88,2.04-16.11,4.29-4.75,2.04-10.12,4.35-18.72,6.07-4.36.87-7.74,1.13-10.73,1.35-4.35.33-8.1.61-13.57,2.7-18.53,7.1-26.17,36.15-27.08,58.87-.35,8.64-.99,24.69,10.21,30.29,3.37,1.68,6.12,2,9.93,2.44,3.79.44,8.5.98,15.55,3.07,5.4,1.6,8.89,3.37,11.98,4.93,3.6,1.82,6.71,3.39,11.95,4.2,7.32,1.13,11.94-.75,17.28-2.92,4.59-1.87,9.79-3.98,17.2-3.98Z"/>
      <path class="cls-1" d="M1.72,278.78c8.16-.64,16.14,1.92,23.4,5.52,3.6,1.76,6.9,4.45,10.09,6.73,3.13,2.15,7.01,2.95,10.75,2.64,12.14-1.34,20.89-11.61,32.74-14.41,4.18-.95,9.03-1.12,12.85,1.19,1.97,1.23,3.41,2.91,4.69,4.5,3.59,4.73,7.42,9.15,12.47,12.31,3.24,2.09,6.7,3.96,10.46,4.94,5.58,1.28,11.68,2.27,17.5,1.82,14.1-1.64,25-12.14,33.72-22.66-8.05,11.31-19.06,22.6-33.48,24.71-2.06.27-4.18.3-6.22.18-4.04-.24-8.11-.53-12.17-1.51-8.05-2.08-15.32-6.98-20.75-13.21-1.36-1.55-2.6-3.19-3.84-4.71-1.24-1.52-2.5-2.92-3.96-3.81-3.15-1.86-7.1-1.63-10.6-.88-11.69,2.88-20.78,13.09-33.24,14.01-4.25.25-8.68-.82-12.12-3.35-3.28-2.47-6.09-5.09-9.67-7.03-6.97-3.83-14.57-6.87-22.62-6.96h0Z"/>
      <path class="cls-1" d="M83.94,231.89c.57,8.15.49,16.24.44,24.38-.12,8.14-.22,16.22-.97,24.36-1.63-8.04-2.08-16.22-2.03-24.39.13-8.17.76-16.34,2.55-24.34h0Z"/>
      <path class="cls-1" d="M23.52,207.35l-2.97-.4c3.83-28.17,4.61-48.5,2.54-65.92-1.13-9.46-2.81-16.47-4.43-23.25-2.21-9.23-4.3-17.96-4.72-31.6-.2-6.66-.09-11.67.03-16.52.15-6.38.29-12.41-.23-22-.63-11.62-4.79-21.28-7.83-28.34-1.42-3.29-2.54-5.89-3.04-8.03-.88-3.08-.02-6.02,2.33-7.79,3.9-2.95,9.8-.87,12.16.16,16.44,7.2,33.38,49.9,34.1,51.71.22.52.48,1.13.77,1.78,3.07,7.11,8.21,19,15.27,43.99,3.05,10.82,11.11,29.34,19.44,36.64,1.97,1.72,4.67,3.52,8.02,2.04,4.4-1.94,5.18-6.84,6.47-14.94.87-5.49,1.95-12.32,4.59-20.34,7.65-23.29,9.31-32.24,8.85-47.88-.52-17.91-4.39-30.34-14.27-45.87-2.13-3.35-1.49-7.44,1.49-9.51,6.54-4.55,18.3,4.22,22.73,7.52.31.23.57.43.78.58,22.39,16.24,28.53,51.77,29.88,62.28,7.03,54.75,3.71,97.79-.48,132.67l-2.98-.36c4.16-34.7,7.47-77.51.48-131.93-.93-7.26-6.7-44.3-28.67-60.23-.21-.16-.49-.36-.81-.6-9.59-7.15-16.06-9.66-19.22-7.46-1.66,1.15-1.94,3.44-.67,5.44,10.07,15.83,14.21,29.12,14.74,47.39.47,16.07-1.22,25.21-9,48.91-2.56,7.79-3.62,14.49-4.48,19.87-1.35,8.48-2.32,14.61-8.22,17.22-5.53,2.44-9.8-1.3-11.21-2.52-8.8-7.7-17.2-26.9-20.35-38.08-7-24.8-12.09-36.58-15.13-43.62-.28-.65-.55-1.26-.79-1.83-.19-.47-17.21-43.39-32.53-50.1-1.46-.64-6.43-2.57-9.14-.52-1.9,1.44-1.49,3.73-1.23,4.64.46,1.95,1.59,4.56,2.89,7.6,3.13,7.26,7.42,17.21,8.07,29.36.52,9.7.37,16.07.23,22.23-.11,4.81-.23,9.78-.03,16.36.41,13.33,2.46,21.91,4.64,30.99,1.64,6.86,3.34,13.96,4.49,23.59,2.1,17.68,1.32,38.25-2.54,66.68Z"/>
    </g>
  </g>
</svg>