<?xml version="1.0" encoding="UTF-8"?>
<svg id="Layer_2" data-name="Layer 2" xmlns="http://www.w3.org/2000/svg" viewBox="0 0 150.45 284.68">
  <defs>
    <style>
      .cls-1 {
        stroke-width: 0px;
      }
    </style>
  </defs>
  <g id="teeth">
    <g>
      <path class="cls-1" d="M94.51,115.26c-10.54,0-21.21-2.14-29.78-5.4-3.43-1.3-6.19-2.5-8.63-3.56-6.66-2.89-11.06-4.8-21.05-5.21-4.84-.2-8.2.57-10.9,1.18-3.43.78-6.4,1.46-10.12-.46C3.53,96.41,2.38,82.09.65,60.4c-1.85-23.13.68-28.78,2.52-32.9.22-.48.42-.94.6-1.4,2.02-5.16,7.53-11.68,14.04-16.62C26.08,3.22,39.17-.64,45.34.09c17.03,2.01,22.45,8.82,26.4,13.8,2.52,3.18,4.19,5.28,7.98,5.39,6.99.21,12.77-1.39,18.37-2.94,6.65-1.84,13.53-3.74,22.01-2.37,13.91,2.24,29.18,13.41,30.08,29.7.89,16.07-.02,25.92-7.77,41.83-6.21,12.76-9.82,15.99-18.53,21.99-8.05,5.55-18.64,7.77-29.37,7.77ZM33.47,98.06c.55,0,1.11.01,1.7.04,10.55.43,15.15,2.43,22.12,5.46,2.41,1.05,5.14,2.23,8.5,3.51,16.59,6.29,41.31,8.34,56.39-2.04,8.4-5.78,11.61-8.67,17.54-20.84,7.51-15.41,8.35-24.51,7.47-40.35-.82-14.72-14.81-24.85-27.56-26.9-7.83-1.26-14.1.47-20.73,2.3-5.81,1.61-11.83,3.25-19.26,3.05-5.18-.15-7.63-3.25-10.24-6.52-3.83-4.82-8.59-10.82-24.4-12.68-5.5-.66-17.77,3.06-25.36,8.81-6.1,4.62-11.23,10.64-13.06,15.32-.2.5-.42,1-.66,1.53-1.62,3.61-4.06,9.06-2.27,31.43,1.81,22.57,3.15,34.56,11.75,38.98,2.75,1.42,4.76.96,8.08.2,2.55-.58,5.66-1.29,10-1.29Z"/>
      <path class="cls-1" d="M83.44,19.99c-.41,5.26-1.13,10.3-1.55,15.49-.49,5.19-.63,10.27-1.12,15.53-3.52-9.9-2.45-21.85,2.67-31.02h0Z"/>
      <path class="cls-1" d="M96.41,59.67c-6.89-5.7-15.69-7.92-24.46-7.81-2.94.02-5.89.29-8.94.71,10.54-6.18,27.06-4.08,33.4,7.1h0Z"/>
      <path class="cls-1" d="M97.15,284.68c-1.12,0-2.32-.22-3.62-.67-3.9-1.33-5.76-4.8-6.78-8.45-.83,1.02-1.98,1.93-3.79,2.44-6.79,1.9-15.22-4.49-18.23-8.33-23.9-30.51-41.44-85.27-42.17-87.57-3.6-8.55-9.11-31.06-9.73-49.63-.5-14.92-.6-22.54.49-32.85l2.98.31c-1.01,9.57-1.01,16.49-.48,32.43.58,17.56,5.94,40.16,9.52,48.63l.05.14c.18.56,17.74,56.1,41.69,86.69,2.65,3.39,9.95,8.72,15.06,7.29,2.01-.56,2.65-1.84,3.46-3.47.16-.32.32-.63.48-.93l2.11-3.88.69,4.37c.94,5.98,2.62,8.96,5.6,9.98,3,1.03,4.8.57,6.65-1.68,2.6-3.16,3.82-11.64,4.07-17.95.06-1.62.37-4.41.88-9.03.65-5.93,1.63-14.89,2.86-28.23,1.42-15.49,3.78-36.23,9.41-59.35,4.33-17.79,7.14-35.4,10.37-65l2.98.33c-3.25,29.74-6.08,47.46-10.44,65.39-5.58,22.93-7.92,43.53-9.33,58.92-1.23,13.37-2.21,22.34-2.87,28.28-.5,4.55-.8,7.3-.86,8.82-.14,3.44-.89,15.04-4.75,19.74-1.81,2.2-3.86,3.28-6.32,3.28Z"/>
      <path class="cls-1" d="M69.14,122.2c2.87,20.24,4.35,40.66,7.64,60.82.82,4.52,1.72,9.45,2.46,13.96,1.74,10.97,4.04,26.48,6.09,37.23,2.11,12.37,4.46,25.22,2.06,37.7.86-9.43-.78-18.78-2.52-28-1.88-9.26-3.99-18.48-5.55-27.8-1.72-11.01-4.46-26.44-6.1-37.31-2.39-18.79-3.3-37.69-4.1-56.59h0Z"/>
    </g>
  </g>
</svg>