<?xml version="1.0" encoding="UTF-8"?>
<svg id="Layer_2" data-name="Layer 2" xmlns="http://www.w3.org/2000/svg" viewBox="0 0 100.05 348.9">
  <defs>
    <style>
      .cls-1 {
        stroke-width: 0px;
      }
    </style>
  </defs>
  <g id="teeth">
    <g>
      <path class="cls-1" d="M49.73,121.17c-.52,0-1.05,0-1.58-.03-26.58-.89-42.6-47.66-42.76-48.13l-.11-.32c-3.13-9.32-9.65-28.71-.86-41.12,3.34-4.71,9.02-7.29,15.03-10.03,4.13-1.88,8.4-3.82,12.21-6.56,3.05-2.2,5.4-4.5,7.67-6.72C43.77,3.92,47.59.18,54.28,0l.04,1.5-.04-1.5c7.22-.19,10.84,3.49,15.42,8.14,2.51,2.55,5.36,5.44,9.4,8.36,4.56,3.3,7.72,5.4,10.03,6.94,5.19,3.46,6.28,4.18,8.65,8.82,5.75,11.25-.45,40.5-7.27,53.98-11.42,22.55-21.41,34.92-40.78,34.92ZM54.78,3c-.14,0-.28,0-.43,0-5.51.14-8.62,3.18-12.92,7.4-2.24,2.19-4.78,4.68-8.02,7.01-4.06,2.92-8.46,4.92-12.73,6.86-5.64,2.56-10.96,4.98-13.83,9.03-7.91,11.16-1.72,29.58,1.26,38.43l.11.32c.15.45,15.49,45.27,40.02,46.09,16.94.57,26.56-7.51,39.59-33.25,6.43-12.69,12.37-41.31,7.28-51.26-2.02-3.95-2.66-4.37-7.64-7.69-2.33-1.55-5.52-3.68-10.12-7.01-4.24-3.07-7.18-6.05-9.78-8.69-4.28-4.34-7.15-7.25-12.78-7.25Z"/>
      <path class="cls-1" d="M29.99,348.9c-.63,0-1.27-.06-1.91-.19-7.51-1.47-6.39-8.93-5.84-12.51.05-.32.09-.62.13-.91l.2-1.19c.91-5.45,2.29-13.69,2.4-21.94.38-28.06-1.69-47.5-3.5-58.87l-1.27-7.97c-6.11-38.3-10.53-65.97-11.8-92.45-1.01-20.88.02-41.3,3.32-66.19l2.97.39c-3.28,24.71-4.29,44.96-3.3,65.65,1.27,26.31,5.67,53.91,11.77,92.12l1.27,7.97c1.83,11.49,3.93,31.11,3.54,59.38-.12,8.47-1.52,16.85-2.44,22.39l-.19,1.14c-.03.26-.08.57-.13.91-.7,4.65-.89,8.27,3.45,9.12,6.54,1.28,12.74-7.45,13.92-9.22,21.19-31.75,28.18-111.97,28.25-112.78l1.02-13.5c2.29-30.26,3.23-42.78,4-65.52.38-11.29.57-24.85.57-40.3h3c0,15.48-.19,29.08-.57,40.4-.76,22.8-1.71,35.34-4,65.65l-1.02,13.51c-.28,3.34-7.13,81.81-28.75,114.21-1.76,2.64-7.74,10.68-15.08,10.68Z"/>
    </g>
  </g>
</svg>