<?xml version="1.0" encoding="UTF-8"?>
<svg id="Layer_2" data-name="Layer 2" xmlns="http://www.w3.org/2000/svg" viewBox="0 0 99.63 337.79">
  <defs>
    <style>
      .cls-1 {
        stroke-width: 0px;
      }
    </style>
  </defs>
  <g id="teeth">
    <g>
      <path class="cls-1" d="M82.84,243.35l-2.98-.35c4.38-36.88,3.5-58.24.65-80.76-3.31-26.19-6.09-37.6-11.64-60.33-1.27-5.21-2.69-11.01-4.29-17.73-5.81-24.37-4-53.09-2.92-70.25.15-2.37.28-4.52.38-6.41-.01-2.36-.82-3.66-2.71-4.36-2.19-.81-5.85,1.97-7.28,3.75-15.5,19.35-22.29,76.7-22.35,77.27-2.99,20.89-4.87,76.52-4.91,84.68-.15,32.61.35,47.06,2.33,67.19l-2.99.29c-1.99-20.26-2.5-34.77-2.35-67.5.04-8.2,1.93-64.07,4.94-85.05.27-2.35,6.96-58.75,22.99-78.76,1.38-1.72,6.3-6.29,10.65-4.69,3.1,1.14,4.67,3.56,4.67,7.21v.08c-.1,1.91-.24,4.08-.39,6.48-1.07,16.99-2.86,45.44,2.85,69.37,1.6,6.71,3.01,12.51,4.28,17.71,5.57,22.84,8.37,34.31,11.7,60.67,2.87,22.75,3.77,44.31-.65,81.5Z"/>
      <path class="cls-1" d="M48.72,337.79c-.37,0-.76-.01-1.15-.03-7.19-.39-9.23-2.26-14.68-7.25-1.76-1.62-3.96-3.63-6.85-6.06-3.91-3.29-7.53-4.9-11.04-6.46-4.35-1.94-8.46-3.76-11.58-8.51-9.15-13.94,2.14-41.52,9.38-54.16,1.19-2.07,2.34-4.14,3.48-6.18,8.66-15.56,16.84-30.25,32.57-30.34h.14c20.99,0,36.55,26.76,42.27,38.29,5.67,11.42,13.69,36.49,3.44,49.61-4.14,5.29-5.8,6.24-10.75,9.06-2.35,1.34-5.58,3.17-10.27,6.17-3.95,2.52-6.85,5.32-9.42,7.78-4.5,4.33-8.41,8.09-15.53,8.09ZM48.86,221.79h0c-13.97.08-21.38,13.39-29.96,28.8-1.14,2.06-2.3,4.14-3.49,6.21-8.05,14.05-17.22,39.22-9.48,51.02,2.63,4.01,6.01,5.51,10.29,7.42,3.52,1.57,7.52,3.34,11.75,6.91,2.94,2.47,5.16,4.51,6.94,6.14,5.28,4.84,6.7,6.14,12.82,6.47,6.57.37,9.86-2.82,14.44-7.22,2.67-2.56,5.69-5.47,9.89-8.15,4.76-3.04,8.02-4.9,10.41-6.25,4.81-2.73,6.1-3.47,9.87-8.3,9.33-11.94,1.62-35.59-3.76-46.43-4.27-8.6-19.73-36.62-39.59-36.62h-.12Z"/>
      <path class="cls-1" d="M86.26,286.1c-6.85-3.03-17.76-2.41-23.79,2.2-4.26,3.03-7.34,7.72-12.52,9.55-3.64,1.3-8.08.62-11.05-1.76-2.79-2.08-4.95-4.52-8.06-5.89-6.22-2.75-13.24-.96-19.07,2.15,5.44-4.37,13.05-6.86,19.95-4.29,3.36,1.15,6.06,3.82,8.81,5.73,6.19,4.26,11.48.23,16.27-4.37,2.59-2.27,5.56-4.59,9.08-5.67,6.43-1.93,14.77-1.45,20.4,2.37h0Z"/>
      <path class="cls-1" d="M65.99,309.16c-5.48-1.39-10.65-4.09-15.12-7.55-1.33-.97-2.6-2.32-4.09-2.76-3.26-.82-6.45.9-9.3,2.49-3.11,1.81-6.05,4.05-9.12,6.21,2.19-3.06,4.76-5.83,7.81-8.18,3.22-2.39,7.17-4.55,11.46-3.4,2.12.63,3.51,2.15,5.05,3.45,4.16,3.66,8.61,6.7,13.32,9.75h0Z"/>
    </g>
  </g>
</svg>