<?xml version="1.0" encoding="UTF-8"?>
<svg id="Layer_2" data-name="Layer 2" xmlns="http://www.w3.org/2000/svg" viewBox="0 0 83.84 320.15">
  <defs>
    <style>
      .cls-1 {
        stroke-width: 0px;
      }
    </style>
  </defs>
  <g id="teeth">
    <g>
      <path class="cls-1" d="M43.31,320.15c-8.13,0-15.89-1.24-22.35-2.76-10.03-2.36-15.75-6.24-16.98-11.54-4.34-18.62-8.56-72.5,7.22-111.27,3.86-9.47,10.45-22.15,23.17-22.85,17.02-.92,31.09,26.62,37.98,43.13,5.69,13.63,15.68,62.41,9.58,85.26-1.82,7.13-7.24,11.77-9.85,13.23-9.06,5.06-19.17,6.8-28.77,6.8ZM35.22,174.7c-.23,0-.45,0-.68.02-8.38.46-14.91,7.13-20.55,20.99-15.51,38.11-11.36,91.13-7.08,109.46.95,4.09,5.92,7.22,14.75,9.3h0c13.57,3.2,33.09,5.14,48.97-3.74,2.58-1.44,6.95-5.66,8.41-11.37,5.95-22.27-3.87-69.99-9.45-83.35-5.23-12.52-18.93-41.31-34.36-41.31Z"/>
      <path class="cls-1" d="M71.35,284.5c-3.06-18.51-5.61-37.08-9.9-55.31-1.25-4.54-2.16-9.35-4.82-13.16-.11-.14-.22-.23-.32-.32-.21-.16-.28-.14-.23-.14-.28.12-.74.73-.99,1.14-1.5,2.43-2.53,5.04-4.52,7.36-2.09,2.64-5.96,4.09-9.18,2.72-2.89-1.11-5.06-3.57-7.06-5.61-2.27-2.24-4.46-4.94-7.05-1.42-2.1,2.77-3.37,6.38-4.49,9.73-1.12,3.52-2.07,7.12-2.93,10.76-3.34,14.56-5.55,29.43-7.88,44.26.51-7.5,1.24-14.98,2.11-22.45,1.28-8.87,5.12-45.89,15.34-46.91,6.18-.31,9.04,9.45,15.11,9.14,6.26-.36,7.07-13.35,12.6-11.4,8.7,3.52,13.24,60.37,14.21,71.61h0Z"/>
      <path class="cls-1" d="M67.27,204.45l-2.99-.19c1.8-28.67-.36-59.36-3.6-99.58l-.43-5.39c-2.88-35.75-4.61-57.33-9.7-86.77-.71-5.03-2.35-8.87-3.99-9.4-2.01-.64-4.5,1.26-5.65,3.4-13.8,25.73-16.39,65.31-16.42,65.71-.51,14.43-2.55,27.4-4.92,42.42-3.53,22.35-7.52,47.69-7.42,85.59h-3c-.11-38.13,3.91-63.59,7.45-86.05,2.35-14.93,4.39-27.82,4.89-42.1.03-.44,2.66-40.67,16.77-66.98,1.73-3.23,5.55-6.02,9.21-4.84,4.12,1.33,5.59,8.69,6.03,11.79,5.11,29.53,6.85,51.16,9.73,86.99l.43,5.38c3.25,40.35,5.42,71.14,3.61,100.01Z"/>
    </g>
  </g>
</svg>