<?xml version="1.0" encoding="UTF-8"?>
<svg id="Layer_2" data-name="Layer 2" xmlns="http://www.w3.org/2000/svg" viewBox="0 0 181.69 333.67">
  <defs>
    <style>
      .cls-1 {
        stroke-width: 0px;
      }
    </style>
  </defs>
  <g id="teeth">
    <g>
      <path class="cls-1" d="M82.99,115.75c-8.15,0-12.46-2.03-16.63-4-4.51-2.13-8.75-4.14-18.04-3.91-3.45.08-6.48.52-9.17.91-5.9.86-10.56,1.53-14.29-2.5C10.52,90.71-3.98,45.29,1,31.48,5.2,19.86,21.53,13.87,34.24,12.27c3.15-.4,4.84-.49,6.19-.57,2.14-.12,3.21-.18,8.18-1.46,5.92-1.52,9.05-3.42,12.08-5.26C65,2.36,68.72.1,78.47,0c7.37-.09,10.48,1.47,14.11,3.26,3.02,1.49,6.45,3.18,13.37,4.44h0c6.24,1.13,10.71,1.3,15.03,1.46,3.4.13,6.91.26,11.23.86,19.76,2.73,32.54,27.92,32.91,40.73.39,13.33-9.95,42.23-20.66,52.42-4.52,4.3-8.97,4.29-15.11,4.26-3.62-.01-8.13-.03-13.89.82-9.2,1.36-13.85,3.14-17.58,4.57-4.23,1.62-7.58,2.9-14.82,2.91h-.06ZM49.72,104.82c9,0,13.53,2.14,17.92,4.21,4.05,1.91,7.88,3.72,15.35,3.72h.06c6.69,0,9.66-1.14,13.75-2.71,3.87-1.48,8.69-3.33,18.22-4.74,5.99-.89,10.62-.87,14.34-.86,6.04.02,9.38.04,13.03-3.44,10.63-10.12,20.07-38.68,19.73-50.16-.34-11.6-12.41-35.37-30.32-37.84-4.17-.58-7.45-.7-10.93-.83-4.42-.17-9-.34-15.45-1.51h0c-7.34-1.33-11.12-3.2-14.17-4.7-3.55-1.75-6.11-3.02-12.75-2.95-8.93.09-12.16,2.06-16.26,4.54-3.07,1.86-6.54,3.98-12.9,5.6-5.25,1.34-6.49,1.42-8.75,1.55-1.31.08-2.94.17-5.99.55-12.8,1.61-27.29,7.57-30.79,17.25-4.63,12.82,9.71,57.05,23.25,71.71,2.53,2.74,5.74,2.42,11.65,1.57,2.76-.4,5.9-.85,9.52-.94.5-.01.99-.02,1.47-.02Z"/>
      <path class="cls-1" d="M116.27,11.93c-14.03,20.44-19.86,43.29-15.8,67.88-8.53-23.08-1.58-50.71,15.8-67.88h0Z"/>
      <path class="cls-1" d="M91.96,46.58c-9.45-12.71-24.24-21.15-40.16-21.26-5.24-.11-10.52.53-15.75,1.81,4.81-2.46,10.22-3.82,15.7-4.15,16.48-1.25,33.42,8.47,40.21,23.6h0Z"/>
      <path class="cls-1" d="M114.98,333.67c-4.88,0-8.34-3.27-9.75-4.88-5.52-6.31-41.14-83-47.2-97.26-.34-.84-.68-1.67-1.02-2.49-6.18,38.02-3.41,48.04,2.26,63.17.47,1.26,1.12,2.71,1.81,4.25,2.56,5.71,5.74,12.82,4.24,19.29-.48,2.06-1.67,3.72-3.34,4.68-1.31.74-3.54,1.41-6.81.37-3.68-1-10.5-8.36-12.83-11.12-13.99-16.6-22.87-31.71-27.13-46.22-5.14-17.49-1.77-44.15,1.79-72.38.93-7.34,1.88-14.92,2.68-22.35,3.4-31.49,4.16-48.08,4.52-56.05.24-5.16.29-6.33.83-6.98,0-.03,0-.05,0-.07.06-1.56,1.33-1.64,1.47-1.64,1.41-.03,1.51.95,1.69,2.93l.03.39c2.64,29.74,4.67,44.18,8.05,57.21,5.09,19.64,10.24,31.83,17.37,48.71,2.24,5.3,4.56,10.78,7.15,17.15,6.96,16.36,41.7,90.73,46.69,96.44,1.64,1.87,5.09,4.82,9.75,3.54,2.93-.8,4.05-3.85,4.88-6.65,1.5-4.92,1.12-19.08.81-30.46-.11-4.25-.22-8.26-.24-11.62-.1-21.07,1.37-32.08,3.58-48.74,1.25-9.38,2.8-21.06,4.42-37.44,1.35-13.64,2.52-26.22,3.65-38.4,2.01-21.63,3.74-40.3,5.59-54.8l2.98.38c-1.85,14.44-3.58,33.09-5.58,54.69-1.13,12.18-2.3,24.77-3.65,38.42-1.63,16.42-3.18,28.13-4.43,37.54-2.2,16.54-3.65,27.46-3.56,48.33.02,3.33.12,7.32.24,11.56.33,12.2.7,26.03-.94,31.4-.7,2.39-2.18,7.37-6.96,8.68-1.07.29-2.08.42-3.04.42ZM26.69,122.87c-.57,9.64-1.66,24.34-4.02,46.19-.8,7.45-1.76,15.05-2.69,22.4-3.52,27.91-6.85,54.27-1.89,71.16,4.14,14.1,12.82,28.86,26.54,45.13,4.22,5.01,9.41,9.66,11.34,10.16l.08.02c1.78.57,3.32.53,4.45-.11.94-.54,1.62-1.51,1.91-2.75,1.27-5.49-1.68-12.08-4.06-17.38-.71-1.58-1.38-3.08-1.88-4.42-6.44-17.17-8.55-29-1.62-69.46-1.37-3.29-2.68-6.38-3.96-9.41-7.18-16.99-12.36-29.27-17.51-49.12-2.78-10.73-4.66-22.36-6.69-42.4Z"/>
      <path class="cls-1" d="M172.53,302.06c-.52,0-1.06-.06-1.62-.2-2.86-.71-4.91-2.89-6.11-6.47-2.55-7.65-4.58-13.93-6.54-20.01-1.44-4.46-2.81-8.7-4.26-13.09-3.47-10.49-9.9-20.66-18.11-28.65-2.23-2.17-7.25-8.46-8.87-10.59l2.39-1.81c1.53,2.02,6.48,8.22,8.57,10.25,10.97,10.66,16.31,22.12,18.87,29.86,1.45,4.4,2.83,8.65,4.27,13.11,1.96,6.07,3.99,12.35,6.53,19.98.86,2.58,2.16,4.05,3.99,4.51,2.9.72,4.8-2.23,5.23-3.32l.03-.07c1.78-3.88,3.77-28.57-2.36-52.2l-.64-2.48c-3.78-14.59-5.19-20.05-13.68-39.29-3.48-7.88-14.12-35.5-17.33-58.34-.37-2.6-.7-4.77-.99-6.73-1.24-8.2-1.93-12.71-2.54-29.81l3-.11c.61,16.93,1.28,21.38,2.51,29.47.3,1.97.63,4.14,1,6.76,3.17,22.5,13.68,49.77,17.11,57.54,8.59,19.46,10.02,24.99,13.84,39.75l.64,2.47c6.06,23.37,4.51,49.02,2.21,54.16-.91,2.24-3.52,5.29-7.11,5.29Z"/>
    </g>
  </g>
</svg>